<svg xmlns="http://www.w3.org/2000/svg" viewBox="0 0 825.51 949.2"><defs><style>.cls-1{fill:#181818;}.cls-2{fill:#231f20;}.cls-3{fill:#f1ad90;}.cls-4{fill:#f5c3ac;}.cls-5{fill:#f8b6c1;}.cls-6{fill:#e99992;}.cls-7{fill:#f8bbcb;}.cls-8{fill:#c47563;}.cls-9{fill:#d1d3d4;}.cls-10{fill:#351114;}.cls-11{fill:#da9a82;}.cls-12{fill:#3c2415;}.cls-13{fill:#603913;}.cls-14{fill:#181816;}.cls-15{fill:#d92647;}.cls-16{fill:none;stroke:#171715;stroke-linecap:square;stroke-miterlimit:10;stroke-width:6px;}</style></defs><g id="Layer_2" data-name="Layer 2"><rect class="cls-1" x="281.76" y="547.34" width="177.46" height="51.39"/></g><g id="Layer_4" data-name="Layer 4"><path class="cls-1" d="M127.18,677.25H614.81a93.94,93.94,0,0,1,93.94,93.94v178a0,0,0,0,1,0,0H33.24a0,0,0,0,1,0,0v-178A93.94,93.94,0,0,1,127.18,677.25Z"/><path class="cls-1" d="M603.7,711.23c3.22,0,3.22-5,0-5s-3.22,5,0,5Z"/><polygon class="cls-1" points="665.88 691.58 458.6 547.25 414.62 599.15 621.9 743.48 665.88 691.58"/><rect class="cls-1" x="371.7" y="580.18" width="94.11" height="190.42"/><rect class="cls-1" x="435.88" y="632.57" width="94.11" height="190.42"/><polygon class="cls-1" points="73.61 691.58 280.89 547.25 324.87 599.15 117.6 743.48 73.61 691.58"/><rect class="cls-1" x="276.64" y="572.9" width="189.17" height="190.42" transform="translate(742.45 1336.22) rotate(-180)"/><rect class="cls-1" x="209.5" y="632.57" width="94.11" height="190.42" transform="translate(513.11 1455.55) rotate(-180)"/><rect class="cls-2" x="280.52" y="488.63" width="180.51" height="67.16" rx="18.09"/><path class="cls-3" d="M370.7,160.2V537.71h17.09a30.53,30.53,0,0,0,19.15-6.77l72.94-58.52a48.56,48.56,0,0,0,18-37.89V160.2Z"/><path class="cls-4" d="M242.58,159.38V433.9a48.59,48.59,0,0,0,17.8,37.7L333.48,531a30.59,30.59,0,0,0,19.3,6.88h18V159.38Z"/><polygon class="cls-5" points="90.98 339.76 46.37 323.43 0 333.74 16.33 289.13 6.02 242.76 50.63 259.1 97 248.78 80.66 293.39 90.98 339.76"/><polygon class="cls-5" points="708.75 102.29 663.41 116.46 632.88 152.86 618.71 107.52 582.31 76.99 627.65 62.82 658.18 26.42 672.35 71.76 708.75 102.29"/><polygon class="cls-5" points="762.55 729.98 738.8 688.84 696.61 667.01 737.75 643.26 759.57 601.07 783.32 642.21 825.51 664.03 784.38 687.78 762.55 729.98"/></g><g id="Layer_3" data-name="Layer 3"><path class="cls-6" d="M329.53,444.62h83.84a0,0,0,0,1,0,0v4.1A18.58,18.58,0,0,1,394.8,467.3H348.11a18.58,18.58,0,0,1-18.58-18.58v-4.1a0,0,0,0,1,0,0Z"/><rect class="cls-7" x="355.77" y="453.96" width="29.98" height="7.63" rx="3.81"/><path class="cls-8" d="M390.79,320.19c0-30.51,24.2-55.25,54-55.25s54.05,24.74,54.05,55.25"/><path class="cls-9" d="M465.81,320.64c0-14.95-14.54-27.07-32.47-27.07s-32.47,12.12-32.47,27.07"/><rect class="cls-10" x="343.35" y="390.14" width="54.82" height="8.21"/><ellipse class="cls-8" cx="399.51" cy="381.51" rx="16.48" ry="16.84"/><rect class="cls-8" x="353.1" y="301.23" width="36.71" height="93.01" rx="18.35"/><ellipse class="cls-8" cx="343.35" cy="381.51" rx="16.48" ry="16.84"/><ellipse class="cls-11" cx="371.45" cy="381.51" rx="21.49" ry="21.96"/><polygon class="cls-9" points="402.88 320.86 462.24 320.86 432.14 293.57 422.69 297.56 402.88 320.86"/><ellipse class="cls-12" cx="432.14" cy="307.21" rx="13.35" ry="13.65"/><path class="cls-13" d="M432.14,320.86a13.65,13.65,0,0,1,0-27.29"/><path class="cls-8" d="M816,411.71c3.21,0,3.22-5,0-5s-3.23,5,0,5Z"/><path class="cls-14" d="M484.6,282.77a53.25,53.25,0,0,0-79.52,0Z"/><path class="cls-15" d="M323.36,433.18h38.43a11.44,11.44,0,0,1,11.44,11.44v0a0,0,0,0,1,0,0H311.92a0,0,0,0,1,0,0v0a11.44,11.44,0,0,1,11.44-11.44Z"/><path class="cls-15" d="M384.67,433.18H423.1a11.44,11.44,0,0,1,11.44,11.44v0a0,0,0,0,1,0,0H373.23a0,0,0,0,1,0,0v0a11.44,11.44,0,0,1,11.44-11.44Z"/><path class="cls-16" d="M465.81,317.17c0-13-14.54-23.6-32.47-23.6s-32.47,10.56-32.47,23.6"/><path class="cls-8" d="M351.69,320.19c0-30.51-24.2-55.25-54.05-55.25s-54.06,24.74-54.06,55.25"/><path class="cls-9" d="M276.66,320.64c0-14.95,14.54-27.07,32.48-27.07s32.47,12.12,32.47,27.07"/><polygon class="cls-9" points="339.59 320.86 280.24 320.86 310.34 293.57 319.78 297.56 339.59 320.86"/><ellipse class="cls-12" cx="310.34" cy="307.21" rx="13.35" ry="13.65"/><path class="cls-13" d="M310.34,320.86a13.65,13.65,0,0,0,0-27.29"/><path class="cls-14" d="M257.88,282.77a53.24,53.24,0,0,1,79.51,0Z"/><path class="cls-16" d="M276.66,317.17c0-13,14.54-23.6,32.48-23.6s32.47,10.56,32.47,23.6"/><rect class="cls-8" x="403.98" y="325.56" width="57.16" height="10.19"/><rect class="cls-8" x="281.76" y="325.56" width="57.16" height="10.19"/></g><g id="hair"><rect class="cls-1" x="497.68" y="179.48" width="18.88" height="120.21" transform="translate(1014.23 479.17) rotate(-180)"/><polygon class="cls-1" points="516.56 299.69 553.17 170.55 502.76 170.55 516.56 299.69"/><rect class="cls-1" x="224.7" y="152.3" width="18.88" height="158.01"/><path class="cls-1" d="M326.23,204.72A102.64,102.64,0,0,1,335.38,194a98,98,0,0,1,140.68,0,102.79,102.79,0,0,1,28.64,82c29.41-39.84,26.36-96.74-9.15-133a98,98,0,0,0-140.68,0A102.28,102.28,0,0,0,326.23,204.72Z"/><path class="cls-1" d="M312.59,107.76c-10.15,30.27-45.68,15.59-75.95,5.44A57.7,57.7,0,0,1,201,78.85a57.8,57.8,0,0,0,111.63,28.91C317,94.6,313.46,105.16,312.59,107.76Z"/><path class="cls-1" d="M238.5,198.21a38.32,38.32,0,0,1-5.13,2.3c-20.79,7.6-43.66-3.47-51.1-24.71a41.57,41.57,0,0,1,3.4-34.83c-17.38,9.3-25.84,30.5-19,49.92,7.44,21.24,30.31,32.3,51.1,24.71A40,40,0,0,0,238.5,198.21Z"/><path class="cls-1" d="M458.74,78.62A39.23,39.23,0,0,1,456,154.14a39.23,39.23,0,1,0,2.78-75.52Z"/><path class="cls-1" d="M443.7,85.65a40.16,40.16,0,0,1,5.1,2,39.24,39.24,0,0,1-7.88,73.49,39.24,39.24,0,1,0,2.78-75.53Z"/><path class="cls-1" d="M270.62,116.39a38.62,38.62,0,0,1-2.52,5.18c-11.42,19.65-37.23,26-57.65,14.08a43.33,43.33,0,0,1-21-29.69c-7.53,18.75.17,41,18.84,51.87,20.42,11.87,46.22,5.56,57.64-14.08A40,40,0,0,0,270.62,116.39Z"/><polygon class="cls-1" points="224.7 310.31 188.09 181.18 238.5 181.18 224.7 310.31"/><path class="cls-1" d="M224.7,190.11A36.31,36.31,0,0,0,195,205.63l16.06,56.63a35.91,35.91,0,0,0,13.62,2.68c20.22,0,36.61-16.75,36.61-37.42S244.92,190.11,224.7,190.11Z"/><rect class="cls-11" x="224.7" y="282.77" width="18.88" height="98.74" rx="9.44"/><rect class="cls-11" x="497.68" y="282.77" width="18.88" height="98.74" rx="9.44"/><ellipse class="cls-1" cx="215.75" cy="171.28" rx="33.79" ry="30.32"/><path class="cls-1" d="M480.94,178.11a38.32,38.32,0,0,0,5.13,2.3c20.79,7.6,43.66-3.47,51.09-24.71a41.54,41.54,0,0,0-3.4-34.83c17.38,9.3,25.85,30.5,19,49.92-7.43,21.24-30.3,32.31-51.09,24.71A40,40,0,0,1,480.94,178.11Z"/><ellipse class="cls-1" cx="503.69" cy="151.19" rx="33.79" ry="30.32"/><path class="cls-1" d="M370.11,98.55C451.05,98.55,518.33,158.31,532,237h2.54c0-92.83-73.63-168.08-164.45-168.08S205.66,144.18,205.66,237h2.54C221.89,158.31,289.17,98.55,370.11,98.55Z"/><polygon class="cls-1" points="232.26 166.65 299.75 187.36 393.85 137.38 440.2 109.98 408.48 89.64 303.22 103.08 232.26 171.28 232.26 166.65"/><path class="cls-1" d="M371.13,71.32c-4.07,52.33-46.9,93.5-99.15,93.5a98.47,98.47,0,0,1-77-37.32c6.77,49.42,48.29,87.45,98.5,87.45,54.94,0,99.48-45.52,99.48-101.67C392.94,97.19,375.3,71.25,371.13,71.32Z"/><rect class="cls-1" x="413.37" y="104.43" width="38.06" height="38.06"/></g></svg>