<svg id="Layer_1" data-name="Layer 1" xmlns="http://www.w3.org/2000/svg" viewBox="0 0 841.89 595.28"><defs><style>.cls-1{font-size:12px;}.cls-1,.cls-2{fill:#221f20;font-family:MyriadPro-Regular, Myriad Pro;}.cls-2{font-size:7.14px;}.cls-3{letter-spacing:0em;}.cls-4{letter-spacing:-0.01em;}.cls-5{letter-spacing:0em;}.cls-6{letter-spacing:0em;}.cls-7{letter-spacing:-0.01em;}.cls-8{letter-spacing:-0.01em;}.cls-9{letter-spacing:0em;}.cls-10{letter-spacing:-0.01em;}.cls-11{letter-spacing:-0.01em;}.cls-12{letter-spacing:-0.01em;}.cls-13{letter-spacing:-0.01em;}.cls-14{letter-spacing:0.03em;}.cls-15{letter-spacing:0em;}.cls-16{letter-spacing:-0.01em;}</style></defs><text class="cls-1" transform="translate(176.62 145.33)">v</text><text class="cls-2" transform="translate(168.01 292.34)"><tspan class="cls-3">O</tspan><tspan x="4.94" y="0">ur mission is </tspan><tspan class="cls-4" x="43.11" y="0">t</tspan><tspan x="45.43" y="0">o facilit</tspan><tspan class="cls-5" x="66.99" y="0">a</tspan><tspan class="cls-4" x="70.41" y="0">t</tspan><tspan class="cls-6" x="72.73" y="0">e t</tspan><tspan class="cls-7" x="80.19" y="0">r</tspan><tspan class="cls-6" x="82.49" y="0">ainin</tspan><tspan class="cls-8" x="97.21" y="0">g</tspan><tspan class="cls-9" x="101.09" y="0">, educ</tspan><tspan class="cls-5" x="118.83" y="0">a</tspan><tspan x="122.25" y="0">tion and o</tspan><tspan class="cls-10" x="152.56" y="0">r</tspan><tspan x="154.84" y="0">ganising </tspan><tspan class="cls-4" x="181.89" y="0">t</tspan><tspan x="184.21" y="0">o c</tspan><tspan class="cls-5" x="192.85" y="0">a</tspan><tspan x="196.26" y="0">tal</tspan><tspan class="cls-11" x="203.76" y="0">y</tspan><tspan x="207.08" y="0">se p</tspan><tspan class="cls-12" x="219.07" y="0">o</tspan><tspan class="cls-13" x="222.94" y="0">w</tspan><tspan x="228.13" y="0">e</tspan><tspan class="cls-14" x="231.71" y="0">r</tspan><tspan class="cls-6" x="234.26" y="0">ful peoplem</tspan><tspan class="cls-12" x="270.33" y="0">o</tspan><tspan class="cls-13" x="274.21" y="0">v</tspan><tspan x="277.57" y="0">eme</tspan><tspan class="cls-5" x="290.69" y="0">n</tspan><tspan class="cls-15" x="294.63" y="0">t</tspan><tspan class="cls-16" x="296.99" y="0">s</tspan><tspan x="299.74" y="0">.</tspan></text></svg>