<?xml version="1.0" encoding="utf-8"?>
<!-- Generator: Adobe Illustrator 26.2.1, SVG Export Plug-In . SVG Version: 6.00 Build 0)  -->
<svg version="1.1" id="Layer_1" xmlns="http://www.w3.org/2000/svg" xmlns:xlink="http://www.w3.org/1999/xlink" x="0px" y="0px"
	 viewBox="0 0 24.4 29.3" style="enable-background:new 0 0 24.4 29.3;" xml:space="preserve">
<style type="text/css">
	.st0{fill:#FFFFFF;}
	.st1{fill:#CBBDE0;}
	.st2{fill:none;}
</style>
<path class="st0" d="M103.8-15.3v-13l11.2-6.5l11.2,6.5v13L115-8.8L103.8-15.3z"/>
<path d="M115-33.5l-10.2,5.9v11.8L115-9.9l10.2-5.9v-11.8L115-33.5z M108-26.3l2.4-1.4l7.7,4.4v8.5l0,0l-1.8,1v-7.7L108-26.3z
	 M107.5-23.5l6.2,3.6v6.2l-6.2-3.6V-23.5z M120.8-16.3v-4.4l2.3-1.3v4.3L120.8-16.3z"/>
<polygon class="st1" points="120.8,-20.8 120.8,-16.3 123.1,-17.7 123.1,-22.1 "/>
<path d="M115-33.5l-10.2,5.9v11.8L115-9.9l10.2-5.9v-11.8L115-33.5z M108-26.3l2.4-1.4l7.7,4.4v8.5l0,0l-1.8,1v-7.7L108-26.3z
	 M107.5-23.5l6.2,3.6v6.2l-6.2-3.6V-23.5z M120.8-16.3v-4.4l2.3-1.3v4.3L120.8-16.3z"/>
<path d="M-16.2-33.5l-10.2,5.9v11.8l10.2,5.9L-6-15.8v-11.8L-16.2-33.5z M-23.2-26.3l2.4-1.4l7.7,4.4v8.5l0,0l-1.8,1v-7.7
	L-23.2-26.3z M-23.7-23.5l6.2,3.6v6.2l-6.2-3.6V-23.5z M-10.4-16.3v-4.4l2.3-1.3v4.3L-10.4-16.3z"/>
<polygon class="st1" points="-10.4,-20.8 -10.4,-16.3 -8.1,-17.7 -8.1,-22.1 "/>
<path class="st0" d="M-27.4-15.3v-13l11.2-6.5L-5-28.2v13l-11.2,6.5L-27.4-15.3z M-18.5-15.5v-3.9l-4.2-2.4v3.9L-18.5-15.5z
	 M-9.4-18.1l0.3-0.2v-2l-0.3,0.2V-18.1z M-14.1-22.2v-0.5l-6.7-3.8l-0.4,0.2L-14.1-22.2z"/>
<path d="M-16.2-33.5l-10.2,5.9v11.8l10.2,5.9L-6-15.8v-11.8L-16.2-33.5z M-23.2-26.3l2.4-1.4l7.7,4.4v8.5l0,0l-1.8,1v-7.7
	L-23.2-26.3z M-23.7-23.5l6.2,3.6v6.2l-6.2-3.6V-23.5z M-10.4-16.3v-4.4l2.3-1.3v4.3L-10.4-16.3z"/>
<g>
	<path class="st0" d="M1,20.4v-13l11.2-6.5l11.2,6.5v13l-11.2,6.5L1,20.4z"/>
	<polygon class="st0" points="0,20.9 0,6.8 12.2,-0.2 24.4,6.8 24.4,20.9 12.2,28 	"/>
	<polygon class="st1" points="15.8,22 20.4,19.9 21,9.4 15.8,9.4 	"/>
	<polygon class="st1" points="15.4,21.5 20.8,19.8 21.3,10.1 15.4,10.1 	"/>
	<path class="st1" d="M22.4,8"/>
	<path class="st1" d="M22.4,8"/>
	<g>
		<polygon points="20.4,6.8 12.2,2.1 6,5.7 6,5.7 8,6.8 8,6.8 6,8 14.2,12.7 14.2,12.7 14.2,22.2 16.2,21.1 16.2,13.9 20.4,11.4 
			22.4,10.3 22.4,8 		"/>
		<polygon class="st2" points="4,11.5 4,18.6 10.2,22.2 10.2,15 		"/>
		<polygon class="st2" points="14.2,12.7 6,8 4,9.1 4,9.1 12.2,13.9 12.2,23.4 12.2,23.4 14.2,22.2 14.2,12.7 		"/>
		<polygon class="st2" points="20.4,11.4 16.2,13.9 16.2,21.1 20.4,18.6 		"/>
		<polygon class="st2" points="18.4,8 12.2,4.4 8,6.8 14.2,10.4 		"/>
		<polygon points="4,9.1 4,11.5 10.2,15 10.2,22.2 12.2,23.4 12.2,13.9 		"/>
		<polygon points="4,18.6 4,11.5 2,10.3 2,10.3 2,19.8 10.2,24.5 10.2,22.2 		"/>
		<polygon points="14.2,22.2 12.2,23.4 12.2,23.4 12.2,25.7 14.2,24.5 14.2,24.5 		"/>
		<polygon points="4,9.1 6,8 4,6.8 4,6.8 2,8 2,8 4,9.1 		"/>
		<polygon points="20.4,18.6 16.2,21.1 16.2,23.4 16.2,23.4 22.4,19.8 22.4,10.3 20.4,11.4 		"/>
		<polygon points="16.2,23.4 16.2,21.1 14.2,22.2 14.2,24.5 14.2,24.5 16.2,23.4 		"/>
		<polygon points="6,8 8,6.8 6,5.7 6,5.7 4,6.8 4,6.8 		"/>
		<polygon points="4,11.5 4,9.1 2,8 2,10.3 2,10.3 		"/>
		<polygon points="10.2,22.2 10.2,24.5 12.2,25.7 12.2,23.4 		"/>
	</g>
</g>
</svg>
