<svg id="Layer_1" data-name="Layer 1" xmlns="http://www.w3.org/2000/svg" viewBox="0 0 689.96 150.65"><defs><style>.cls-1{fill:#fff;}</style></defs><path class="cls-1" d="M23.54,116.72H0V3.31H23.54Z"/><path class="cls-1" d="M96.8,37.66Q105,44.47,105,60.25v56.47H82.57v-51q0-6.61-1.75-10.16-3.21-6.46-12.22-6.46-11.08,0-15.2,9.46a32.65,32.65,0,0,0-2.14,12.77v45.4H29.33V33H50.57V45.24a37.06,37.06,0,0,1,8-9.31q6.75-5.07,17.09-5.08Q88.57,30.85,96.8,37.66Z"/><path class="cls-1" d="M158.29,34.2a26.6,26.6,0,0,1,9.62,9.27v-40h22.24V116.72H168.84V105.1q-4.69,7.47-10.7,10.85t-14.93,3.39q-14.69,0-24.73-11.89t-10-30.51q0-21.46,9.88-33.78t26.43-12.31A27.05,27.05,0,0,1,158.29,34.2ZM163.68,94Q168.52,87,168.53,76q0-15.39-7.77-22a16.77,16.77,0,0,0-11.08-4q-9.63,0-14.12,7.27t-4.5,18q0,11.61,4.58,18.58t13.88,7Q158.83,100.87,163.68,94Z"/><path class="cls-1" d="M217.86,22.85H195.63V2.62h22.23Zm-22.23,10h22.23v83.87H195.63Z"/><path class="cls-1" d="M286.12,81.71c.74,5.18,2.17,9.06,4.32,11.62q5.9,7,20.19,7a43.2,43.2,0,0,0,13.91-1.85Q334.67,95,334.67,85.33a9.7,9.7,0,0,0-5-8.7q-5-3-15.75-5.31l-12.28-2.69q-18.09-4-24.87-8.69-11.46-7.84-11.46-24.55a32.58,32.58,0,0,1,11.21-25.31Q287.78,0,309.51,0q18.15,0,31,9.5t13.44,27.59H331.13Q330.5,26.85,322,22.54q-5.67-2.84-14.12-2.84-9.39,0-15,3.69a11.67,11.67,0,0,0-5.6,10.31,9.73,9.73,0,0,0,5.52,9.08q3.54,2,15.07,4.69l19.9,4.7q13.08,3.07,19.61,8.23,10.14,8,10.14,23.16,0,15.54-12,25.81t-33.95,10.27q-22.4,0-35.23-10.11T263.5,81.71Z"/><path class="cls-1" d="M437,106.46q-10.62,13.11-32.24,13.11t-32.24-13.11Q361.91,93.35,361.92,74.9q0-18.14,10.61-31.44t32.24-13.3q21.62,0,32.24,13.3T447.63,74.9Q447.63,93.35,437,106.46ZM419.47,94.34q5.14-6.84,5.15-19.44t-5.15-19.4q-5.16-6.8-14.78-6.8t-14.81,6.8q-5.19,6.81-5.19,19.4t5.19,19.44q5.21,6.84,14.81,6.84T419.47,94.34Z"/><path class="cls-1" d="M486.42,2.27c1.12.08,2.66.19,4.61.35V20.47c-1.23-.16-3.29-.27-6.19-.35s-4.9.57-6,1.92a7,7,0,0,0-1.66,4.5v7.08h14.39V49.09H477.18v67.63H455.41V49.09H443.1V33.62h12V28.24q0-13.47,4.54-18.54,4.77-7.54,23-7.55C484,2.15,485.29,2.19,486.42,2.27Z"/><path class="cls-1" d="M499,132.8l2.77.15a33.6,33.6,0,0,0,6.16-.23,10.86,10.86,0,0,0,4.92-1.77q1.93-1.3,3.58-5.46t1.43-5.08L487.08,33.63h24.39l18.31,61.08,17.31-61.86h23.32l-28.75,82.48q-8.34,23.87-13.19,29.59t-19.41,5.73c-1.95,0-3.52,0-4.7,0s-2.95-.11-5.32-.27Z"/><path class="cls-1" d="M600.83,65.71a34.55,34.55,0,0,0,8.76-1.93q4.73-2,4.73-6.23c0-3.43-1.21-5.81-3.63-7.11s-6-2-10.65-2q-7.87,0-11.15,3.85A15.87,15.87,0,0,0,585.77,60H564.61q.71-11,6.18-18.08,8.75-11.07,30-11.08a53.35,53.35,0,0,1,24.57,5.47q10.74,5.46,10.74,20.62V95.41q0,4,.16,9.69.22,4.31,1.3,5.85a7.87,7.87,0,0,0,3.24,2.54v3.23H616.93a24.31,24.31,0,0,1-1.38-4.77c-.26-1.49-.46-3.18-.62-5.08a45.35,45.35,0,0,1-10.52,8.39,31.82,31.82,0,0,1-16.1,4.08q-11.46,0-18.92-6.51t-7.47-18.42q0-15.47,12-22.39,6.6-3.78,19.38-5.39Zm13.41,10.23A24.76,24.76,0,0,1,610,78.06a35.55,35.55,0,0,1-5.89,1.5l-5,.92q-7,1.23-10.08,3a10,10,0,0,0-5.18,9.31c0,3.75,1,6.45,3.16,8.12a12,12,0,0,0,7.7,2.5A22.93,22.93,0,0,0,608,99.25Q614,95.1,614.24,84.1Z"/><path class="cls-1" d="M688.08,30.89c.28,0,.91.07,1.88.12V53.47q-2.07-.22-3.69-.3c-1.08-.05-1.95-.08-2.61-.08q-13.24,0-17.78,8.62-2.53,4.84-2.54,14.92v40.09H641.26V32.85h20.93V47.47Q667.26,39.09,671,36q6.15-5.16,16-5.16C687.45,30.85,687.8,30.87,688.08,30.89Z"/></svg>