<?xml version="1.0" encoding="utf-8"?>
<!-- Generator: Adobe Illustrator 25.4.1, SVG Export Plug-In . SVG Version: 6.00 Build 0)  -->
<svg version="1.1" xmlns="http://www.w3.org/2000/svg" xmlns:xlink="http://www.w3.org/1999/xlink" x="0px" y="0px"
	 viewBox="0 0 1103 938" style="enable-background:new 0 0 1103 938;" xml:space="preserve">
<style type="text/css">
	.st0{display:none;}
	.st1{display:inline;fill:#606060;}
	.st2{fill:#FFFFFF;}
	.st3{fill:none;stroke:#FFFFFF;stroke-width:2;stroke-miterlimit:10;}
	.st4{fill:none;stroke:#FFFFFF;stroke-width:3;stroke-linecap:round;stroke-miterlimit:10;}
</style>
<g id="Layer_2" class="st0">
	<rect x="-92" y="-19" class="st1" width="1185.1" height="963.7"/>
</g>
<g id="Layer_1">
	<path class="st2" d="M374.2,308.6c-2.5,27.9-1.4,56.2,4.6,83.7c5.8,26.4,15.8,51.7,29.6,74.9c7.2,12.1,15.3,23.6,24.1,34.6
		c9.2,11.4,19,22.4,30.9,31.1c11.5,8.5,24.7,14.6,39.2,14.4c13.5-0.2,26.8-4.6,38.5-11.3c11.9-6.8,22.1-16.1,30.1-27.2
		c8.9-12.4,16.8-25.4,23.8-39c13.3-26.1,23-53.9,28.9-82.6c5.9-29,8.7-58.5,8.4-88.1c-0.1-15.2-0.8-30.4-2.1-45.6
		c-1.3-15.8-2.6-32-7.8-47.1c-4.4-13-12.3-25.3-24.1-32.7c-12.6-7.9-27.7-7.9-41.5-3.5c-14.8,4.8-28.2,13.3-40.8,22.1
		c-6,4.1-12,8.9-15.3,15.5c-3.1,6.2-3.7,13.4-0.3,19.6c1.6,3,4.1,5.7,4.9,9.1c0.6,2.7,0.1,6-2.7,7.2l2.2,1.7
		c3.4-11.6-6.3-25.1-18.8-24c-6.1,0.6-11.6,4-14.9,9.1c-3.3,5.2-3.6,11.9-0.7,17.4c3.2,6.4,9.7,10.5,16.8,10.7c2,0,1.9-2.9,0-3
		c-21.2-1.2-39.7-19.5-41.2-40.6c0-0.8-0.7-1.5-1.6-1.5c-0.1,0-0.2,0-0.3,0c-17.9,4.6-33.4,15.6-43.7,30.9c-0.4,0.7-0.2,1.6,0.5,2.1
		c10.4,5.5,23.2,2.5,30.1-7.1l-2.7-1.1c-2.4,9.5-12,15.2-21.5,12.8c-4.5-1.1-8.3-4-10.7-7.9c-0.4-0.7-1.4-0.9-2.1-0.5
		c-0.1,0.1-0.2,0.1-0.2,0.2c-15,11.8-24.1,30.2-25,49.2c-0.3,5.4,0.2,10.8,1.3,16.1c0.4,1.9,3.3,1.1,2.9-0.8
		c-4.8-23,4.4-47.9,22.9-62.4l-2.4-0.3c6,9.7,18.7,12.8,28.5,6.8c4.6-2.8,7.9-7.3,9.2-12.5c0.2-0.8-0.3-1.6-1.1-1.8
		c-0.6-0.1-1.2,0.1-1.6,0.7c-5.6,8.1-17.4,10.8-26,6l0.5,2.1c9.9-14.6,24.8-25.2,41.9-29.6l-1.9-1.5c1.2,17.6,13.3,33.4,29.5,40.2
		c4.6,2,9.6,3.1,14.6,3.4v-3c-10.6-0.1-19.4-12.1-14.4-22c2.3-4.6,6.6-7.8,11.6-8.9c5-1,10.2,0.8,13.6,4.6c3.9,4.1,5.3,9.9,3.9,15.4
		c-0.4,1.4,1.1,2.2,2.2,1.7c5.5-2.3,5-9.5,2.8-14c-1.7-3.3-4.2-6.1-5.3-9.7c-0.9-3.5-0.7-7.2,0.5-10.6c2.4-7.1,8.4-12.2,14.4-16.4
		c6.2-4.4,12.6-8.6,19.2-12.4c12.8-7.4,27.3-14,42.4-13c14.2,0.9,26.1,9.4,33.8,21.1c8.5,12.9,11.6,28.5,13.5,43.6s3,30.1,3.6,45.2
		c1.2,29,0,58.2-4.4,87c-4.2,28.2-12,55.9-23.2,82.1c-5.7,13.4-12.4,26.4-20,38.9c-7.2,11.9-14.9,23.9-25.3,33.4
		c-19.6,17.8-49.2,29.7-74.9,18.4c-13.3-5.8-24.8-15.6-34.6-26.2c-9.6-10.5-18.4-21.7-26.3-33.5c-15-21.8-26.5-45.9-34.1-71.3
		c-7.4-25.8-10.8-52.6-10.1-79.4c0.2-7,0.6-13.9,1.2-20.9C377.3,306.6,374.3,306.7,374.2,308.6L374.2,308.6z"/>
	<path class="st2" d="M371.3,310.5c-2.6-9.1-13.4-15-22.4-12c-9.6,3.2-13.7,13.9-13.3,23.2c0.5,12.2,8.1,22.6,13.4,33.1
		c3,5.8,5.3,12,7.1,18.3c0.9,3.2,1.6,6.5,2.2,9.8c0.5,3.1,0.8,6.2,1.5,9.2c0.7,3.2,2.6,6.1,5.3,8c2.5,1.6,5.6,1.8,8.2,0.4
		c6.6-3.4,6.4-11.5,5.6-17.8c-0.2-1.9-3.2-1.9-3,0c0.6,4.9,1.4,11.7-3.5,14.8c-2,1.3-4.6,1.1-6.3-0.5c-1.9-1.7-3.1-4.1-3.5-6.6
		c-0.6-2.8-0.9-5.7-1.4-8.6s-1.2-5.8-1.9-8.7c-1.5-5.7-3.6-11.2-6.1-16.6c-4.7-10.1-11.8-19.5-14.1-30.6c-1.6-7.8,0.2-17.9,7.1-22.8
		c7.8-5.5,19.7-1.1,22.2,8.1c0.3,0.8,1.2,1.2,1.9,0.9C371,311.9,371.5,311.2,371.3,310.5L371.3,310.5z"/>
	<path class="st2" d="M367.5,306.3l5.3,18.5c0.2,0.8,1.1,1.3,1.9,1c0.6-0.2,1.1-0.8,1.1-1.4c-0.2-11-3.4-21.8-9.4-31.1
		c-1-1.6-3.6-0.1-2.6,1.5c5.7,8.9,8.8,19.1,9,29.6l3-0.4l-5.3-18.5c-0.2-0.8-1.1-1.2-1.9-1C367.8,304.7,367.3,305.5,367.5,306.3
		L367.5,306.3z"/>
	<path class="st2" d="M332.2,326.4l-9.2,5c-1.3,0.7-2.1,1.4-3.5,0.9c-0.9-0.4-1.8-1-2.5-1.7c-2.6-2.9-3.2-7.8-0.1-10.6
		c0.6-0.6,0.6-1.5,0-2.1c-12.9-10-20.3-25.4-20.3-41.6l-3,0.4c2.5,7.1,10.3,9.2,17.1,7.8c8.9-1.9,13.8-9.6,15.4-18.1
		c1.1-5.9,0.9-11.9,0.5-17.8c0-0.8-0.7-1.5-1.5-1.5l-15,0.6l1.3,0.7l-3.3-6.2l-0.2,1.8l10.5-8.9c1.3-1.1-0.4-3.1-1.8-2.4
		c-4.4,2.3-10.3,0.5-12-4.3c-0.8-2.3-0.7-4.8,0.4-7c0.7-1.5,1.8-1.6,3.3-2l5.2-1.5c1.6-0.4,1.3-3.1-0.4-2.9
		c-5.1,0.5-7.7-5.2-7.5-9.6c0.3-6,6-10.4,10.3-13.7c5-3.8,9.7-7.8,13.6-12.7c3.7-4.8,6.7-10.2,8.9-15.9c2.5-6.6,3.8-13.7,3.8-20.8
		c0-0.8-0.7-1.5-1.5-1.5c-0.1,0-0.3,0-0.4,0.1c-11,3.1-18.3,13.4-17.7,24.8l1.9-1.4c-4.9-1-7.5-6.1-7.2-10.8
		c0.3-5.9,4.8-10.8,9-14.5c9.4-8.2,20.3-14.5,32.2-18.4c6.7-2.2,13.6-3.7,20.6-4.4c0.8,0,1.5-0.7,1.5-1.5c0-0.7-0.4-1.2-1.1-1.4
		c-15.1-4.3-31.3-3.4-45.9,2.6l1.5,2.5c10.9-12,29.1-11,43.8-13.7c7.8-1.4,15.4-3.9,21.7-8.9c7.3-5.8,12.4-13.8,18.2-21
		c6.3-7.9,14.4-16,25-16.8l-0.4-2.9c-5.9,2.2-12.3,4.6-16.6,9.5c-3.7,4-4.9,9.7-3.1,14.8c1.7,4.9,6.1,8.3,11.4,7.1
		c3.5-0.8,6.4-3.2,9.1-5.4c2.9-2.4,5.6-5,8.2-7.7C458,66.9,463,60,467,52.7l-2.7-0.4c2.3,10.1,14.2,13.6,23.3,11.9
		c12.7-2.3,22.2-13.1,35.1-14.8c6-0.8,12.8,0.3,16.5,5.5c0.4,0.7,1.4,0.9,2.1,0.5c0.7-0.4,0.9-1.3,0.5-2
		c-5.6-12.6-21.8-13.4-33.5-11.1c-8.5,1.7-17,4.7-25.9,4.2c-8.1-0.4-16.5-3.9-24.6-1.5c-6.5,1.9-12.5,7.5-11.4,14.8
		c0.2,1.4,2.6,1.4,2.9,0c2.5-14.1,16.9-20.9,29.8-22.3c7.4-0.8,14.9-0.4,22.2-0.1c6.5,0.2,13.1,0.6,19.6,1.2
		c12.8,1.1,25.7,3.2,37.9,7.6c6,2.2,11.6,5,16.9,8.6c2.7,1.8,5.3,3.9,7.7,6.1c2.6,2.4,4.5,5.5,6.3,8.5c8.6,14,13.8,29.9,15.3,46.3
		c0.1,1.3,2.1,2.2,2.8,0.8c6.3-13.4,12.1-28.3,9.9-43.4c-1.7-11.6-9.3-21.4-20.1-26c-5.7-2.4-12-2.3-17.7,0.2l1.5,2.6
		c6-4.2,13.9-3,19.9,0.6c6.7,4.1,10.6,11.4,13.1,18.6c5.2,15,6,32,18.3,43.5c10.8,10.1,25.5,14.5,35.8,25.2
		c9.1,9.7,15,21.8,17.1,34.9c2.5,14.8,0,30.3-7.7,43.2c-1,1.7,1.5,3,2.6,1.5c4.7-6.2-4.1-15.6-10.7-11.6c-0.7,0.5-0.9,1.4-0.5,2.1
		c0.1,0.1,0.1,0.2,0.2,0.2c8.1,10.3,17.1,22.3,15.1,36.2c-0.4,3-1.4,5.8-2.9,8.4c-1.8,2.7-4.2,5.1-7,6.9
		c-4.8,3.4-10.8,7.7-10.2,14.4c0.5,5.3,7,9.2,11.4,5.5c1.2-1-0.1-3-1.5-2.5l-13.9,4.6c-0.8,0.2-1.2,1-1,1.8
		c1.8,6.2,6,11.4,11.6,14.7l1.5-2.6c-9-4-19.8-8.7-29.5-4.5c-7.1,3.1-13.1,11.2-10,19.1c0.7,1.8,3.6,1,2.9-0.8
		c-2.7-6.8,3-13.8,9.3-16c8.6-3,18.1,1.3,25.9,4.7c1.7,0.8,3.2-1.6,1.5-2.6c-4.9-2.8-8.5-7.5-10.2-12.9l-1,1.9l13.9-4.6l-1.5-2.5
		c-1.9,1.6-4.9-0.1-5.9-2c-1.5-2.8,0.4-6.2,2.3-8.4c4-4.5,9.8-6.6,13.3-11.6c6.6-9.4,4.9-22,0.1-31.7c-3.2-6.4-7.6-12.1-12-17.8
		l-0.3,2.4c4.1-2.5,9.4,3.8,6.6,7.6l2.6,1.5c14.3-23.7,11.1-55.7-5.9-77.3c-4.4-5.5-9.7-10.2-15.7-14c-6.9-4.4-14.4-8-20.9-13
		c-6.8-5.3-11.2-12.2-13.9-20.4s-4.1-16.8-7-24.9s-7.3-16-14.9-20.4c-6.8-4-15.7-5-22.4-0.4c-0.7,0.4-1,1.3-0.5,2.1
		c0.4,0.7,1.3,1,2.1,0.5c9.6-4.2,20.2,1,26.5,8.5c8.2,9.7,8.5,22.9,5.5,34.7c-2,7.6-4.8,14.9-8.2,21.9l2.8,0.8
		c-1.3-15.1-5.7-29.9-13-43.2c-1.9-3.4-3.9-6.7-6.1-9.9c-2.1-2.8-4.5-5.2-7.3-7.3c-5.1-4-10.7-7.3-16.7-9.9
		c-12.5-5.4-25.9-8-39.3-9.4c-7-0.7-14.1-1.2-21.1-1.5c-7.7-0.3-15.4-0.8-23.1-0.2c-8.2,0.6-16.4,2.6-23.1,7.4
		c-5.8,4.2-10.4,10.1-11.7,17.2h2.9c-0.9-6.1,5.6-10.5,10.9-11.5c7.6-1.4,15.3,1.8,22.9,2c14,0.5,27.3-7.6,41.4-4.9
		c6.2,1.2,12.1,4.2,14.7,10.2l2.6-1.5c-6.4-8.8-18.9-8.4-28.1-4.6c-11.1,4.7-21.7,14.9-34.5,12.6c-5.5-1-10.7-4.1-12-9.8
		c-0.2-0.8-1.1-1.3-1.9-1c-0.3,0.1-0.6,0.3-0.8,0.6c-6,11-14.2,20.8-24,28.7c-2.3,1.9-5.2,3.9-8.4,3.5c-2-0.3-3.7-1.6-4.7-3.3
		c-2.4-4-2.1-8.9,0.6-12.7c3.8-5.2,10.3-7.6,16.1-9.7c1.5-0.5,1.4-3.1-0.4-3c-20.1,1.6-28.6,22.5-41.1,35
		c-6.3,6.3-13.9,9.7-22.5,11.5c-8.1,1.7-16.5,2.2-24.6,3.8c-8.5,1.6-16.7,4.6-22.6,11.1c-0.9,1,0,3.1,1.5,2.5
		c14-5.8,29.6-6.7,44.3-2.6l0.4-3c-13.9,1.4-27.4,5.8-39.6,12.8c-6,3.5-11.6,7.6-16.7,12.3c-4.4,4.1-8.5,9.6-8.5,15.9
		c0,5.8,3.4,12,9.4,13.2c0.8,0.2,1.6-0.3,1.9-1.1c0-0.1,0-0.2,0-0.4c-0.6-10,5.8-19.2,15.5-21.9l-1.9-1.4
		c-0.1,13.9-5.2,27.2-14.4,37.6c-4.6,5.1-10.3,8.7-15.4,13.3c-4.2,3.9-7.5,8.8-6.7,14.8c0.7,5.2,4.5,10.7,10.3,10.1l-0.4-2.9l-7,2
		c-1.6,0.4-2.8,1.6-3.4,3.1c-1.5,3.1-1.6,6.6-0.3,9.7c2.6,6.3,10.4,8.5,16.2,5.4l-1.9-2.3l-10.5,8.9c-0.5,0.5-0.6,1.2-0.2,1.8
		l3.3,6.2c0.3,0.5,0.8,0.7,1.3,0.7l15-0.6l-1.5-1.5c0.7,9.7,1.5,23.7-7.4,30.3c-5.6,4.1-16.8,4.9-19.6-3c-0.2-0.8-1.1-1.3-1.9-1
		c-0.6,0.2-1.1,0.8-1.1,1.4c-0.1,17,7.7,33.2,21.1,43.7v-2.1c-4.2,3.7-3.6,10.3-0.3,14.4c1.5,1.8,4.1,3.6,6.6,3.4
		c1-0.2,1.9-0.7,2.7-1.3l3.3-1.8l6.6-3.6C335.4,328.1,333.9,325.5,332.2,326.4z"/>
	<path class="st2" d="M626.5,357.7c0.5,5,1,10.1,3.5,14.6c2,3.8,5.6,6.5,9.8,7.3c4.1,0.8,8.3-1,10.4-4.6c2.3-3.7,2.5-8.3,3-12.5
		c1-11.1,2-22.2,1.5-33.3c-0.2-5.5-0.8-10.9-1.8-16.3c-0.9-4.8-2.1-9.8-4.5-14.1c-2.2-4-6.2-7.3-11-6.5c-4,0.7-7.6,4.2-6.6,8.5
		c0.5,1.9,3.3,1.1,2.9-0.8c-0.7-3,2.8-4.9,5.3-4.9c3.6,0,6,3.4,7.4,6.3c1.7,4,2.9,8.2,3.6,12.4c0.9,4.7,1.4,9.4,1.6,14.1
		c0.3,9.6,0,19.3-1,28.8c-0.4,4.1-0.5,8.5-1.5,12.5c-0.8,3.3-2.5,6.7-6.1,7.4c-3.8,0.7-7.8-1.8-9.9-4.9c-2.7-4.2-3.2-9.3-3.7-14.1
		C629.3,355.9,626.3,355.8,626.5,357.7L626.5,357.7z"/>
	<path class="st2" d="M489.9,420.2c-3.8-2.6-9.3,0.3-9.7,4.8c0,0.7,0.4,1.3,1.1,1.4l13.2,2.6c4.2,1,8.5,1.8,12.9,2.2
		c4,0.4,8-0.5,11.5-2.5c3.2-1.9,5.9-4.5,9-6.6s7.6-4.1,11.4-2.2l-0.5-2c-3.3,5.3-9.7,7.7-15.6,5.9c-1.8-0.6-2.6,2.3-0.8,2.9
		c7.2,2.2,15-0.8,19-7.3c0.4-0.7,0.1-1.6-0.5-2c-7.4-3.6-14.2,2-19.8,6.3c-3.2,2.5-6.5,4.5-10.6,4.7c-4.4,0.2-8.8-1-13.1-1.8
		l-15.1-3l1.1,1.5c0.2-2.4,3.4-3.4,5.2-2.2C490,423.9,491.5,421.3,489.9,420.2L489.9,420.2z"/>
	<path class="st2" d="M537.4,334.6c4.7,4.8,12,5.5,18.4,5.3c3.5-0.1,7-0.4,10.5-0.7c3.4-0.1,6.7-0.6,10-1.5c3.3-1,6.3-2.6,8.9-4.9
		c2-1.8,3.6-4.8,2.2-7.4c-1.5-3-5.9-3.8-8.9-4.4c-3.5-0.7-7-1-10.6-1c-3-0.1-6,0.2-8.9,0.8c-5.4,0.9-10.3,3.4-14.2,7.2
		c-1.1,1.1-2.2,2.1-3.5,3c-2.2,1.4-5,0.7-6.9-1c-4.1-3.5-6-10.3-5-15.5c1.5-7.7,7.6-13.6,14.5-17c8-3.9,17.3-5,26.1-5.7
		c9.6-0.8,19.3-0.5,28.8,0.7c2.4,0.3,4.8,0.7,7.2,1.1v-2.9c-18.5,5.3-37.3,9-56.4,11.1c-5.4,0.6-10.8,1-16.2,1.3
		c-1.9,0.1-1.9,3.1,0,3c19.3-1,38.4-3.8,57.2-8.3c5.4-1.3,10.9-2.7,16.2-4.2c1.3-0.4,1.5-2.6,0-2.9c-9.4-1.7-18.9-2.5-28.4-2.3
		c-9.1,0.2-18.5,0.9-27.3,3.3c-7.8,2.1-15.2,6-20.2,12.5c-4.2,5.2-5.7,12.1-4,18.6c1.5,5.4,5.2,11.4,11.3,11.9
		c3.1,0.2,5.5-1.7,7.6-3.7c2.5-2.5,5.4-4.4,8.6-5.8c3-1.2,6.2-2,9.5-2.2c3.4-0.2,6.7-0.1,10.1,0.3c1.7,0.2,3.3,0.4,4.9,0.9
		c1.8,0.3,3.5,0.9,5,1.8c2.3,1.6-0.3,4.3-1.8,5.5c-2.8,2-6.1,3.4-9.5,4.1c-3.3,0.5-6.5,0.8-9.8,1c-6.3,0.5-13.8,1.3-19.8-1.5
		c-1.4-0.6-2.6-1.5-3.6-2.5C538.2,331.1,536.1,333.2,537.4,334.6L537.4,334.6z"/>
	<path class="st2" d="M469.8,299.8c-5.9-8-15.1-12.7-24.9-14.2c-11.2-1.7-22.3,0.6-32.8,4.5c-6.6,2.5-13,5.5-19.3,8.6
		c-1.4,0.7-0.7,2.8,0.8,2.8c18.1-0.2,36.1,0.1,54.2,0.9c7,0.3,14.8,0.8,18.7,7.6c1.6,3,2.6,6.2,3.2,9.6c0.6,3.1,1.4,6.4,0.8,9.5
		s-3.1,5.3-6.5,4.8c-3.6-0.5-6.7-2.7-9.9-4.4c-6.4-3.4-13.6-5.1-20.9-5c-7.2,0.1-14.3,1.9-20.6,5.3c-2.6,1.4-6.8,3.8-5.3,7.5
		c1.3,3.2,5.7,3.6,8.6,4.1c16.1,2.8,32.7,1.4,48.1-4.2c1.9-0.7,3.7-1.4,5.5-2.2s0.2-3.4-1.5-2.6c-15,6.4-31.4,8.7-47.5,6.7
		c-2-0.2-4-0.6-6-1c-1.3-0.3-3.4-0.5-4.3-1.6c-1.6-2.1,5.9-5.1,7.2-5.7c6.6-2.7,13.8-3.8,20.9-3c3.5,0.4,7,1.2,10.3,2.5
		c3.4,1.3,6.4,3.3,9.7,4.9c3.1,1.4,6.8,2.6,10.1,1.2c2.8-1.3,4.8-4,5.1-7.2c0.3-3.2,0-6.4-0.7-9.5c-0.6-3.4-1.6-6.7-3-9.9
		c-1.4-3.1-3.7-5.6-6.6-7.3c-3.2-1.6-6.6-2.5-10.1-2.7c-8.5-0.8-17.2-0.9-25.7-1.1c-9-0.2-18-0.3-27-0.2l-6.7,0.1l0.8,2.8
		c18.5-8.9,40.6-19,60.9-9.5c4.7,2.1,8.8,5.4,11.9,9.5C468.3,302.9,470.9,301.4,469.8,299.8L469.8,299.8z"/>
	<path class="st2" d="M589,475.2c1.6,15,2.4,30.1,3.3,45.2c0.4,7.5,0.9,15.1,1.4,22.7c0.3,3.7,0.6,7.5,0.9,11.2
		c0.3,3.5,0.8,7.1,1,10.6c0.3,6.3-0.3,12.7-1.5,18.9c-1.1,6.2-2.8,12.3-5.1,18.2c-3.9,10.1-10.5,18.5-18.7,25.5
		c-4.6,3.9-9.3,7.6-14.3,11c-5.2,3.7-10.7,7.2-16.7,9.3c-6.3,2.3-13.2,2.2-19.5-0.1c-6.1-2.3-11.6-6.1-17.1-9.4
		c-11.3-6.9-22.5-14-32.6-22.6c-9.9-8.5-18.2-18.4-23.6-30.3c-10.8-23.8-8.7-50.6-11.4-76c-0.3-3.3-0.8-6.5-1.3-9.8
		c-0.3-1.9-3.2-1.1-2.9,0.8c4.1,26.1,1.1,53.4,9.8,78.7c4.4,12.5,11.6,23.9,21.2,33.2c9.5,9.4,20.6,17,31.9,24.1
		c5.8,3.7,11.6,7.3,17.6,10.7s12.1,5.8,18.9,5.6c13.2-0.4,24.7-9.3,34.8-17c8.8-6.8,17.1-14.4,22.7-24.2c2.8-5,4.9-10.4,6.5-15.9
		c1.9-6.4,3.2-13,3.9-19.7c0.3-3.2,0.5-6.5,0.4-9.7c-0.1-3.4-0.6-6.9-0.9-10.3c-0.7-7.8-1.3-15.5-1.7-23.3
		c-0.9-15.3-1.6-30.6-2.9-45.8c-0.3-3.8-0.7-7.6-1.1-11.3C591.9,473.3,588.9,473.3,589,475.2L589,475.2z"/>
	<path class="st2" d="M470.5,335.1c12.5,6.2,18.8,19.5,21.4,32.6c1.5,7.8,1.9,15.8,2.4,23.7l1.4,24.8c0.1,1,0.5,4.1-1.3,3.7
		c-1.6-0.4-2.7-1.9-4.4-2.3c-2.6-0.6-6.7,1.4-4.9,4.5c0.4,0.7,1.4,0.9,2.1,0.5c0.7-0.4,0.9-1.3,0.5-2c-0.1-0.2-0.1,0.3-0.1,0.3
		s0.3-0.2,0.4-0.2c0.5-0.2,1.1-0.2,1.5,0c1.5,0.7,2.6,1.9,4.3,2.2c3.6,0.7,5-2.8,4.9-5.7c-0.4-8.4-1-16.8-1.4-25.2
		c-0.9-15.1-1.6-31-9.6-44.3c-3.7-6.4-9.1-11.6-15.6-15.1C470.3,331.7,468.8,334.3,470.5,335.1L470.5,335.1z"/>
	<path class="st2" d="M509.3,431.3c-3,6.9-0.4,15,6.1,18.9c0.7,0.4,1.7,0.1,2.1-0.6c0-0.1,0.1-0.2,0.1-0.3c2.5-6.6,1.2-14-3.4-19.3
		c-1.2-1.3-3.1,0.4-2.4,1.8l1.7,3.2c0.9,1.7,3.5,0.2,2.6-1.5l-1.7-3.2l-2.4,1.8c3.8,4.6,4.8,10.9,2.7,16.4l2.2-0.9
		c-5-2.8-7.4-9.5-5-14.8c0.4-0.7,0.1-1.6-0.5-2C510.6,430.4,509.7,430.7,509.3,431.3L509.3,431.3z"/>
	<path class="st2" d="M433.7,560.5c8,11.2,17.1,21.5,27.2,30.8c10.2,9.3,21.3,17.6,33.2,24.7c11.8,7,24.3,12.8,37.3,17.2
		c3.3,1.1,6.5,2.1,9.8,3.1c3.8,1.2,7.7,1.9,11.7,1.9c5.8-0.1,10.7-2.9,14.4-7.2c3.3-3.8,5.7-8.3,8.4-12.5c2.5-3.9,5.2-7.9,9.4-10.1
		c1-0.5,2-0.9,3.1-1.2c1.9-0.5,1.1-3.4-0.8-2.9c-9.7,2.5-14,12.7-19.1,20.4c-2.5,3.8-5.5,7.6-9.9,9.5c-6.8,2.9-14.8-0.1-21.4-2.2
		c-12.9-4-25.3-9.3-37.1-15.9c-11.8-6.6-22.9-14.4-33.2-23.3c-10.2-8.8-19.4-18.7-27.5-29.5c-1-1.4-2-2.8-3-4.2
		C435.2,557.5,432.6,559,433.7,560.5L433.7,560.5z"/>
	<path class="st3" d="M430.9,568.3c-11.1,5.6-19.4,15.4-22.9,27.3c20.5,7.9,32.2,29.2,41.4,49.1s18.8,41.7,37.8,52.6
		c6.5,3.7,14.3,6,21.5,3.8c8.8-2.7,14.4-11.2,19.1-19l22.7-37.5c7.4,15.7,18.3,29.4,32,39.9c6.4-14,16.6-25.9,23.7-39.5
		c10-19.4,13.3-41.6,9.5-63.2c-2.1-11.7-6.8-23.7-16.4-30.6l-4,4.9"/>
	<path class="st2" d="M418.9,603c-14.4,16.9-39.2,28.9-60,35c-21.6,6.4-43.9,10.6-64.6,19.5c-22.1,9.5-41.2,25-56.7,43.3
		c-16.5,19.5-29,41.9-38.7,65.4c-10.8,26.3-18.3,53.9-25.3,81.4c-0.9,3.5-1.8,6.9-2.6,10.3c-0.5,1.9,2.4,2.7,2.9,0.8
		c7-27.6,14-55.2,24-81.8c9.1-24.2,20.8-47.5,36.8-67.9c14.8-18.9,33.2-35.4,54.9-46c20.2-10,42.6-14.4,64.2-20.4
		c20.7-5.8,41.9-13.1,57.7-28.3c1.9-1.8,7.9-7.2,9.6-9.2C422.3,603.7,420.2,601.5,418.9,603L418.9,603z"/>
	<path class="st2" d="M626.3,603.1c27.7,5.5,55.5,10.2,83,16c27.2,5.8,54.3,12.8,80.3,22.8c23.1,8.9,45.2,20.4,65,35.3
		c18.5,13.8,35.1,30.5,48,49.7c12.6,18.7,21.6,39.8,24.9,62.1c0.4,2.8,0.8,5.7,1,8.5l2.2-1.3c-32-20.3-60.8-45.2-85.6-73.9
		c-7-8.1-13.6-16.4-19.9-25.1l-1.7,2.2l33.2,13.2c1.2,0.5,2-0.9,1.8-1.8c-2.7-18.4-18.2-30.8-34.5-37.5
		c-19.8-8.2-41.3-7.9-62.2-10.7c-11.2-1.5-22.4-4-32.5-9.2c-10.5-5.5-18.8-13.9-28-21.1c-4.8-3.7-9.9-7-15.2-9.9
		c-6.5-3.7-13.1-7.2-19.8-10.5c-6.8-3.4-13.9-6.5-21.1-9.1c-5.1-1.8-10.9-3.8-16.4-3.3c-0.9,0.1-1.9,0.3-2.8,0.6
		c-1.8,0.7-1,3.6,0.8,2.9c4-1.7,9.6,0.2,13.7,1.4c7,2.2,13.8,5,20.4,8.2c11.5,5.4,23,11.4,33.6,18.5c9.3,6.2,17.1,14.4,26.3,20.7
		s19.8,10.1,30.7,12.2c20.8,4.2,42.6,2.9,63,9.1c16.4,5,34.1,15.1,39.7,32.4c0.7,2,1.1,4.1,1.5,6.2l1.8-1.8l-33.1-13.2
		c-0.8-0.2-1.6,0.3-1.8,1.1c-0.1,0.4,0,0.8,0.1,1.1c22.5,31,49.5,58.5,80,81.6c8.6,6.5,17.5,12.7,26.6,18.5c0.7,0.4,1.6,0.2,2.1-0.6
		c0.1-0.2,0.2-0.5,0.2-0.7c-1.9-22.9-9.6-44.8-21.4-64.5c-12-20-28-37.4-46-52.1c-18.9-15.3-39.9-27.8-62.3-37.2
		c-26.1-11.2-53.4-18.9-81-25.2s-55.7-11.1-83.5-16.4c-3.4-0.7-6.9-1.3-10.3-2C625.2,599.9,624.4,602.7,626.3,603.1L626.3,603.1z"/>
	<path class="st2" d="M411.4,597.5c-16.8,19.3-47.9,36.4-72.2,42.3c-25.3,6.2-51.4,9.5-76,18.2c-26.2,9.3-49,25.8-67.5,46.4
		c-19.6,21.8-34.2,47.5-45.2,74.5c-12.5,30.8-20.6,63.1-28.2,95.4c-0.9,3.9-1.8,7.8-2.7,11.8c-0.4,1.9,2.5,2.7,2.9,0.8
		c7.5-32.2,14.9-64.5,26.4-95.5c10.3-28,24.1-55,43.2-78.2c17.6-21.3,39.6-39.4,65.4-49.8c24.1-9.8,50.2-13.4,75.5-19
		c24.1-5.4,48.9-13,67.4-30.1c2.2-2.1,11.2-12.4,13.3-14.7C414.8,598.2,412.7,596,411.4,597.5z"/>
	<path class="st2" d="M122.5,898.7c19.6-0.3,38.1-12.4,47.3-29.6c2.6-4.9,4.4-10.2,5.4-15.7c0.3-1.9-2.6-2.7-2.9-0.8
		c-3,18.4-17,34.1-34.4,40.3c-4.9,1.8-10.1,2.7-15.3,2.8C120.6,895.7,120.6,898.7,122.5,898.7z"/>
	<path class="st2" d="M180.5,178c8.8,7.5,14.8,17.8,16.8,29.2l2.8-1.2c-5.6-12.7-0.8-29,10.7-36.7c0.8-0.6,1.1-2.1,0-2.6
		c-8.8-3.9-15.1-11.9-16.9-21.3c-0.3-1.7-2.9-1.3-2.9,0.4c0,5.6,0.5,11.6-0.8,17.1c-1.3,5.4-4.9,9.2-9.4,12.2
		c-1.6,1.1-0.1,3.6,1.5,2.6c5-3.3,9.1-7.6,10.6-13.5s1.1-12.3,1.1-18.4l-2.9,0.4c2,10.2,8.8,18.8,18.3,23.1v-2.6
		c-10,6.7-15.6,19.1-14.4,31c0.3,3.4,1.2,6.7,2.6,9.8c0.7,1.6,3,0.4,2.7-1.2c-2.2-11.9-8.4-22.7-17.6-30.6
		C181.2,174.7,179,176.8,180.5,178L180.5,178z"/>
	<path class="st2" d="M864.6,444.5c3.8,1.3,7.4,3.4,9.7,6.8c1.9,3,3,6.5,3,10c0.3,8.2-2.3,16.3-5,24c-1.4,4.1-2.9,8.2-4.2,12.4
		c-0.6,1.9,2.2,2.6,2.9,0.8c2.9-7.9,6-15.7,10.2-23c4.5-8,10.6-15,17.8-20.6c4.9-3.7,10.3-6.9,16-9.4c0.7-0.4,1-1.3,0.5-2.1
		c-0.1-0.1-0.1-0.2-0.2-0.3c-6-5-11.3-11.1-14-18.4c-2.4-6.4-2.6-13.5-0.4-20c0.5-1.6-1.9-2.6-2.7-1.1c-8.2,15.3-20.4,28.1-34,38.7
		c-1.5,1.2,0.6,3.3,2.1,2.1c13.8-10.7,26.2-23.7,34.5-39.3L898,404c-2.3,7-2.2,14.6,0.4,21.5c2.9,7.9,8.4,14.5,14.8,19.8l0.3-2.4
		c-9.8,4.2-18.6,10.5-25.8,18.5c-5.9,6.8-10.6,14.4-14.1,22.7c-2,4.4-3.7,9-5.4,13.5l2.9,0.8c2.5-8.2,5.9-16.1,7.8-24.5
		c1.8-7.7,2.8-16.8-1.7-23.8c-2.7-4.3-7.1-6.9-11.8-8.6C863.6,441,862.8,443.9,864.6,444.5L864.6,444.5z"/>
	<path class="st2" d="M515.5,449.4c0.3,0.3,0.5,0.6,0.7,0.9c0.1,0.2,0.4,0.9,0.5,1s0.2,0.2,0.4-0.3l-0.4,0.1c-0.3,0-0.6,0-0.9,0
		c-1.7,0-3.4-0.2-5.1-0.4c-4-0.4-8.1-0.2-12.1,0.6c-8.8,1.9-16.8,6.4-24.4,11c-0.7,0.5-0.9,1.4-0.5,2.1c0.3,0.4,0.7,0.7,1.2,0.7
		c22.2-0.1,44.4-1,66.5-2.8c6.3-0.5,12.5-1.1,18.8-1.7c0.8,0,1.5-0.7,1.5-1.5c0-0.5-0.3-1-0.7-1.2c-8.2-5.2-17.4-10.4-27.5-9.9
		s-18.2,6.9-27.1,11.1c-5.3,2.5-11.3,4.3-17.2,3.1c-0.8-0.2-1.6,0.3-1.8,1.1c-0.1,0.4,0,0.7,0.1,1.1c4.9,7.6,13.7,12.3,22.4,13.8
		c9.4,1.7,19.2-0.2,27.3-5.2c4.1-2.5,7.5-6.1,9.8-10.4c0.9-1.7-1.7-3.2-2.6-1.5c-3.7,7.2-11.3,11.7-19,13.6
		c-8.6,2.2-17.7,1-25.5-3.1c-4-2-7.4-5-9.9-8.8l-1.7,2.2c10.4,2,19.6-3.4,28.4-8.3c4.2-2.4,8.7-4.6,13.5-5.5
		c4.9-0.8,9.9-0.3,14.5,1.4c5.2,1.8,10,4.7,14.7,7.7l0.8-2.8c-22.1,2.3-44.2,3.7-66.4,4.2c-6.3,0.2-12.6,0.2-18.9,0.3l0.8,2.8
		c6.6-4,13.5-7.9,21-10c3.8-1.1,7.8-1.6,11.8-1.4c2.7,0.1,5.4,0.8,8.1,0.6c1.5-0.1,3-0.8,3.1-2.5s-1.2-3.2-2.2-4.4
		C516.3,445.9,514.2,448,515.5,449.4L515.5,449.4z"/>
	<path class="st4" d="M121,887c0,0-4.9,11.7,4.3,10.1"/>
	<path class="st4" d="M469.2,301.8c0,0,2.2,6,0.6,10.5"/>
</g>
</svg>
