<svg width="86" height="28" viewBox="0 0 86 28" fill="none" xmlns="http://www.w3.org/2000/svg">
<path fill-rule="evenodd" clip-rule="evenodd" d="M0 0H37V3.04108V3.29452V5.9977H0V3.29452V3.04108V0ZM0 27.3699H37V27.6233H0V27.3699ZM0 6.08218H37V8.7009H0V6.08218ZM37 9.12329H0V11.4041H37V9.12329ZM0 12.1644H37V14.1073H0V12.1644ZM37 15.2055H0V16.8105H37V15.2055ZM0 18.2466H37V19.5137H0V18.2466ZM37 21.2877H0V22.2169H37V21.2877ZM0 24.3288H37V24.9559H0V24.3288ZM54.3394 22V7.45456H51.2642V22H54.3394ZM59.8384 22V15.6932C59.8431 15.2244 59.9307 14.8244 60.1012 14.4929C60.2764 14.1567 60.5178 13.9011 60.8256 13.7259C61.1381 13.5507 61.4979 13.4631 61.9051 13.4631C62.5112 13.4631 62.9871 13.6525 63.3327 14.0313C63.6783 14.4053 63.8488 14.9262 63.8441 15.5938V22H66.8696V15.054C66.8696 14.2065 66.7134 13.4773 66.4009 12.8665C66.0884 12.251 65.6504 11.7775 65.087 11.446C64.5235 11.1146 63.863 10.9489 63.1054 10.9489C62.2958 10.9489 61.6068 11.1359 61.0387 11.51C60.4705 11.8793 60.0657 12.3812 59.8242 13.0156H59.6963V11.0909H56.8128V22H59.8384ZM73.2741 22.1776C72.4455 22.1776 71.695 21.9645 71.0227 21.5384C70.3551 21.1075 69.8248 20.4754 69.4318 19.6421C69.0435 18.804 68.8494 17.7765 68.8494 16.5597C68.8494 15.3097 69.0506 14.2704 69.4531 13.4418C69.8555 12.6084 70.3906 11.9858 71.0582 11.5739C71.7305 11.1572 72.4668 10.9489 73.267 10.9489C73.8778 10.9489 74.3868 11.053 74.794 11.2614C75.2059 11.465 75.5374 11.7207 75.7883 12.0284C76.044 12.3315 76.2381 12.6297 76.3707 12.9233H76.463V7.45456H79.4815V22H76.4985V20.2529H76.3707C76.2287 20.5559 76.0274 20.8565 75.767 21.1548C75.5113 21.4484 75.1775 21.6922 74.7656 21.8864C74.3584 22.0805 73.8612 22.1776 73.2741 22.1776ZM74.2329 19.7699C74.7206 19.7699 75.1325 19.6373 75.4687 19.3722C75.8096 19.1023 76.07 18.7259 76.25 18.2429C76.4346 17.76 76.5269 17.1941 76.5269 16.5455C76.5269 15.8968 76.437 15.3333 76.2571 14.8551C76.0771 14.3769 75.8167 14.0076 75.4758 13.7472C75.1349 13.4868 74.7206 13.3565 74.2329 13.3565C73.7357 13.3565 73.3167 13.4915 72.9758 13.7614C72.6349 14.0313 72.3768 14.4053 72.2017 14.8835C72.0265 15.3618 71.9389 15.9157 71.9389 16.5455C71.9389 17.1799 72.0265 17.741 72.2017 18.2287C72.3816 18.7117 72.6396 19.0905 72.9758 19.3651C73.3167 19.635 73.7357 19.7699 74.2329 19.7699ZM85.1012 22V7.45456H82.0259V22H85.1012Z" fill="#D6D6D6"/>
</svg>
