<?xml version="1.0" encoding="utf-8"?>
<!-- Generator: Adobe Illustrator 26.2.1, SVG Export Plug-In . SVG Version: 6.00 Build 0)  -->
<svg version="1.1" id="Layer_1" xmlns="http://www.w3.org/2000/svg" xmlns:xlink="http://www.w3.org/1999/xlink" x="0px" y="0px"
	 viewBox="0 0 188 60" style="enable-background:new 0 0 188 60;" xml:space="preserve">
<style type="text/css">
	.st0{fill-rule:evenodd;clip-rule:evenodd;}
	.st1{fill-rule:evenodd;clip-rule:evenodd;fill:#333F52;}
	.st2{fill:#15384F;}
	.st3{fill:#FFFFFF;}
	.st4{fill:#231F20;}
	.st5{fill:#7AC2BB;}
</style>
<path class="st0" d="M0,17.2L0,17.2L0,17.2l0,16.7c0,22.7,17.2,25.8,17.2,25.8V35.4C17,33.8,15.2,22.4,0,17.2L0,17.2z"/>
<path class="st1" d="M34.4,17.2l0,16.7c0,22.7-17.2,25.8-17.2,25.8V35.4c0,0.1,0,0.2,0,0.2S18.2,22.9,34.4,17.2z M34.4,17.2
	L34.4,17.2L34.4,17.2L34.4,17.2z"/>
<path class="st2" d="M84.8,17.1l15.2,0C98.3,39,90.4,54.7,88,59.2l-15.1,0c-0.9-3.2-2.1-9.1-4.4-17.8c-2.1,8.7-3.4,14.6-4.2,17.8
	l-15.1,0c-2.4-4.5-10.2-20.2-12-42.1l15.3,0c0.7,13.2,3.6,26.9,4.2,27.5c0.6-0.7,3.6-14.2,4.3-27.5l15.2,0
	c0.8,13.2,3.6,26.9,4.3,27.5C81.1,43.9,83.9,30.4,84.8,17.1z"/>
<path class="st2" d="M102.3,0l15.8,0l0,13.9l-15.8,0L102.3,0z M122.3,57.2c-1.6,0.9-5.5,2-8.7,2c-6.5,0-11-2.2-11-14.9l0-27.3
	l15.1,0l0,27.2c0,2.2,0.1,2.8,1,2.8c0.2,0,0.5-0.1,1.7-0.3L122.3,57.2z"/>
<path class="st2" d="M155.6,28.3c-3.2-0.5-5.2-0.7-8.3-0.7c-4.1,0-7,0.4-7,2.1c0,4.1,17.4-0.3,17.4,16.4c0,13.6-12.1,13.9-17.6,13.9
	c-6.7,0-12.5-0.5-15.7-1.1l0.7-11c3.8,0.4,9,0.9,12.2,0.9c2.9,0,5-0.4,5-2c0-4.6-17.4-0.4-17.4-16.6c0-13.5,12.1-13.8,18-13.8
	c5.9,0,10.6,0.3,13.4,0.9L155.6,28.3z"/>
<path class="st2" d="M185.9,29.2c-1.8-0.2-3.8-0.3-4.9-0.3c-1.2,0-2.9,0.2-4.7,0.7l0,29.6l-15,0l0-38.4c4.1-2.9,10.8-4.5,16.6-4.5
	c3.7,0,5.6,0.1,10.1,1.1L185.9,29.2z"/>
<path class="st3" d="M13.1,31.2c0,2.4-2,4.4-4.4,4.4c-2.4,0-4.4-2-4.4-4.4c0-2.4,2-4.4,4.4-4.4C11.1,26.9,13.1,28.8,13.1,31.2z"/>
<path class="st4" d="M9.6,31.2c0,0.5-0.4,0.9-0.9,0.9c-0.5,0-0.9-0.4-0.9-0.9c0-0.5,0.4-0.9,0.9-0.9S9.6,30.7,9.6,31.2z"/>
<path class="st3" d="M30.2,31.2c0,2.4-2,4.4-4.4,4.4c-2.4,0-4.4-2-4.4-4.4c0-2.4,2-4.4,4.4-4.4C28.3,26.8,30.2,28.8,30.2,31.2z"/>
<path class="st4" d="M26.8,31.2c0,0.5-0.4,0.9-0.9,0.9c-0.5,0-0.9-0.4-0.9-0.9c0-0.5,0.4-0.9,0.9-0.9S26.8,30.7,26.8,31.2z"/>
<path class="st5" d="M17.3,17.2L17.3,17.2L0,17.2c16.3,5.6,17.2,18.4,17.2,18.4s1-12.8,17.3-18.4L17.3,17.2z"/>
</svg>
