<?xml version="1.0" encoding="UTF-8"?><svg id="Layer_8" xmlns="http://www.w3.org/2000/svg" viewBox="0 0 886.58 442.19"><path d="M886.58,249.14c-.28,1.36-.45,2.75-.86,4.07-2.63,8.4-8.31,13.62-17,14.89-8.47,1.23-15.31-2.01-20.27-9.04-.29-.41-.54-.84-.82-1.27-.03-.04-.09-.07,.08,.06-3.38,.46-6.57,1.21-9.77,1.26-15,.23-26.2-6.64-34.23-18.99-6.12-9.42-8.76-19.94-9.37-31.04-.61-11.05,.82-21.95,2.49-32.83,1.42-9.26,2.84-18.52,3.98-27.82,.59-4.84,0-9.7-1.43-14.41-3.53-11.6-13.68-17.19-25.31-13.69-11.05,3.33-19.36,10.38-25.03,20.27-3.18,5.54-5.68,11.48-8.23,17.36-2.68,6.18-5.06,12.5-7.67,18.98,.68,.47,1.58,1.08,2.79,1.91l.53-1.41,.6,.21c.94,1.97,1.88,3.93,2.69,5.63-.67,.75-1.29,1.25-1.66,1.9-1.15,2.04-2.31,4.08-3.25,6.22-2.01,4.53-1.3,7.49,2.45,10.7,1.65,1.41,3.39,2.72,5.33,4.26,1.36-5.8,2.67-11.42,3.98-17.04l.47-.18c1.33,1.81,2.82,3.52,3.96,5.44,3.12,5.23,3.56,11.04,3.38,16.96-.16,5.19-.44,10.39-.24,15.56,.22,5.58-1.16,10.82-2.52,16.1-2.29,8.94-4.63,17.86-6.99,26.78-.3,1.12-.66,2.26-1.19,3.28-3.07,5.95-4.65,12.23-4.65,18.95,0,1.61-.41,3.38-1.16,4.8-1.66,3.14-3.63,6.12-5.53,9.13-1.81,2.87-3.52,5.82-5.56,8.53-4.34,5.76-10.41,8.54-17.41,9.53-1.49,.21-2.98,.36-4.48,.54-4.92,.58-6.56,7.28-3.87,10.51,.61,.73,1.33,1.45,1.64,2.31,.67,1.85,1.63,3.8,1.55,5.68-.17,4.19-.71,8.4-1.44,12.54-.72,4.1-2.59,7.84-5,11.21-2.69,3.76-5.62,7.35-8.5,10.98-2.01,2.53-4.19,4.93-6.12,7.51-3.4,4.56-7.43,8.49-11.85,12.02-6.99,5.58-13.84,11.29-20.19,17.61-3.12,3.1-6.68,5.76-10.02,8.64-3.18,2.74-7.03,3.72-11.03,4.36-7.69,1.24-15.4,2.43-23.07,3.82-2.44,.44-4.75,1.56-7.17,2.18-5.34,1.39-10.81,1.56-16.29,1.33-4.85-.2-9.7-.55-14.56-.8-5.75-.29-11.13-2.22-16.5-4-5.59-1.86-11.07-4.05-16.57-6.16-2.99-1.15-4.54-.81-6.25,1.92-2.05,3.25-4.06,6.53-5.88,9.91-1.63,3.03-4.06,4.89-7.27,5.9h-7.71c-1.38-.11-2.76-.3-4.15-.33-12.82-.29-25.47-1.71-37.71-5.74-6.79-2.24-12.59-5.97-16.29-12.35-2.41-4.15-3.37-8.68-3.55-13.42-.08-2.06-.04-4.13-.26-6.17-.3-2.76-1.78-5-4.06-6.45-5.39-3.43-9.19-8.23-12.3-13.68-2.85-4.98-5.84-9.89-8.55-14.95-1.96-3.66-4.86-5.17-8.87-4.98-4.85,.22-9.3,1.5-13.25,4.47-4.63,3.49-9.78,4.44-15.32,2.56-5.31-1.81-10.52-1.43-15.7,.49-4.59,1.71-9.08,3.73-13.77,5.08-8.61,2.48-16.96,.91-25.16-2.28-5.19-2.02-9.5-5.13-12.99-9.4-2.51-3.07-5.58-4.47-9.63-4.36-5.77,.16-10.92-1.94-15.51-5.35-3.62-2.69-4.57-6.43-3.83-10.72,.59-3.43-.03-6.71-2.29-9.28-3.38-3.85-3.84-8.09-2.77-12.81,.98-4.37-.31-7.38-4.29-9.26-4.27-2.01-6.93-5-7.68-9.76-.31-1.98-1.59-3.21-3.87-3.52-5.79-.77-11.52-2.06-17.33-2.61-4.82-.45-9.72-.43-14.55-.11-9.24,.61-18.44,1.78-27.68,2.36-9.13,.57-17.18-2.55-23.36-9.22-5.48-5.92-10.48-12.33-15.28-18.83-3.43-4.65-3.63-10.03-1.48-15.44,1.9-4.78,1.82-4.34-2.68-6.1-7.17-2.81-11.56-8.01-12.06-15.79-.3-4.69,.96-9.22,3.07-13.51,2.16-4.39,4.18-8.85,3.68-13.99-.41-4.21-.79-8.42-.96-12.64-.15-3.89,.63-7.71,2.34-11.18,1.63-3.31,2.27-6.82,3.03-10.35,2.3-10.7,6.22-20.68,13.48-29.09,1.11-1.29,2.33-2.5,3.67-3.93,.61,1.14,1.22,1.96,1.51,2.88,.53,1.69,1.7,1.87,3.22,1.86,1.65-.02,3.09-.32,3.66-2,1.05-3.09,2.04-6.22,2.89-9.37,.42-1.54,.49-3.18,.77-5.13l-6.32,3.88c.35-1.86,.58-3.3,.9-4.72,.98-4.39,1.68-8.87,3.09-13.11,.87-2.61,2.81-4.88,4.32-7.26,.3-.47,.83-.79,1.25-1.18l.47,.27c-.5,1.42-.99,2.85-1.52,4.26-.25,.68-.7,1.3-.84,1.99-.3,1.46-.27,2.91,1.01,4,1.16,.98,2.3,.44,3.44-.04,.91-.38,1.83-.76,3.02-.91-.26,.4-.46,.85-.77,1.19-4.45,4.89-4.25,14.09,.27,18.9,3.06,3.25,5.91,6.7,8.85,10.07,1,1.14,2.05,2.04,3.67,2.39,3.62,.78,6.22,3.16,8.31,6.09,2.69,3.76,5.31,7.58,7.97,11.37,.42,.59,.83,1.19,1.32,1.73,1.19,1.31,2.42,1.53,3.87,.55,1.57-1.06,3.06-2.25,4.54-3.43,1.35-1.07,1.6-2.66,1.25-4.12-.73-3.06-1.56-6.13-2.72-9.05-2.04-5.11-4.36-10.1-6.55-15.15-.69-1.59-.34-2.91,1-4.02,2.48-2.06,4.93-4.16,7.54-6.37,.76,1.26,1.38,2.3,2.09,3.47,2.67-1,4.51-3.01,6.41-4.93,.2-.2,.13-.74,.07-1.1-.8-5.08-.92-5.2-6-6.2-2.89-.57-5.78-1.16-8.68-1.68-2.56-.45-4.14-1.73-4.86-4.37-.41-1.49-1.34-2.97-2.4-4.12-1.86-2.02-4.29-2.69-7.03-1.97-.36,.1-.74,.11-1.46,.2,.38-.72,.61-1.18,.87-1.63,2.45-4.15,3.7-8.45,1.89-13.22-.24-.63-.26-1.51-.02-2.13,.5-1.3-.09-1.74-1.14-2.25-15.69-7.64-32.34-10.8-49.69-10.36-31.79,.81-60.23,11.25-85.48,30.43-19.99,15.19-35.21,34.46-47.2,56.36-12.48,22.79-20.77,47.11-25.86,72.53-1.63,8.14-2.73,16.4-4.04,24.6-.37,2.31-1.73,3.71-3.91,3.85-2.54,.17-4-1.24-3.62-3.76,1.35-8.93,2.5-17.91,4.24-26.77,4.4-22.42,11.26-44.07,21.32-64.64,12.43-25.42,28.92-47.69,51.12-65.48,21.65-17.36,46.05-28.73,73.54-33.01,24.36-3.79,48.1-1.53,70.92,8.26,1.02,.44,2.02,.93,3,1.39,.93-1.42,1.82-2.78,2.71-4.14l.58,.17c0,.78,.04,1.56,0,2.34-.13,2.4,.98,3.75,3.08,5,2.63,1.55,4.92,3.7,7.26,5.71,6.12,5.27,10.55,11.78,13.79,19.14,.2,.46,.4,.91,.63,1.45,1.91-.57,3.22-1.76,4.1-3.45,1.37-2.6,2.73-5.2,4.28-8.15,3.11,5.13,7.17,9.29,6.86,15.69-.75,15.38,3.2,29.67,10.77,43,.47,.83,1.31,1.46,1.96,2.19,1.59,1.76,3.18,3.53,4.91,5.46,10.73-6.42,21.78-12.93,33.81-18.02-2-3.3-3.62-6.74-7.09-8.74-4.05-2.33-4.31-3.54-1.4-7.26,1.09-1.4,2.28-2.77,3.64-3.91,2.5-2.1,4.96-1.7,6.86,.97,.97,1.36,1.82,2.81,2.84,4.14,2.42,3.17,4.51,3.06,6.59-.33,.85-1.38,1.58-2.82,2.44-4.19,.2-.32,.76-.64,1.11-.59,.36,.05,.92,.53,.94,.85,.14,1.87,.28,3.77,.15,5.64-.19,2.81-.59,5.61-.91,8.57,5.69-1.14,11.15-1.82,16.71-1.3,9.45,.88,17.65,4.21,23.67,11.9,.19,.25,.5,.4,.76,.6,.18,.31,.36,.62,.54,.93,1.34,3.29,3.07,6.47,3.95,9.88,1.97,7.57,.76,15.07-1.39,22.45-.38,1.28-.8,2.55-1.2,3.83-.01,.05,.02,.1,.06,.32,.37-.21,.75-.36,1.04-.61,3.42-2.9,7.28-3.39,11.46-2.12,2.48,.76,5,1.24,7.57,.62,5.6-1.36,9.45-6.14,9.29-12.33-.14-5.33-.9-10.64-1.44-15.96-.41-4.05-1.1-8.07-1.28-12.13-.22-4.93,2.69-8.32,6.34-11.18,4.16-3.26,5.19-6.44,3.66-11.48-.6-1.97-1.29-3.91-1.98-5.85-.44-1.26-1.01-2.47-1.42-3.74-.63-1.95-1.53-3.51-3.47-4.62-2.83-1.63-2.51-4.56-2.31-7.34,.47-6.51,1.22-13.02,1.23-19.53,0-6.06,2.46-10.61,6.82-14.43,.23-.2,.52-.32,1-.61-.11,.55-.1,.88-.23,1.15-2.44,4.72-2.49,9.64-1.11,14.63,1.25,4.51,2.63,9.02,5.58,12.77,1.14,1.45,2.63,2.72,4.2,3.7,3.31,2.07,3.87,4.47,1.54,7.63-1.19,1.61-2.3,3.29-3.44,4.94-1.87,2.71-1.81,5.55-.41,8.39,1.53,3.09,3.91,5.38,6.97,7,2.21,1.17,4.58,.94,6.89,.78,6.45-.44,12.57-1.85,18.31-5.16,3.86-2.23,8.25-3.52,12.69-5.35-1.08-3.03-2.22-6.2-3.47-9.69-4.48,4.46-9.43,6.67-15.37,4.46-5.77-2.15-8.88-6.51-9.35-12.74-1.06,.28-1.95,.51-3.26,.85,.39-.84,.59-1.36,.88-1.84,1.62-2.73,3.31-5.43,4.87-8.19,1.68-2.98,2.77-6.16,3.27-9.58,.86-5.81,5.19-10.36,11.48-11.6,7.37-1.46,14.81-2.56,22.22-3.75,1.27-.2,2.22-.57,3.03-1.7,5.14-7.18,11.59-12.85,19.78-16.32,10.25-4.33,20.13-3.24,28.05,5.55,3.02-1.54,6.1-3.07,9.13-4.68,2.24-1.19,4.51-2.11,7.1-2.25,1.31-.07,2.68-.36,3.88-.88,5.27-2.28,10.77-2.05,16.31-1.77,3.04,.15,6.11-.06,9.14,.19,2.01,.16,4.15,.49,5.91,1.38,5.35,2.71,11.26,0,12.5-5.91,.56-2.65,.23-5.06-1.12-7.4-.72-1.25-1.26-2.61-1.97-3.86-.56-.99-.33-1.55,.96-1.93,1.12,1.84,2.42,3.66,3.37,5.64,1.27,2.65,2.32,5.42,3.39,8.16,.94,2.42,.94,4.91,.26,7.39-1.28,4.7-4.69,6.21-9.3,4.35-3.29-1.32-6.6-2.76-10.04-3.55-7.41-1.69-14.95-2.28-22.25,.48-2.7,1.02-5.23,2.72-7.55,4.49-3.01,2.3-5.7,5.01-8.6,7.47-.86,.73-1.24,1.48-1.16,2.58,.08,1.17,.01,2.35,.11,3.52,.35,4.38-.53,8.54-3.12,12.05-3.11,4.2-4.37,9.08-5.88,13.9,2.34,.7,6.29,3.87,7.83,6.3-1.97,.64-7.74,.42-10.05-.41-1.87,4.06-3.84,8.13-4.23,12.63-.15,1.71,.28,3.91,1.3,5.22,5.57,7.14,8.71,15.7,13.81,23.07,3.33,4.81,7.1,9.32,10.72,13.93,.41,.53,1.12,.91,1.77,1.14,4.44,1.6,7.98,4.32,10.54,8.29,.15,.23,.28,.5,.47,.69,4.75,4.53,6.09,10.46,6.89,16.62,.61,4.71,2.88,8.47,6.51,11.5,.87,.72,1.49,.74,2.45,.08,5.81-4,12.08-7.02,19.1-8.12,3.18-.5,6.42-.53,9.8-.79,.88-2.71,.08-5.58-.43-8.37-1.14-6.29-2.55-12.53-3.97-18.76-.21-.94-.93-1.88-1.66-2.55-1.14-1.05-2.53-1.83-3.75-2.81-.69-.55-1.37-1.17-1.83-1.9-1.01-1.61-.6-2.57,1.19-3.14,6.97-2.23,17.82,3.74,19.53,10.86,.37,1.53,.19,3.2,.26,4.81,.06,1.37-.16,2.82,.24,4.08,1.51,4.77,3,9.56,4.93,14.17,1.62,3.88,3.76,7.55,5.83,11.22,.4,.7,1.56,1.3,2.4,1.36,5.03,.34,8.68-2.43,11.92-5.78,3.93-4.05,5.61-9.14,6.31-14.62,.35-2.8,.62-5.62,.92-8.44,3,.45,4.48,2.52,5.16,5.58,1.08,4.87,.11,9.38-1.56,13.87-1.95,5.24-3.29,10.63-3.77,16.2-.06,.67,.1,1.5,.49,2.03,2,2.75,4.06,5.45,6.21,8.08,.41,.5,1.33,.83,2.01,.81,9.63-.26,19.16-1.3,28.53-3.61,1.46-.36,2.26-1.06,2.56-2.42,2.38-10.74,7.85-20.42,10.61-31.04,.58-2.25,.61-4.37-.66-6.25-1.81-2.67-3.79-5.24-5.83-7.74-2.42-2.96-5.94-3.28-9.41-3.56-5.84-.47-11.73-.56-17.5-1.46-2.84-.44-5.74-1.95-8.1-3.67-5.44-3.99-10.62-8.36-15.79-12.69-1.16-.97-2.06-2.37-2.8-3.72-1.44-2.62-.05-5.21,2.9-5.46,1.87-.16,3.76,.22,5.05,1.72,2.18,2.52,4.99,3.88,8.11,4.72,2.78,.74,5.1,2.29,6.53,4.67,4.39,7.28,11.31,10.45,19.15,12.22,4.72,1.07,9.52,1.16,14.32,.84,3.51-.23,4.27,.43,6.06,3.49,1.96,3.35,4.26,6.51,6.59,9.62,1.6,2.14,3,4.18,1.91,7.01-.36,.94-.76,1.37-1.84,.86-.99-.46-2.08-.69-3.3-1.09-.37,3.55-.44,6.76,2.7,9.17,1.74,1.33,1.59,3.36,1.31,5.24-.69,4.72-3.01,8.57-6.54,11.72-1.16,1.04-2.33,2.06-3.49,3.09,.09,.14,.18,.29,.27,.43,2.46-1.34,4.98-2.58,7.37-4.02,11.56-7,19.37-17.14,24.7-29.39,.76-1.75,1.02-3.04-.25-4.79-2.03-2.8-1.08-5.79,.52-9.12,.97,2.35,1.78,4.28,2.73,6.58,.76-1.87,1.39-3.39,2-4.92,2.9-7.32,5.84-14.62,10.15-21.26,6.93-10.67,16.16-18.48,28.63-21.82,8.99-2.41,17.58-1.48,24.94,4.79,5.84,4.97,8.7,11.65,10.07,19.01,1.47,7.89,.94,15.82-.18,23.69-1.43,10.05-3.29,20.04-4.64,30.11-1.73,12.88-1.34,25.66,3.51,37.94,3.47,8.79,8.89,16.01,17.65,20.18,6.2,2.95,12.69,3.67,19.44,2.22,1.47-.32,1.92-.85,1.87-2.41-.38-10.79,7.43-20.02,17.97-21.38,10.78-1.39,20.64,5.58,23.02,16.28,.2,.92,.36,1.85,.53,2.77v3.02Zm-672.44,4.68c.11,0,.25,.03,.32-.03,5.26-4.11,9.81-8.9,14.06-14.48-1.31-.91-2.49-1.79-3.73-2.59-1.02-.66-2.19-1.13-3.15-1.87-1.73-1.32-2.28-3.27-1.19-5.01,1.23-1.97,2.67-3.83,4.22-5.56,1.23-1.37,2.88-1.15,4.51-.56,1.28,.47,1.72,1.32,1.33,2.57,1.75,0,3.38-.1,4.98,.04,1.05,.09,1.46-.36,1.88-1.18,3.54-6.92,6.3-14.14,8.48-21.59,.11-.37,.1-.78,.2-1.63-3.12,2.96-5.91,5.59-8.67,8.26-.3,.29-.48,.75-.59,1.16-.7,2.73-2.43,4.73-4.87,5.86-2.68,1.25-4.63,3.21-6.52,5.35-1.48,1.67-3.06,3.26-4.5,4.96-3.28,3.86-6.5,7.76-9.67,11.56,1.32,1.71,2.38,3.2,3.57,4.58,2.41,2.78,2.67,4.3,1.01,7.55-.47,.92-1.1,1.77-1.66,2.65-3.61,1.21-6.72-1.08-10.18-1.55-.83,2.96-1.54,5.82-1,9.11,2-1.19,3.81-2.16,5.49-3.32,1.95-1.34,3.78-2.84,5.66-4.27Zm146.28-47.72c-1.28-.09-2.1-.14-2.92-.2-4.33-.28-7.98-1.98-10.81-5.29-2.2-2.57-3.65-5.55-4.81-8.73-.71-1.94-1.88-3.72-2.93-5.52-1.01-1.73-2.36-3.29-3.15-5.11-3.34-7.69-4.73-15.74-4.04-24.12,.24-2.92,.44-5.84,.68-8.99-2.86,.99-5.52,1.91-8.19,2.83,.11,.28,.13,.4,.19,.48,.3,.4,.62,.79,.93,1.19,2.36,2.96,3.6,6.33,3.16,10.11-.29,2.47-.8,4.94-1.5,7.33-1.37,4.66-1.25,9.01,1.32,13.34,2.45,4.14,3.42,8.66,2.22,13.51-.21,.83,.16,1.83,.38,2.73,.19,.75,.65,1.43,.81,2.18,.34,1.62,.06,3.12-1.22,4.3-1.29,1.18-2.86,1.48-4.34,.7-1.34-.71-2.53-1.76-3.66-2.8-1.6-1.47-2.96-3.2-4.62-4.59-5.67-4.74-10.81-9.81-13.26-17.08-.96-2.83-3.13-4.83-5.81-6.22-3.58-1.87-7.14-3.76-11.2-5.91-6.35,4.44-13.2,9.26-20.09,14.01-1.15,.79-1.59,1.65-1.42,3.04,.65,5.25-.73,10.05-3.54,14.46-1.29,2.02-1.69,4.27-1.41,6.57,.69,5.65,1.93,11.19,4.13,16.46,.73,1.75,.69,3.32-.23,4.94-1.21,2.13-2.29,4.34-3.58,6.42-1.08,1.73-2.15,3.58-3.62,4.93-3.51,3.21-7.69,5.33-12.57,4.92-3.07-.25-6.11-1.16-9.11-1.99-1.09-.3-1.61-.11-2.21,.73-.85,1.18-1.78,2.3-2.72,3.4-7.87,9.3-17.25,16.65-28.37,21.71-3.29,1.5-5.3,.64-6.47-2.81-1.21-3.54-1.72-7.17-1.12-10.88,.34-2.13,.83-4.23,1.18-5.95-1.28-1.56-2.52-2.83-3.49-4.29-1.27-1.9-2.87-3.27-5.08-3.83-1.61-.41-3.28-.61-4.88-1.06-.42-.12-.8-.78-.94-1.27-.06-.2,.53-.72,.91-.88,.5-.21,1.09-.18,1.64-.29,5.71-1.21,11.44-1.88,17.25-.63,.46,.1,1.23-.35,1.57-.77,1.89-2.35,3.59-4.85,5.53-7.16,4.54-5.37,9.17-10.66,13.95-16.2-1.36-1.81-2.63-3.85-4.26-5.57-1.66-1.76-3.79-3.07-5.49-4.81-3.2-3.27-6.22-6.71-9.35-10.05-2.61-2.79-2.69-6.11-.11-8.99,2.47-2.75,5.42-4.94,9.01-5.84,2.6-.66,5.6-1.54,8.02-.87,8.81,2.45,13.25,9.28,15.78,17.56,.42,1.39,.33,2.93,.51,4.68,2.92-2.63,5.63-5.08,8.51-7.68-.89-1.43-1.62-2.88-2.61-4.13-1.58-1.99-2.59-4.16-2.65-6.71-.04-1.84,.09-3.68,.03-5.51-.23-7.39,2.53-13.85,6.38-19.89,1.04-1.63,2.72-2.92,4.27-4.14,.79-.62,1.21-1.11,1.11-2.13-.18-1.95-.36-3.9-.32-5.85,.07-3.04-.57-5.36-3.85-6.62-2.33-.9-2.51-2.6-1.29-4.8,.91-1.65,1.78-3.34,2.49-5.09,.31-.78,.17-1.75,.25-2.8-2.6,1.92-4.88,3.61-7.26,5.37l-2.19-3.65c-2.44,2.09-4.74,4.04-7.02,6.02-.9,.78-1.12,1.71-.62,2.84,2.19,4.99,4.38,9.97,6.51,14.99,.91,2.14,1.8,4.31,2.44,6.55,1.16,4.02,.57,7.52-3.56,9.67-.49,.25-.88,.68-1.33,1.01-2.68,1.95-4.35,1.7-6.38-.94-.27-.35-.51-.73-.77-1.1-2.69-3.84-5.32-7.71-8.07-11.5-2.08-2.88-4.76-4.96-8.32-5.83-.91-.22-1.88-.77-2.5-1.45-3.12-3.43-6.01-7.07-9.22-10.4-3.6-3.73-4.79-8.1-4.01-13.04,.34-2.14,1.16-4.21,1.77-6.35-.28,.08-.68,.19-1.09,.3-1.85,.52-3.23-.12-4.11-1.87-.87-1.73-.41-3.35,.33-4.96,.3-.65,.56-1.31,.84-1.97-5.42,6.19-5.58,14.03-7.22,21.82,2.13-1.32,3.93-2.43,5.71-3.54,.22,.31,.35,.41,.34,.49-.47,5.23-1.43,10.35-3.55,15.2-.84,1.93-2.2,2.85-4.27,2.87-1.96,.01-3.77-.17-4.38-2.54-.15-.57-.55-1.07-.85-1.62-8.43,7.43-16.73,25.59-17.12,37.43,.89-.67,1.7-1.36,2.6-1.92,1.18-.73,2.35-1.69,3.65-1.96,5.61-1.15,11.27-2.1,16.92-3.04,.48-.08,1.24,.38,1.57,.81,.75,1.01,1.31,2.15,1.95,3.24-.3-2.51-.6-4.98,.88-7.14,2.15-3.13,4.39-6.19,6.73-9.17,1.46-1.86,3.14-1.84,4.6,.02,1.4,1.79,2.77,3.67,3.79,5.69,2.63,5.23,2.4,10.28-.86,15.35-2.21,3.44-4.12,7.16-5.59,10.98-1.14,2.96-1.7,6.23-1.96,9.41-.49,5.93,1.12,11.23,5.64,15.46,1.11,1.04,1.96,2.45,2.64,3.83,.44,.89,.63,2.09,.43,3.06-.63,3.04-2.89,4.62-5.65,5.59-2.54,.9-4.68,.23-6.58-1.6-3.47-3.36-6.65-7.01-8.8-11.32-3.11-6.22-5.95-12.57-8.77-18.93-1.79-4.05-3.67-7.91-8.25-9.5-.2-.07-.38-.23-.56-.37-1.92-1.45-2.4-2.94-1.73-5.29,.16-.56,.33-1.13,.49-1.71-3.72-.49-3.71-.49-5.12,2.74-2.87,6.56-3.04,13.39-2.12,20.35,.29,2.2,1.11,4.53,.68,6.6-.78,3.77-1.93,7.57-3.61,11.03-1.85,3.8-2.96,7.73-3.2,11.81-.46,7.8,4.04,14.04,11.76,17.03,4.9,1.89,4.93,1.91,2.97,6.79-2.26,5.63-1.74,10.99,1.87,15.82,4.05,5.4,8.22,10.74,12.62,15.85,5.02,5.84,11.3,9.98,19.12,10.63,4.9,.41,9.9-.18,14.85-.5,8.63-.55,17.25-1.44,25.88-1.79,8.47-.35,16.73,1.57,25,3.1,2.61,.48,3.77,1.73,4.26,4.41,.68,3.76,2.62,6.54,6.09,8.27,5.65,2.82,6.88,5.34,5.65,11.58-.8,4.05-.3,7.67,2.57,10.91,2.64,2.98,3.32,6.72,2.66,10.53-.82,4.69,.89,8.04,4.71,10.55,4.55,2.99,9.54,4.57,15,4.43,3.24-.09,5.87,1.07,8.04,3.41,.49,.53,1.01,1.04,1.48,1.6,3.31,4.01,7.41,6.82,12.27,8.71,7.86,3.05,15.87,4.76,24.16,2.39,4.69-1.34,9.22-3.28,13.79-5.03,5.55-2.12,11.07-2.56,16.82-.62,5.08,1.71,9.95,.89,14.26-2.35,3.34-2.51,7.02-4.18,11.16-4.52,6.35-.51,9.33-.41,12.82,6.15,2.78,5.21,5.91,10.23,8.87,15.35,2.75,4.76,6.26,8.79,10.92,11.8,2.47,1.6,4.15,3.94,4.65,6.88,.28,1.64,.24,3.34,.24,5.01-.02,11.89,5.02,20.66,16.15,25.35,9.49,4,19.57,5.56,29.76,6.37,6.46,.51,12.94,.63,19.41,.96,4.52,.23,7.81-1.55,9.98-5.61,1.81-3.38,3.83-6.66,5.89-9.9,1.91-3.01,3.8-3.44,7.13-2.18,5.92,2.25,11.82,4.59,17.85,6.54,4.53,1.47,9.19,2.8,13.9,3.42,5.74,.75,11.59,.9,17.39,.88,4.49-.01,9.01-.49,13.46-1.13,2.49-.36,4.83-1.77,7.32-2.22,7.67-1.39,15.37-2.55,23.07-3.78,4.15-.66,8.22-1.5,11.55-4.38,2.24-1.94,4.63-3.7,6.79-5.72,7.39-6.9,14.7-13.88,22.75-20.03,4.49-3.44,8.52-7.38,11.98-11.9,2.13-2.79,4.5-5.39,6.65-8.16,3.08-3.96,6.21-7.89,9.05-12.02,2.44-3.56,4.01-7.57,4.52-11.91,.4-3.36,.78-6.72,1.15-10.08,.04-.38-.03-.78-.07-1.17-.28-2.36-1.45-4.27-2.89-6.1-3.46-4.4-1.39-10.81,3.86-11.99,1.14-.26,2.32-.32,3.49-.43,9.23-.93,16.38-5.08,20.89-13.38,.74-1.37,1.61-2.67,2.45-3.98,1.82-2.87,3.86-5.62,5.41-8.62,.9-1.75,1.35-3.89,1.45-5.88,.27-5.39,1.15-10.61,3.34-15.58,.92-2.09,2-4.13,2.6-6.31,2.05-7.45,3.95-14.94,5.84-22.43,1.19-4.68,2.96-9.35,3.25-14.11,.58-9.62,.58-19.3,.33-28.94-.13-5.15-2.38-9.78-6.22-13.67-1.34,5.72-2.65,11.29-4.01,17.12-2.65-2.17-5.06-3.98-7.28-6-2.39-2.18-3.58-4.97-2.47-8.15,.95-2.71,2.09-5.41,3.59-7.84,1.42-2.3,1.71-4.29,.06-6.46-.06-.08-.14-.15-.2-.23-1.95,1.24-2.71-1.44-4.56-1.28-.78,4.13-4.15,6.76-6.29,10.18-.52,.84-1,1.9-.97,2.85,.06,2.4-.63,4.49-2.38,6.02-2.92,2.57-5.9,5.11-9.07,7.36-4.41,3.13-4.8,5.1-1.36,9.21,.43,.51,.95,1.03,1.13,1.64,.41,1.35,1.17,2.91,.82,4.1-1.48,4.97-4.36,9.04-9.59,10.53-3.29,.93-6.78,1.38-10.2,1.57-4.01,.22-7.05-3.79-6.2-7.69,.59-2.71,1.23-5.42,1.84-8.13,.26-1.15,.5-2.3,.76-3.54-3.18,.82-6.11,1.53-9,2.35-.76,.21-1.51,.66-2.1,1.19-1.35,1.21-2.6,2.53-4.04,3.96-1.33-3.04-3.87-2.91-6.46-2.79-6.69,.31-13.39,.58-20.09,.86-.75,.03-1.49,0-2.49,0,1.3,1.22,2.43,2.13,3.38,3.2,3.86,4.34,1.87,10.53-3.73,11.69-2.93,.6-5.14,2.13-6.22,5-.72,1.92-1.35,3.88-1.97,5.84-2.53,7.9-4.94,15.86-9.66,22.82-.94,1.39-2.22,2.64-3.57,3.66-3.2,2.41-6.09,5.07-8.19,8.51-2,3.28-4.77,5.75-8.45,6.72-3.8,1-7.74,1.53-11.64,2.05-2.74,.37-3.67-.48-4.3-3.22-.12-.54-.2-1.1-.41-1.61-.6-1.44-1.47-1.79-2.94-1.2-.51,.2-.99,.69-1.49,.7-1.1,.02-2.76,.24-3.2-.36-1.6-2.18-3.59-2.07-5.84-1.82-2.82,.31-5.7,.81-8.5,.58-7.05-.56-13.96-6.68-15.2-13.79-.85-4.86-1-9.88-1.02-14.82,0-1.91,.95-3.99,1.97-5.69,.94-1.59,2.48-2.85,3.86-4.14,1.58-1.47,3.27-2.81,4.91-4.21l-.09-.41c-1.52-.11-3.11-.54-4.56-.25-2.21,.44-4.34,1.31-6.45,2.15-.61,.24-1.27,.91-1.48,1.52-1.16,3.37-2.4,6.74-3.22,10.2-3.56,15.03-7.03,30.08-10.45,45.14-1.94,8.52-4.98,16.49-11.32,22.76-11.46,11.34-25.28,14.98-40.83,11.51-13.69-3.06-24.03-10.76-29.83-23.83-.79-1.78-1.82-2.87-3.5-3.67-7.39-3.56-14.7-7.08-23.3-6.86-6.91,.17-10.33-2.82-12.33-9.5-.73-2.44-.4-3.7,1.78-4.96,3.71-2.14,7.47-4.24,11.32-6.11,2.75-1.33,5.61-2.07,8.87-1.57,4.67,.71,9.42,.85,14.27,1.24,.58-3.97,1.15-7.86,1.72-11.78-1.15-.1-2.19-.15-3.22-.27-2.42-.29-4.83-.84-7.25-.86-2.72-.01-5.44,.62-8.16,.63-1.21,0-2.84-.52-3.55-1.39-1.72-2.14-3.96-3.02-6.42-3.57-.67-.15-1.61,.12-2.17,.54-.32,.24-.32,1.21-.16,1.76,.5,1.7,1.25,3.33,1.7,5.05,.47,1.78-.1,2.53-1.76,3.24-1.11,.48-2.27,.99-3.17,1.76-4.28,3.62-8.84,6.08-14.92,3.92,.21,.98,.27,1.69,.51,2.33,.97,2.61,.85,5.21-.36,7.63-1.29,2.58-2.99,4.96-4.32,7.52-2.09,4.02-5.35,5.97-9.81,6.13-.36,.01-.94,.26-1.03,.53-1.16,3.46-2.25,6.94-3.45,10.69,4.45-1.71,8.99-2.6,11.67-6.77,.41-.65,.97-1.3,1.62-1.67,1.01-.59,2.13-1.12,3.26-1.36,1.37-.29,2.85-.08,4.21-.41,1.98-.49,3.61-.09,4.78,1.48,3.2,4.28,5.28,8.88,4.05,14.45-1.48,6.69-6.89,10.53-12.03,9.29-.74-.18-1.83-.11-2.38,.33-4.31,3.33-9.23,5.88-12.91,10.04-.59,.67-1.68,1.18-2.57,1.24-4.09,.27-8.15-.03-12.03-1.46-1.04-.38-1.68-.18-2.43,.64-4.79,5.26-10.32,9.56-16.85,12.47-7.44,3.31-15.15,4.77-23.17,2.59-11.51-3.13-18.76-10.92-23.24-21.66-.37-.88-1.14-1.8-1.98-2.25-3.58-1.93-7.23-3.71-10.89-5.49-1.34-.65-2.23-1.55-2.68-3-1.35-4.33,1.34-10.95,5.35-13.06,2.64-1.39,5.72,.22,6.16,3.18,.13,.86,.42,1.69,.52,2.07,.95-4.91,1.98-10.09,2.94-15.28,.12-.64,.01-1.43-.26-2.03-1.97-4.27-3.46-8.68-3.88-13.4-.18-2-.21-4.01-.36-6.01-.08-1.09-.24-2.08-1.8-2.03-3.03,.09-3.03,.03-2.2-3,.03-.11,.03-.22,.06-.33,1.68-6.05,3.78-11.91,8.07-16.69,2.09-2.32,4.11-4.74,6.44-6.8,1.89-1.68,4.07-3.14,6.34-4.25,2.7-1.31,5.03-.1,6.21,2.67,.59,1.37,1.24,2.73,1.96,4.03,.75,1.35,1.62,2.62,2.48,3.99,1.1-1.69,2.28-3.48,3.45-5.26-4.29-2.98-4.58-5.54-1.03-8.4-.3-.45-.6-.9-.91-1.36-1.82-2.63-1.08-5.86,1.78-7.2,3.57-1.67,7.29-2.7,11.32-2.3,.6,.06,1.48-.39,1.86-.88,1.19-1.55,2.21-3.22,3.27-4.86,2.87-4.45,5.72-8.91,8.83-13.75Zm89.06-21.59l-.23-.52c-3,0-6.01-.06-9.01,.02-3.18,.08-6.35,.36-9.53,.4-2.22,.03-4.46-.34-6.68-.27-3.39,.11-6.29,1.49-8.47,4.12-2.39,2.87-3.92,6.2-4.87,9.79-.72,2.71-.48,5.39,.49,8.04,.82,2.24,1.61,4.5,2.28,6.79,.73,2.54,.39,3.36-1.81,4.74-2.41,1.51-4.85,2.97-7.32,4.37-.53,.3-1.37,.49-1.87,.28-1.02-.43-.59-1.35-.35-2.16,.81-2.77,1.79-5.51,2.32-8.34,.73-3.87-1.08-8.28-5.59-9.33-3.46-.8-6.92-1.67-10.35-2.61-2.49-.68-4.85-.42-6.8,1.21-4.5,3.75-8.97,7.56-13.26,11.55-2.5,2.32-3.59,5.37-2.75,8.84,.47,1.94,.9,3.91,1.61,5.76,1.81,4.72,3.84,9.37,5.66,14.09,1.38,3.58,.26,5.31-3.46,5.81-1.16,.15-1.83-.07-1.73-1.45,.05-.76,.05-1.62-.25-2.29-1.96-4.36-3.86-8.77-6.11-12.98-.74-1.39-2.39-2.36-3.76-3.35-.97-.71-1.75-.3-2.42,.79-3.07,4.99-6.23,9.93-9.35,14.89-.22,.35-.38,.74-.57,1.13,1.86,.87,3.6,1.68,5.55,2.59-.53,.41-.79,.75-1.12,.84-2.03,.55-4.09,1-6.1,1.59-.84,.25-1.92,.57-2.35,1.21-4,5.99-7.89,12.05-11.78,18.11-.34,.53-.61,1.21-.63,1.84-.14,5.25,.86,10.27,4,14.56,3.89,5.31,7.88,10.56,12.15,15.56,1.43,1.67,3.73,2.79,5.84,3.64,3.44,1.38,6.92,.65,10.23-.79,6.05-2.64,12.34-4.61,18.87-5.37,2.75-.32,3.66-1.41,4.32-3.85,3.04-11.31,6.23-22.59,11.6-33.09,.05-.1-.06-.28-.14-.58-7.49,4.03-14.89,8.02-22.29,12.01-4.29,2.32-7.08,5.6-7.44,10.73-.19,2.72-2.37,4.59-4.54,4.08-3.62-.85-7.2-1.88-10.76-2.94-1.85-.55-2.9-2-3.49-3.78-.54-1.62,.16-3.34,1.79-3.75,1.19-.3,2.5-.15,3.76-.1,.87,.03,1.74,.36,2.61,.34,1.95-.04,3.9-.19,5.85-.34,3-.23,3.49-1.17,2.2-3.87-.54-1.14-1.33-2.43-1.21-3.56,.38-3.51-.78-6.43-2.58-9.29-.72-1.14-1.07-2.51-1.59-3.78l.88-.63c.46,.67,.84,1.43,1.4,2,1.08,1.1,2.13,2.32,3.44,3.08,1.96,1.15,4.1,2.01,6.2,2.9,1.74,.74,3.54,.58,5.17-.32,3.17-1.74,6.4-3.4,9.39-5.41,5.17-3.45,7.78-8.41,7.33-14.67-.34-4.72-2.22-8.94-5.11-12.69-1.57-2.03-3.16-4.05-4.81-6.02-1.21-1.45-1.6-3.09-1.56-5.02,2.07-.12,3.93,.1,5.45,1.6,1.75,1.73,3.57,3.39,5.25,5.17,2.72,2.87,3.73,6.21,2.75,10.16-.24,.96-.03,2.23,.43,3.13,.57,1.11,1.63,1.96,2.46,2.94,.75,.87,1.65,1.05,2.71,.67,2.51-.91,5.07-1.69,7.51-2.76,1.1-.48,2.11-1.39,2.87-2.34,1.84-2.31,3.46-4.8,5.26-7.15,8.99-11.76,18.04-23.46,26.98-35.25,2.62-3.46,4.95-7.14,7.41-10.71Zm182.75,32.89c.11,2.28,.23,4.12,.29,5.95,.19,5.75,.41,11.52-.87,17.18-1.35,5.99-4.4,10.69-10.84,12.09-4.88,1.06-9.25-.48-13.26-3.29-.53-.37-1.38-.46-2.05-.4-1.47,.14-1.9,1.35-2.25,2.57-1.36,4.7-2.8,9.37-4.08,14.09-.48,1.77-1.52,2.75-3.61,3.38-.26-1.42-.78-2.81-.71-4.16,.11-2.1,.62-4.17,.96-6.26,1-6.16,2.2-12.26,4.65-18.05,.29-.67,.25-1.5,.29-2.26,.12-2.43-.14-4.94,.37-7.29,1.65-7.64,6.55-12.75,13.4-16.17,.57-.29,1.27-.63,1.55-1.14,1.41-2.57,.48-7.15-1.76-9.12-1.35-1.2-2.57-1.23-4.27-.37-1.78,.9-3.61,1.75-5.49,2.43-5.03,1.84-10.3,1.92-15.54,1.61-8.45-.49-16.22,1.73-23.6,5.58-.84,.44-1.64,1.18-2.15,1.97-4.3,6.63-7.52,13.8-10.3,21.18-.13,.33-.2,.68-.42,1.46,4.43-2.26,8.6-3.81,13.34-1.31-.74,.65-1.35,1.19-1.97,1.72-1.74,1.49-3.49,2.97-5.22,4.47-3.57,3.09-5.05,6.93-4.39,11.65,.33,2.37,.53,4.78,.55,7.17,.02,4.22,1.44,7.87,4.14,11.03,3.91,4.57,8.64,7.07,14.9,5.95,2.29-.41,4.68-.51,7.01-.4,1.09,.05,2.39,.68,3.15,1.47,1.11,1.15,2.06,1.3,3.38,.61,3.17-1.63,4.75-.89,5.56,2.56,.09,.38,.1,.78,.22,1.15,.43,1.34,1.34,2.04,2.78,1.87,2.65-.31,5.32-.56,7.95-1.01,5.36-.92,9.54-3.48,12.58-8.23,1.77-2.76,4.28-5.19,6.89-7.21,2.32-1.8,4.26-3.72,5.61-6.27,1.04-1.97,2.23-3.89,2.99-5.97,2.22-6.05,4.39-12.12,6.34-18.26,1.44-4.53,4.07-7.41,8.95-8.06,.84-.11,1.8-.75,2.32-1.44,1.53-2.02,2.2-4.36,.98-6.73-1.41-2.74-3.48-5.26-6.6-5.65-3.79-.47-7.68-.11-11.78-.11Zm-81.06,3.65s-.16-.05-.26-.02c-12.86,3.29-25.18,2.37-36.7-4.75-4.01-2.48-8.45-3.07-12.9-2.1-8.31,1.81-16.53,4.02-24.8,6-1.07,.26-1.6,.75-1.93,1.77-2.67,8.27-5.51,16.49-8.03,24.81-1.51,5-2.54,10.15-3.8,15.3,2.31,.25,4.37,.35,6.39,.73,4.32,.81,8.57,1.96,12.91,2.61,5.63,.83,11.76-1.43,14.01-7.27,1.2-3.11,2.16-6.32,3.53-9.36,1.71-3.82,1.13-7.34-.71-10.86-.79-1.52-1.54-3.05-2.33-4.62,4.64-.85,8.14,1.91,8.15,6.33,0,1.16-.19,2.33-.33,3.49-.67,5.29-1.89,10.52-1.19,15.94,.81,6.29,3.58,10.94,9.91,12.92,2.28,.71,4.65,1.22,6.84,2.13,9.29,3.86,20.11-7.96,17.05-16.01-1.54-4.04-2.64-8.24-3.97-12.36-.89-2.75-.49-3.66,2.16-4.8,2.31-1,4.7-1.24,7.2-1.1,.6,.03,1.61-.38,1.8-.85,2.39-5.94,4.67-11.93,6.98-17.92Zm-60.15-39.91c1.09,.24,2.04,.54,3.01,.64,4.5,.44,9,.84,13.5,1.23,3.18,.28,6.28,.21,9.36-1.02,4.18-1.66,8.49-2.99,12.76-4.43,4.03-1.36,8.09-1.95,12.31-.79,6.47,1.78,14.11,7.73,12.32,17.04-1.31,6.79-5.15,11.27-11.88,12.82-5.39,1.24-10.63,.47-15.84-.93-5.6-1.5-11.2-2.94-17.08-2.85-4.02,.06-8.05,.06-12.07,0-1.2-.02-2.03,.4-2.99,1.11-1.86,1.37-3.83,2.73-5.96,3.57-2.51,.98-5.26,1.38-7.89,2.08-.54,.15-1.32,.4-1.49,.81-1.25,2.95-2.38,5.96-3.62,9.13,.68-.12,1.11-.18,1.52-.28,6.79-1.71,13.6-3.37,20.37-5.17,6.85-1.82,13.09-1.07,19.38,2.63,10.54,6.2,21.98,6.57,33.66,3.64,1.23-.31,1.98-.97,2.57-2.11,4.46-8.54,10.09-16.19,17.54-22.41,1.13-.94,2.28-1.86,3.45-2.81-4.39-3.31-7.09-7.42-7.75-12.77-.77-6.18-2.27-12.06-7.01-16.56-.08-.08-.13-.18-.19-.27-2.44-3.94-5.94-6.52-10.24-8.11-.65-.24-1.38-.58-1.81-1.09-5.84-7.04-11.68-14.08-15.84-22.33-1.8-3.57-3.81-7.05-6.02-10.38-2.14-3.23-4.74-6.17-4.58-10.44-1.33,2.77-2.59,5.5-3.61,8.31-.52,1.42-.82,2.99-.88,4.51-.13,3.46-.05,6.92-.08,10.39,0,.49-.14,.97-.22,1.46l-.52,.1c-.91-1.76-1.81-3.51-2.87-5.56-.61,1.44-.97,2.56-1.52,3.57-2.14,3.91-1.17,7.7,.52,11.37,1.44,3.13,4.38,4.5,7.81,4.13,1.31-.14,2.71-.28,3.96,.03,2.42,.59,4.8,1.41,7.14,2.29,3.8,1.43,7.05,3.63,9.06,7.28,1.3,2.36,1.75,4.85,.41,7.34-1.69,3.16-4.68,4.28-8,4.76-5.45,.79-10.91,1.57-16.37,2.3-2.63,.35-5.31,1.02-7.9,.78-4.18-.39-8.16-1.74-11.44-4.86-1.66,3.96-3.27,7.8-4.97,11.88Zm-36.16-6.29c-.55-.2-.85-.36-1.17-.41-5.77-.92-11.55-1.8-17.32-2.74-5.11-.83-9.37-3.09-11.75-7.88-3.47-6.98-6.89-13.99-10.1-21.09-1.77-3.93-1.39-7.95,.84-11.69,.79-1.33,1.91-2.13,3.6-1.86,4.24,.67,9.49,5.48,10.58,9.72,.26,1.02,.54,2.05,.95,3.01,.81,1.85,2.06,2.52,4.04,2.07,3.64-.83,7.09-2.28,9.74-4.91,4.61-4.57,10.14-6.49,16.47-6.59,1.82-.03,3.63,0,5.82,0-.52-4.64-1.01-9.01-1.49-13.38l-.67-.36c-4.56,2.02-9.26,3.79-13.65,6.13-6.58,3.5-13.65,4.71-20.85,4.33-5.47-.29-8.92-4.23-11.1-9.06-1.22-2.7-1.06-5.44,.62-7.97,1.17-1.76,2.35-3.53,3.61-5.23,2.11-2.86,1.7-4.75-1.31-6.58-1.36-.82-2.77-1.78-3.71-3.02-4.45-5.88-6.78-12.63-7.24-19.95-.15-2.31,.47-4.66,.74-6.98-2.78,2.77-4.45,5.98-4.63,10.12-.33,7.52-.97,15.02-1.54,22.53-.22,2.88,.51,5.12,3.3,6.51,.75,.38,1.41,1.29,1.73,2.11,1.5,3.83,3,7.67,4.21,11.6,.55,1.81,.71,3.84,.55,5.73-.27,3.19-2.52,5.2-4.9,7.06-3.73,2.9-6.04,6.54-5.55,11.5,.25,2.55,.51,5.1,.86,7.64,.92,6.68,2.1,13.31,1.85,20.11-.28,7.63-7.31,13.54-14.81,12.18-1.75-.32-3.46-.83-5.2-1.2-3.79-.8-9.9,1.97-11.39,5.19-.91,1.97-1.76,3.98-2.61,5.98-.84,1.97,.14,6.04,1.97,7.45-1.94,.88-3.74,1.7-5.74,2.6l-.27-2.14c-4.32,6.92-8.52,13.66-12.8,20.51,2.32,.38,4.06,1.44,5.09,3.25,3.03,5.37,5.9,10.82,7.39,16.94,3.18,.28,4.38-1.12,3.37-4.19-.29-.9-.74-1.74-1.08-2.62-2.01-5.24-4.14-10.44-5.95-15.75-1.61-4.71-.47-8.93,3.3-12.28,3.93-3.48,7.9-6.92,11.9-10.32,2.09-1.78,4.53-2.68,7.3-2.02,3.89,.93,7.79,1.85,11.63,2.98,3.78,1.12,5.71,4.04,5.87,8,.14,3.46-1.32,6.51-2.22,9.7-.18,.65-.32,1.32-.55,2.25,.64-.21,.96-.26,1.22-.41,2.64-1.57,5.25-3.17,7.9-4.72,1.14-.67,1.54-1.6,1.19-2.82-.57-1.97-1.04-4-1.86-5.88-3.39-7.82-.59-14.4,4.18-20.42,3.11-3.93,7.66-4.64,12.44-4.29,2.44,.18,4.89,.25,7.33,.24,4.68,0,9.36-.08,14.04-.17,.43,0,1.07-.16,1.25-.46,1.56-2.62,3.03-5.29,4.58-8.05Zm5.61,100.83c1.84,.81,3.36,1.5,4.89,2.15,1.02,.43,2.04,1.1,3.1,1.16,5.42,.35,10.34,2.25,14.99,4.82,2.85,1.57,5.84,2.06,8.98,2.21,1.39,.07,2.78,.19,4.17,.34,1.35,.15,2.23,.89,2.63,2.22,.81,2.67-.04,4.56-2.88,5.44-4.74,1.47-8.82,3.95-12.42,7.31-.9,.83-1.89,1.57-2.89,2.29-3.42,2.45-7.16,3.86-11.45,3.16-1.69-.28-3.36-.68-5.14-1.04,.1,.33,.12,.51,.2,.64,.31,.53,.62,1.06,.97,1.57,4.14,6.19,9.8,10.5,16.72,13.12,19.36,7.33,42.02-.91,47.76-24.39,1.78-7.25,3.36-14.56,5.01-21.84,.53-2.35,.98-4.71,1.46-7.07-1.05,.85-1.74,1.85-2.51,2.78-3.19,3.86-7.2,5.86-12.24,4.71-3.35-.76-6.64-1.83-9.9-2.93-4.77-1.61-7.66-5.07-8.84-9.88-.49-1.98-.9-4.09-.77-6.1,.32-4.88,.86-9.75,1.54-14.6,.69-4.91-1.31-7.69-5.86-7.73,1,2.38,2.02,4.77,3,7.18,.74,1.83,.75,3.66,.05,5.53-1.4,3.75-2.75,7.51-4.11,11.28-1.41,3.91-4.16,6.38-8.09,7.59-4.34,1.33-8.62,.59-12.85-.52-4.31-1.14-8.65-2.03-13.35-2.03-.73,4.22-1.46,8.43-2.18,12.64Zm-69.2,20.77c3.22,.06,6.1-.39,7.97-2.98,1.98-2.75,3.77-5.66,5.46-8.6,1.62-2.82,2.07-5.82,.84-8.99-.34-.87-.29-1.9-.41-2.82,2.14,.27,4.06,.76,5.97,.71,3.46-.08,6.15-2.04,8.76-4.11,1.08-.85,2.27-1.61,3.52-2.16,1.77-.78,2.1-1.17,1.48-3.02-.53-1.58-1.22-3.11-1.71-4.7-.52-1.69,.8-3.54,2.48-3.23,2.61,.49,5.29,1.05,7.06,3.37,1.21,1.58,2.74,2.03,4.71,1.8,3.98-.46,7.95-1.32,11.98-.48,1.91,.39,3.75,1.52,5.3,.73,3.48-12.54,6.86-24.75,10.28-37.07-1.38,1.27-2.87,2.51-4.2,3.9-1.73,1.81-3.75,3.01-6.23,3.26-2.49,.25-5,.31-7.5,.49-5.64,.41-11.05,1.89-16.5,3.3-8.37,2.16-14.57,6.71-18.06,14.74-1.05,2.41-2.83,4.23-5.06,5.65-.75,.48-1.47,1.19-1.91,1.96-4.6,8.15-7.94,16.83-10.57,25.79-1.21,4.1-2.41,8.2-3.66,12.46Zm-57.97-148.28c-.6,7.14-1.53,14.27-.13,21.46,1.1,5.61,2.31,11.17,6.04,15.7,1.82,2.21,2.87,4.66,3.83,7.31,2.39,6.6,6.39,11.56,13.97,12.53,3.32,.43,3.7,.35,5.27-2.51,.32-.59,.65-1.17,.96-1.76,4.6-8.72,8.52-17.66,9.73-27.59,1.54-12.59-5.45-23.15-17.51-26.21-.88-.22-1.79-.35-2.74-.53-.33,5.64-.31,11.09,1.14,16.33,1.73,6.25,3.95,12.37,5.9,18.57,.43,1.36,1.13,2.93,.81,4.17-.4,1.52-1.59,2.96-2.75,4.11-.61,.6-3.01-1.12-3.75-2.53-.16-.29-.29-.6-.43-.9-5.18-10.59-6.06-21.76-4.51-33.26,.3-2.24,.58-4.47,.86-6.7-4.21-.71-12.92,.27-16.69,1.83Zm146.26,60.8c.87-.16,1.4-.25,1.93-.36,3.82-.79,7.92-1.24,10.83-3.97,2.49-2.34,5.13-2.79,8.2-2.64,1.28,.06,2.57-.02,3.85-.04,7-.14,13.88,.58,20.65,2.55,4.87,1.42,9.81,2.31,14.99,1.82,7.63-.73,13.13-6.12,13.57-13.79,.13-2.35,.19-4.67-1.01-6.84-3.46-6.28-11.76-10.21-18.72-8.35-5.89,1.58-11.62,3.75-17.45,5.6-1.52,.48-3.15,1.1-4.69,1.01-6.99-.41-13.97-1.06-21.21-1.65-3.51,8.54-7.18,17.48-10.95,26.66Zm-14.45-17.02c1.57-1.14,3.27-2.23,4.8-3.52,3.29-2.78,6.99-4.78,11.13-5.92,1.1-.3,1.66-.86,2.07-1.88,2.05-5,3.96-10.09,6.33-14.94,1.72-3.52,2.17-6.74,.11-10.16-.28-.47-.39-1.04-.59-1.56-4.17-10.93-6.59-22.08-4.48-33.84,.85-4.75,2.67-9,6.61-12,2.18-1.66,3.52-3.79,4.49-6.3,.76-1.96,1.59-3.93,2.67-5.73,2.2-3.64,5.45-6.16,9.32-7.88,2.91-1.29,5.79-.5,8.66,.28,1.16,.31,2.15,.02,3.03-.91,.55-.59,1.36-.94,2.02-1.43,.38-.28,.93-.59,1.02-.98,.82-3.53,1.58-7.07,2.3-10.62,.08-.41-.13-.88-.26-1.64-1.32,2.12-2.36,3.95-3.55,5.68-3.96,5.77-9.29,8.64-16.44,7.75-2.25-.28-4.4,.17-6.46,1.26-6.16,3.27-10.88,7.77-13.73,14.3-2.49,5.7-6.13,10.62-11.51,14.05-.38,.24-.59,1.1-.53,1.64,.46,4.77,1.04,9.53,1.48,14.3,.09,.94,.34,1.36,1.24,1.63,1.24,.37,2.19,1.34,1.84,2.61-.68,2.49-1.24,5.21-2.65,7.28-2.31,3.38-2.66,7.03-2.52,10.77,.12,3.04,.87,6.05,1.31,9.08,.87,6-2.78,10.83-8.85,11.82-.46,.07-1.08,.27-1.27,.61-1.81,3.24-3.54,6.53-5.09,9.43,2.53,2.29,4.91,4.45,7.5,6.79Zm-51.18-54.25c.6,2,.95,3.93,1.75,5.65,2.98,6.46,6.12,12.85,9.17,19.29,1.91,4.03,4.96,6.81,9.3,7.72,5.82,1.21,11.71,2.14,17.59,3.03,3.61,.55,3.63,.42,5.23-3.07,.14-.3,.28-.61,.41-.91,4.89-10.93,8.21-22.26,8.86-34.29,.07-1.4-.13-2.08-1.72-1.95-2.39,.2-4.8,.12-7.18,.39-4.18,.48-8.07,1.88-11.11,4.89-2.77,2.73-6.04,4.52-9.64,5.83-4.15,1.51-6.57,.41-7.39-3.91-1.02-5.34-4.74-7.96-9.14-10.02-2.02-.95-3.29-.55-4.24,1.5-.85,1.83-1.25,3.85-1.88,5.86Zm-246.08,41.19c-.27,.73-.4,1.1-.55,1.46-1.44,3.68-.95,5.02,2.55,6.88,.3,.16,.59,.32,.89,.46,2.12,.97,3.61,2.5,4.57,4.65,2.51,5.64,5.16,11.22,7.63,16.88,2.71,6.2,6.36,11.72,11.08,16.59,3.08,3.18,5.86,2.91,9.1,.69,2.53-1.73,3.62-4.22,1.67-7.21-.64-.98-1.29-1.99-2.13-2.78-5.87-5.61-6.74-12.58-5.38-20.05,1.12-6.17,3.92-11.68,7.39-16.85,1.5-2.23,2.42-4.61,2.45-7.32,.06-4.88-2.24-8.76-5.21-12.34-1.54-1.86-2.47-1.82-3.97,.15-1.86,2.44-3.61,4.96-5.47,7.4-1.62,2.14-2.25,4.43-1.47,7.05,.14,.48,.32,.98,.31,1.46-.01,.44-.26,.88-.4,1.32-.38-.25-.88-.41-1.1-.76-.91-1.45-1.74-2.96-2.64-4.5-4.7,.78-9.3,1.57-13.91,2.31-3.3,.53-6.24,1.75-8.89,4.49h3.49Zm353.29-91.93c-2.24,3.38-5.17,2.38-8.07,1.64-2.66-.68-5.04,.06-7.34,1.43-4.45,2.65-7.56,6.39-9.17,11.31-1.02,3.11-2.61,5.72-5.3,7.7-2.3,1.69-3.78,4.07-4.79,6.73-1.52,3.97-1.8,8.15-1.98,12.32-.29,6.76,1.1,13.3,3.18,19.68,1.25,3.84,2.67,7.62,4.15,11.81,.45-.96,.71-1.49,.94-2.03,6.14-14.72,12.42-29.38,18.37-44.18,3-7.45,7.28-14.45,8.4-22.61,1.09,.13,1.89-1.36,1.61-3.79Zm-232.05,82.54c2.59,2.43,5.42,4.05,8.51,5.25,3.86,1.5,6.69,4.09,8.07,7.98,2,5.68,5.76,9.97,10.14,13.89,2.74,2.45,5.29,5.11,7.93,7.66,.52,.5,1.06,1.01,1.67,1.37,1.43,.85,2.98,1.13,4.4,.08,1.38-1.02,1.72-2.66,1.01-4.07-1.22-2.44-1.38-4.84-.63-7.38,.03-.1,0-.22,.01-.33,.29-4-1.04-7.56-2.95-10.96-1.6-2.85-2.49-5.85-1.78-9.14,.46-2.11,.92-4.23,1.52-6.31,1.56-5.42,1.16-10.44-2.64-14.93-.8-.94-1.44-1.14-2.53-.58-7.01,3.57-14.08,7.02-21.04,10.68-3.94,2.07-7.71,4.47-11.7,6.8Zm182.99-54.06c1.08-.83,2.37-1.69,3.52-2.71,4.05-3.59,6.34-8.37,8.92-13.01,4.8-8.67,11.44-14.79,22.29-14.07,.28,.02,.56,0,.84,0,3.51,.01,6.73-1.09,9.05-3.65,2.37-2.62,4.24-5.68,6.33-8.55,.35-.49,.67-1,1.03-1.48,.22-.3,.71-.59,.69-.85-.17-2.11-.36-4.21-.71-6.3-.07-.4-.93-1.04-1.29-.97-2.05,.43-4.22,.74-6.04,1.67-3.55,1.82-7.22,3.16-11.11,3.99-5.49,1.16-10.94,2.38-16.1,4.8-2.52,1.18-5.42,1.65-8.2,2.1-1.3,.21-1.93,.72-2.48,1.77-4.05,7.63-8.14,15.24-12.18,22.88-.19,.37-.22,.97-.07,1.36,1.77,4.26,3.59,8.49,5.52,13.02Zm180.66,94.48c-2.16-2.92-4.18-5.44-5.94-8.13-.65-.98-.88-2.35-.96-3.56-.08-1.26,.13-2.58,.45-3.8,1.27-4.83,2.41-9.71,4.03-14.42,1.45-4.2,1.37-8.3,.45-12.49-.38-1.72-1.41-2.97-3.4-3.58-.32,2.94-.55,5.77-.96,8.57-.87,5.95-3.07,11.28-7.65,15.38-2.91,2.61-6.14,4.66-10.2,4.9-1.83,.11-3.26-.44-4.38-2.13-2.43-3.7-4.51-7.54-5.93-11.74-1.53-4.53-3.19-9.02-4.6-13.58-.44-1.43-.5-3.08-.28-4.57,.51-3.46-.3-6.48-2.68-8.94-4.07-4.2-8.95-6.61-14.98-5.89-.77,.09-1.49,.59-2.23,.91,.39,.77,.6,1.74,1.2,2.27,1.33,1.18,2.84,2.16,4.29,3.2,1.22,.88,2.05,1.92,2.3,3.51,.34,2.08,1,4.1,1.43,6.17,1.45,7.05,3.46,14.02,3.11,21.29,14.81,3.04,22.08,13.17,25.34,26.63h21.6Zm-324.56,61.18l-.48-.12c-1.38,2.46-2.77,4.91-4.14,7.37-.08,.14-.09,.33-.08,.49,.33,3.66,.54,7.3,2.85,10.47,1.67,2.29,3.09,4.77,4.53,7.21,1.42,2.41,1.66,4.99,1.1,7.74-.98,4.76,.41,6.68,5.15,8.03,3.47,.99,6.82,2.35,10.27,3.43,2.75,.86,5.5,1.91,8.33,2.22,3.08,.34,6.16-.77,9.3-.98,3.77-.26,7.47-1.66,11.18-2.64,.49-.13,1.05-.63,1.24-1.1,1.15-2.72,2.26-5.46,3.28-8.23,.82-2.22,1.48-4.5,2.3-6.99-1.07,.11-1.84,.15-2.59,.27-6.87,1.01-13.42,3.08-19.82,5.74-6.38,2.66-12.54,1.05-17.06-4.23-2.11-2.46-4.19-4.94-6.18-7.5-4.85-6.25-9.64-12.56-9.17-21.16Zm48.35,44.02c-.64,.11-1.07,.15-1.49,.25-3.51,.86-7,1.82-10.53,2.57-1.25,.26-2.76-.38-3.91,.05-3.95,1.49-7.63,.71-11.39-.66-4.43-1.61-8.91-3.1-13.41-4.54-3.9-1.25-5.64-3.77-4.71-7.76,.85-3.64,.11-6.82-1.85-9.86-.27-.42-.5-.87-.78-1.28-2.82-4.12-5.87-8.14-5.76-13.57-2.82,5.05-5.11,10.23-6.61,15.72-1.57,5.74-1.91,3.7,1.88,8.53,2.51,3.19,5.36,6.23,7.28,9.76,3.56,6.55,8.96,10.69,15.57,13.54,2.28,.98,4.7,1.22,7.21,.95,1.82-.2,3.7-.22,5.52-.02,3.71,.39,7.39,.99,11.09,1.46,.54,.07,1.33,.07,1.65-.25,4.24-4.28,7.52-9.23,10.22-14.87Zm132.1-175.81c-.12,.23-.32,.54-.46,.88-3.77,9-7.53,18-11.34,26.98-.4,.94-.34,1.58,.46,2.17,4.3,3.15,9.01,4.76,14.39,3.9,5.38-.85,10.77-1.68,16.15-2.55,2.41-.39,4.92-.56,7.18-1.38,4.5-1.63,5.87-5.88,3.53-10.07-1.52-2.73-3.78-4.73-6.62-5.92-2.81-1.17-5.73-2.14-8.64-3.03-1.08-.33-2.37-.49-3.44-.21-4.25,1.09-8.2-1.75-9.51-5.04-.73-1.83-1.14-3.79-1.71-5.71Zm197.74,33.17c1.06-1.8,.91-3.38-.11-4.88-.59-.87-1.34-1.65-1.93-2.52-2.11-3.13-4.33-6.2-6.23-9.46-1.08-1.84-2.22-2.74-4.46-2.75-4.73-.02-9.54,.09-14.17-.69-8.54-1.44-16.06-4.89-20.79-12.8-1.31-2.18-3.48-3.54-6.02-4.24-2.93-.8-5.74-1.92-7.78-4.3-1.41-1.64-3.16-2.18-5.22-2.05-2.08,.14-3.25,1.87-2.32,3.77,.67,1.38,1.49,2.85,2.63,3.81,5.39,4.51,10.86,8.93,16.42,13.24,3.11,2.41,6.76,3.53,10.72,3.73,5.18,.26,10.36,.6,15.54,.99,3.57,.26,6.77,1.43,9.04,4.38,1.7,2.21,3.42,4.41,4.99,6.71,1.42,2.07,1.93,4.41,1.08,6.84-2.34,6.71-4.8,13.37-7.13,20.08-1.44,4.14-2.72,8.34-4.22,12.99,2.84-1,5.1-1.78,7.34-2.61,.35-.13,.66-.41,.93-.67,1.44-1.4,2.8-2.87,4.29-4.21,3.17-2.83,5.5-6.18,6.34-10.37,.37-1.85,1.07-4.21-.68-5.52-3.89-2.93-3.21-6.84-3.08-10.98,1.7,.53,3.21,1.01,4.82,1.51Zm-331.98,160.17c3.79,1.52,7.55,1.79,11.36,1.89,1.92,.05,3.3-.6,4.43-2.11,.59-.78,1.35-1.47,2.14-2.06,2.95-2.2,5.98-4.3,8.92-6.51,1.09-.81,2.14-1.14,3.53-1.03,5.81,.44,9.29-1.87,11.04-7.23,1.93-5.91-.02-10.94-3.68-15.52-1.08-1.35-2.62-1.26-4.15-.77-.57,.18-1.23,.48-1.74,.34-2.45-.68-4.49-.06-5.9,1.96-2.53,3.62-6.07,5.62-10.18,6.84-.64,.19-1.34,.35-1.85,.73-.7,.52-1.46,1.13-1.85,1.88-2.72,5.3-5.26,10.68-8.05,15.94-1.05,1.99-2.61,3.7-4.02,5.65Zm-109.17-146.67c-3.05,2.44-5.81,4.6-8.52,6.84-.37,.31-.56,.93-.68,1.44-2.86,12.7-6.69,25.06-12.65,36.68-.9,1.76-2.22,3.29-3.32,4.95-1.53,2.31-3.03,4.65-4.67,7.17,2.22,.57,4.25,1.17,6.3,1.61,7.06,1.54,14.52-1.24,18.05-6.89,1.83-2.92,3.41-6.01,4.89-9.12,.42-.88,.33-2.17,.06-3.17-1.08-3.96-2.48-7.84-3.45-11.82-.78-3.18-1.44-6.5-.42-9.74,.57-1.83,1.72-3.47,2.56-5.22,1.88-3.91,2.53-8,1.85-12.74Zm49.31,116.15c-.2,2.08-.5,4.16-.58,6.24-.32,8.69,1.19,16.96,6.47,24.1,5.43,7.35,12.72,11.11,22,10.22,8.85-.84,15.99-5.24,22.32-11.19,.05-.05,0-.2-.03-.61-3.46-.43-6.96-1.04-10.5-1.27-3.51-.23-7.18,.54-10.53-.23-7.99-1.83-14.42-6.37-18.38-13.64-2.8-5.14-6.87-9.16-10.78-13.62Zm-5.09-10.34c.82-2.13,1.46-3.91,2.18-5.65,4.83-11.64,11.32-22.36,18.25-32.83,1.27-1.93,1.04-3.44,0-5.21-1.18-2-2.29-4.04-3.35-6.1-1.03-2-2.69-2.78-4.84-1.94-1.23,.48-2.53,1.04-3.5,1.9-2.16,1.92-4,4.19-6.19,6.06-6.48,5.55-9.25,13.04-11.28,20.95-.07,.29,0,.61,0,.93,3.79-.51,4.23-.07,4.37,3.69,.09,2.33,.3,4.67,.67,6.98,.61,3.83,1.8,7.5,3.71,11.24Zm-86.01-78.29c4.24-4.23,8.31-8.28,12.35-12.36,.27-.27,.41-.78,.4-1.17-.12-6.85-3.09-12.46-7.82-17.17-2.39-2.38-5.38-4.4-8.75-4.51-5.87-.2-11.01,2-15.08,6.38-2.69,2.89-2.51,6.1,.43,8.79,1.07,.98,2.09,2.01,3.06,3.08,2.48,2.72,4.91,5.5,7.39,8.22,.63,.7,1.29,1.51,2.11,1.87,2.03,.9,3.2,2.52,4.28,4.3,.49,.81,1,1.6,1.62,2.58Zm237.01,63.13c-.12,1.05-.24,1.94-.31,2.82-.59,7.73-.48,15.38,2.45,22.74,.68,1.71,1.26,3.37,3.64,3.06,.52-.07,1.09,.18,1.62,.34,4.25,1.27,8.18,.45,11.76-1.99,1.89-1.28,3.64-2.77,5.38-4.24,2.97-2.51,6.21-4.5,9.95-5.66,.84-.26,1.69-.6,2.45-1.03,1.51-.85,1.35-2.33,1.13-3.71-.21-1.29-1.22-1.81-2.41-1.93-1.55-.16-3.11-.33-4.67-.34-2.72-.02-5.25-.58-7.69-1.88-4.03-2.15-8.15-4.26-12.77-4.66-2.83-.24-5.23-1.32-7.71-2.42-.9-.4-1.84-.72-2.83-1.1Zm-5.7,25.93c-2.7-9-2.43-17.92-1.51-26.95-5.97-.55-11.74-1.08-17.5-1.6-.26-.02-.54,.09-.8,.16-5.82,1.6-10.8,4.96-15.98,7.87-.73,.41-1.45,1.56-1.48,2.4-.14,3.69,3.33,8.56,6.94,9.56,2.33,.65,4.8,.88,7.23,1.05,3.73,.26,7.44,.41,10.92,2.03,3.93,1.83,7.9,3.56,12.18,5.48Zm-11.84-95.7c1.81,1.56,3.95,1.34,6.11,.89,3.17-.66,4.22-.1,5.4,2.89,.37,.93,.72,1.87,1.2,2.75,1.59,2.91,3.91,3.88,7,2.64,2.26-.91,4.39-2.15,6.51-3.36,.61-.35,1.21-.99,1.48-1.64,3.64-8.8,7.22-17.63,10.82-26.45,.18-.43,.3-.89,.51-1.53-3.98,1.06-7.39,2.69-10.44,5.1-1.31,1.04-2.62,2.08-4,3.03-2.79,1.94-2.81,1.91-5.07-.66-1.55-1.76-3.15-3.45-5.39-4.13-4.74,6.86-9.42,13.64-14.13,20.46Zm-158.46-43.38c-1.65-1.89-3.09-3.55-4.55-5.2-.79-.9-1.79-1.68-2.37-2.69-7.72-13.51-11.54-28.05-10.86-43.62,.24-5.65-3.26-9.28-5.81-13.61-2.88,3.75-3.3,8.91-8.2,10.75,.81,2.39,1.57,4.63,2.43,7.17,1.17-1.9,2.26-3.56,4.65-3.87-.17,1.63-.4,3.05-.44,4.48-.11,4.11-.27,8.22-.16,12.32,.09,3.25,1.95,6.51-.2,9.71-.03,.04-.01,.11,0,.17,.23,3.26,.46,6.52,.7,9.89,.75-.16,1.34-.25,1.92-.4,2.99-.77,4.01-.26,4.87,2.59,2.02,6.64,7.02,11.37,10.65,17.09,2.44-1.58,4.68-3.02,7.38-4.76Zm75.6,95.22c.26,.46,.58,.89,.78,1.37,.75,1.79,1.9,3.55,2.07,5.39,.26,2.78,.42,5.43,1.75,8.02,.95,1.85-.12,3.25-2.28,3.45-3.46,.32-6.93,1.21-10.42,.02-.55-.19-1.22-.09-1.83-.02-1.88,.22-2.9,1.69-1.99,3.32,.66,1.18,1.75,2.46,2.95,2.93,2.94,1.14,6.03,1.91,9.1,2.68,3.06,.76,4.85-.34,5.12-3.51,.44-5.1,3.19-8.44,7.46-10.75,7.69-4.17,15.43-8.25,23.12-12.4,.59-.32,1.13-.87,1.48-1.44,3.2-5.23,6.35-10.5,9.51-15.75,.22-.36,.43-.72,.77-1.29-2.46,.86-4.78,1.48-6.93,2.45-2.4,1.09-3.92,.21-5.51-1.54-1.82-1.99-2.74-3.95-2.03-6.77,.76-3.04-.16-5.87-2.37-8.16-1.78-1.85-3.65-3.61-5.46-5.43-1.16-1.16-2.5-1.55-4.45-1.14,.6,1.24,1,2.46,1.72,3.45,1.84,2.52,3.92,4.87,5.72,7.42,2.37,3.37,3.88,7.13,4.23,11.28,.66,7.79-2.94,13.25-9.47,17.05-2.26,1.31-4.55,2.57-6.82,3.85-2.09,1.17-4.32,1.67-6.57,.69-3.33-1.45-6.9-2.51-9.66-5.16Zm205.54-45.91c.75-.35,1.5-.71,2.26-1.05,6.96-3.14,14.14-4.81,21.88-4.24,7.21,.53,14.24-.44,20.58-4.35,1.57-.96,3.2-.48,4.28,.69,1.13,1.22,2.18,2.76,2.6,4.33,.44,1.68,.1,3.57,.1,5.37,1.98-.63,4.03-1.28,6.14-1.95-1.28-5.36-3.18-10.25-6.78-14.33-3.41-3.86-7.7-5.96-12.82-6.47-1.11-.11-1.81,.17-2.52,1.1-2.65,3.46-6.17,5.01-10.55,4.33-4.89-.76-9.21,.11-13.14,3.46-4.57,3.89-8.83,7.97-12.02,13.12Zm158.62-22.35c-.25,.18-.4,.24-.5,.36-8.31,9.72-18.74,16.23-30.76,20.37-.63,.22-1.3,1.03-1.47,1.7-.9,3.55-1.69,7.14-2.43,10.73-.88,4.24,2.12,7.36,6.5,6.87,1.39-.15,2.77-.29,4.16-.4,6.01-.48,10.31-3.38,13.01-8.83,1.26-2.55,.9-4.69-.73-6.82-.71-.93-1.5-1.82-2.08-2.82-1.26-2.17-1.02-4.19,.77-5.93,1.03-1,2.25-1.82,3.45-2.62,3.27-2.17,6.38-4.51,8.79-7.67,1.1-1.44,1.41-3.05,1.28-4.92Zm-317.14,64.27l.53,.44c2.23-1.4,3.61-3.5,4.69-5.86,2.94-6.43,7.8-10.87,14.47-13.06,7.83-2.57,15.78-4.7,24.16-4.57,4.07,.06,7.65-1.11,10.36-4.45,1-1.23,2.46-2.08,3.71-3.11,.34-.28,.86-.49,1-.85,1.25-3.18,2.43-6.38,3.75-9.9-2.39,1.23-4.35,2.42-6.45,3.28-3.85,1.58-6.73,.42-8.58-3.3-.54-1.09-.92-2.27-1.41-3.38-.49-1.11-1.33-1.9-2.6-1.67-2.71,.47-5.4,1.27-8.13-.38,1.21,2.84,2.56,5.39,3.83,7.98,.6,1.24,1.32,2.51,1.51,3.84,1.02,7.22-6.34,13.95-13.47,12.44-1.74-.37-3.47-1-5.22-1.07-3.88-.15-6.92,1.48-9.14,4.77-4.27,6.32-8.66,12.57-13,18.84Zm124.36-173.96c2.02-2.64,3.96-5.32,4.36-8.56,.39-3.14,.3-6.34,.31-9.51,0-1.06,.35-1.72,1.16-2.38,2.33-1.91,4.73-3.78,6.82-5.93,6.36-6.54,14.22-8.57,23.02-8.15,6.88,.32,13.4,1.88,19.64,4.84,4.13,1.96,7.11,.47,8.22-3.95,.35-1.37,.68-3.01,.25-4.26-1.5-4.34-3.33-8.56-5.07-12.81-.25-.6-.72-1.11-1.09-1.67,.23,1.15,.64,2.18,1.23,3.11,1.28,2.02,1.64,4.19,1.54,6.55-.3,7.22-7.59,11.43-13.88,7.94-2.14-1.19-4.39-1.46-6.78-1.18-1.38,.16-2.78,.25-4.16,.18-2.39-.12-4.77-.43-7.17-.58-3.93-.25-7.78,.11-11.5,1.57-1.44,.57-2.99,1.23-4.48,1.23-3.79,0-6.81,1.88-9.97,3.48-2.17,1.1-4.32,2.22-6.3,3.24,1.12,2.31,2.26,4.36,3.09,6.53,.52,1.35,.88,2.51,2.96,2.11-2.43,2.37-1.24,5.12-1.28,7.72-.01,1-.02,2.01-.12,3.01-.24,2.49-.54,4.98-.81,7.47ZM247.03,116.4c-2.14-5.29-3.49-10.65-8.29-14.06-1.94-1.38-3.62-2.99-3.43-5.72,.03-.39-.39-.93-.75-1.21-1.37-1.08-3.11-1.85-4.13-3.18-1.92-2.52-4.7-3.67-7.21-5.25-.34-.21-.76-.29-1.58-.59,.16,1.53,.27,2.7,.4,3.88,.18,1.59,.73,3.25,.47,4.77-.49,2.8-1.45,5.51-2.2,8.21,1.99-.34,4.17,.1,6.09,1.55,1.84,1.39,3.02,3.25,3.58,5.48,.52,2.05,1.75,3.16,3.9,3.53,4.26,.73,8.49,1.66,13.14,2.59Zm233.17-41.23l.39,.46c3.76-.2,7.23-1.48,10.72-2.81,2.99-1.15,6.05-2.22,9.16-2.96,5.74-1.35,11.51-2.45,16.71-5.5,1.29-.75,2.95-.87,4.45-1.25,.57-.14,1.15-.21,2.05-.37-.96-1.58-1.77-2.9-2.57-4.22-.48-.8-1.08-.89-1.98-.64-1.22,.34-2.54,.7-3.76,.57-2.86-.29-5.51,.38-8.2,1.15-6.19,1.77-12.41,3.44-18.61,5.17-.35,.1-.76,.28-.97,.56-2.49,3.26-4.95,6.55-7.41,9.84Zm-228.2,77c-2.43,1.11-3.9,2.92-5.2,4.96-4.74,7.43-6.4,15.6-5.75,24.28,.12,1.6,.73,3.27,1.49,4.71,1.03,1.94,2.44,3.67,3.68,5.5,3.06-2.32,3.08-2.32,3.41-4.32,1.87-11.09,2.72-22.26,2.49-33.51,0-.48-.07-.96-.12-1.61Zm81.99-26.85c-.52,.82-.81,1.25-1.08,1.69-.8,1.34-1.51,2.73-2.39,4.01-1.91,2.77-4.41,2.94-6.65,.41-.96-1.08-1.73-2.32-2.58-3.49-.42-.59-.77-1.23-1.23-1.79-1.59-1.94-3.31-2.28-5.2-.66-1.63,1.4-3.07,3.07-4.38,4.78-1.84,2.38-1.6,3.43,1.05,4.87,2.43,1.32,4.28,3.16,5.7,5.5,.8,1.32,1.66,2.61,2.47,3.89,3.22-1.06,6.28-2.36,9.47-3.02,3.08-.64,4.76-1.78,4.63-5.22-.13-3.46,1.32-6.9,.18-10.98Zm89.68,105.78l.24,.42c3.28-2.09,6.56-1.1,9.88-.3,1.28,.31,2.68,.47,3.97,.3,4.99-.66,7.67-4.04,9.11-8.47,.45-1.38,.47-3.23-.09-4.53-1.49-3.48-3.4-6.77-5.17-10.21-6.01,7.64-11.97,15.21-17.93,22.79Zm16.69-140.19c1.47-1.18,1.45-1.19,1.96-3.3,.79-3.33,2.69-5.72,5.99-6.81,7.29-2.4,14.58-4.79,22.36-5.03,.46-.01,1.16-.13,1.35-.43,1.74-2.88,3.4-5.8,5.1-8.76-.26-.05-.37-.11-.47-.1-7.56,1.26-15.16,2.36-22.67,3.87-5.17,1.04-9.01,4.04-10.53,9.37-1.09,3.81-2.1,7.64-3.08,11.2Zm184.27,127.86c-1.89,.73-3.57,1.29-5.17,2.03-.53,.24-1.01,.86-1.25,1.41-2.58,5.91-5.12,11.84-7.6,17.79-.22,.53-.13,1.47,.22,1.89,2.06,2.5,4.64,4.13,8.02,3.46,3.15-.62,4.7-2.97,5.54-5.88,.11-.37,.22-.75,.29-1.13,1.35-6.44,.2-12.86-.05-19.57Zm-162.81-123.99c3.23-6.08,6.42-12.07,9.71-18.26-.9,0-1.4-.04-1.9,0-7.54,.66-14.75,2.71-21.8,5.33-3.03,1.13-4.46,3.66-4.85,6.86,2.23-.74,4.39-1.41,5.27-4.01,.32,.43,.54,.59,.56,.77,.13,1.33,.94,1.58,2.15,1.96,2.19,.68,4.36,1.68,6.28,2.95,1.64,1.09,2.9,2.74,4.58,4.39Zm-186.06,74.01l.36-.32c0-.11,.03-.24-.02-.31-3.98-5.87-8.86-11.16-11.08-18.16-.7-2.2-2.76-.6-4.24-.46-1.43,.13-1.08,1.12-1.1,1.97-.16,6.46-.24,12.93-.51,19.39-.15,3.57-.62,7.13-.94,10.69,1.67-1.75,5.12-1.92,4.64-5.39-.02-.13,.13-.31,.24-.43,2.16-2.32,1.99-5.05,1.43-7.86-.47-2.37-.43-4.64,1.15-6.67,.83-1.06,1.85-1.33,2.9-.52,1,.77,1.91,1.68,2.74,2.63,1.53,1.78,2.97,3.63,4.45,5.45Zm73.22-6.12c.21,8.41,1.87,16.4,5.72,23.87,.45,.87,1.38,1.53,2.18,2.17,.23,.19,.95,.13,1.16-.09,1.17-1.2,2.39-2.4,1.74-4.36-.46-1.37-.78-2.78-1.29-4.13-3.98-10.62-7.63-21.29-6.58-32.92,.03-.29-.38-.62-.59-.93-.22,.26-.59,.5-.62,.79-.6,5.2-1.15,10.4-1.71,15.59Zm-40.72,162.15c.01-.15,.06-.32,.03-.47-.63-3.89-1.27-7.78-1.92-11.66-.08-.48-.27-.95-.43-1.41-.45-1.3-1.04-2.57-1.36-3.91-.75-3.17-3.43-4.16-5.98-2.09-2.65,2.16-3.94,5.08-4.26,8.4-.19,1.95-.2,4.11,1.82,5.18,3.96,2.1,8.04,3.98,12.1,5.96ZM519.85,57.12c-2.59-2.37-5.08-3.72-7.98-4.06-9.67-1.13-16.2,4.49-22.97,10.73,.83-.07,1.16-.04,1.46-.13,5.44-1.56,10.89-3.12,16.32-4.71,2.78-.81,5.5-1.64,8.5-1.25,1.37,.18,2.82-.33,4.67-.58Zm-172.64,169.35c-3.87-.49-7.25,.26-10.54,1.58-3.79,1.53-4.53,3.95-2.14,7.25,.76,1.05,.75,1.68-.42,2.37-2.04,1.2-2.16,1.92-.92,3.86,1.88,2.95,2.37,2.97,4.21,.13,3.23-4.99,6.45-9.99,9.81-15.2Zm-117.38-1.34c-2.48-1.76-4.16-1.44-5.75,1-.54,.83-1.15,1.64-1.81,2.38-2.36,2.64-1.97,4.85,1.16,6.63,1.86,1.06,3.68,2.2,5.8,3.47,2.29-3.6,4.71-7.43,7.27-11.46h-7.22l.55-2.01Zm366.78,43.02c.61-.9,1.33-1.61,1.61-2.46,1.45-4.54,2.88-9.09,4.12-13.7,.53-1.99,1.16-3.65,3.24-3.94-1.51-2.37-2.97-4.65-4.46-7-.31,.79-.75,1.59-.94,2.43-1.49,6.59-2.94,13.19-4.38,19.79-.33,1.52-.71,3.08,.82,4.86ZM449.79,106.05c2.87-.25,4.85-2.22,6.74-4.3,.17-.19,.06-.88-.16-1.13-1.29-1.53-2.51-3.16-4.02-4.45-2.57-2.19-5.61-1.63-7.38,1.26-1.03,1.69-1,3.54-.02,5.27,1.03,1.81,2.39,3.24,4.85,3.36Zm88.41,153.83c1.8-6.5,3.53-12.76,5.28-19.07-2.89-.24-5.64-.36-8.27,.94-1.92,.95-2.2,1.48-1.48,3.55,1.06,3.1,2.2,6.17,3.19,9.29,.54,1.68,.84,3.43,1.28,5.28Zm-327.1-19.81l-.7,.04c-2.09,3.68-4.18,7.36-6.39,11.27,2.79,.79,5.06,1.5,7.37,2.05,.64,.15,1.48-.03,2.07-.34,1.67-.88,3.28-5.02,2.33-6.64-1.34-2.26-3.1-4.26-4.67-6.38Zm-9.03-1.17c-6.45-1.67-12.75-.6-19.04,1.09,.4,.28,.8,.4,1.21,.45,4.27,.55,7.94,2.01,10.08,6.13,.5,.97,1.52,1.67,2.37,2.56,1.9-3.61,3.64-6.93,5.38-10.23Zm73.16-69.47c-1.3-1.59-2.54-3.15-3.83-4.67-.89-1.06-1.74-2.19-2.79-3.06-1.29-1.07-2.13-.93-2.67,.65-.53,1.57-.87,3.38-.63,4.99,.47,3.18,.79,6.19-1.51,8.86-.22,.25-.11,.78-.19,1.48,4.06-2.89,7.78-5.53,11.61-8.25Zm188.44,4.89c4.99-.47,8.69-4.53,8.43-9.53-.13-2.44-.57-4.86-.9-7.28-.1-.75-.3-1.5-.43-2.13-2.38,6.34-4.74,12.64-7.11,18.95Zm146.06,65.73c2.58-6.02,5.11-11.93,7.77-18.15-7.97,4.26-11.7,13.04-7.77,18.15Zm-24.99-44.52c2.88,0,5.76,.05,8.64-.01,3.09-.07,6.6-2.34,7.45-4.8-5.8,.06-11.06,1.82-16.09,4.81ZM259.05,113.29c-3.01,1.77-3.74,3.7-3.19,6.4,.84,4.09,1.52,8.2,2.25,12.31,.15,.82,.21,1.66,.32,2.48,.11,.8,.22,1.61,.33,2.41l.7-.07c-1.5-7.7-2.19-15.42-.41-23.53Zm275.42-14.66c-.41-.46-.55-.63-.71-.78-.73-.68-1.46-1.37-2.2-2.04-.41-.37-.82-.75-1.26-1.1-1.83-1.46-2.73-1.23-3.54,.9-.85,2.24-.48,2.89,1.9,3,1.82,.09,3.64,.02,5.81,.02Zm-284.46,29.9h-.38c-.42,.83-.78,1.7-1.26,2.49-2.25,3.7-3.24,4.19,2.22,6.87,.13,.07,.3,.06,.67,.12-.42-3.23-.83-6.36-1.24-9.49Zm222.91,15.21c2.02-2.67,2.73-5.31,2.87-8.07,.05-1.14-.92-1.64-2.13-1.42-.24,3.04-.47,6.01-.74,9.49Zm257.13,20.76c1.24-2.27,.68-5.46-1.33-7.85-1.06,2.86-.93,5.5,1.33,7.85Zm-215.01-30.91v-9.18c-.91,1.49-1.56,3.01-2.18,4.55-.09,.23-.16,.58-.05,.77,.65,1.19,1.35,2.35,2.24,3.86Zm-172.72,114.74c2.58-.57,4.69-1.03,6.81-1.5l-.03-.46c-1.44-.62-2.88-1.25-4.36-1.89-.76,1.22-1.44,2.29-2.42,3.85Zm27.5-42.39l.62,.31,2.95-1.33c-.38-1.65-.74-3.17-1.09-4.69l-.49-.13c-.66,1.95-1.32,3.89-1.99,5.84Zm308.95,9.3l-.13-.35-5.34,.92c1,.84,1.81,1.52,2.55,2.14,.99-.92,1.96-1.81,2.92-2.7ZM236.31,97.15c-.13,3.03,2.28,3.56,3.41,5.08l.32-.25c-1.16-1.5-2.32-3-3.73-4.83Zm-.5,115.46l-.05-.07c-1.36,1.22-2.73,2.45-4.09,3.67l.35,.33c1.27-1.31,2.53-2.62,3.8-3.93Zm201.37-117.07l-2.38,3.84c2.95-.11,1.71-2.61,2.38-3.84Zm-212.09-16.46l2,1.03c-.22-1.25-.41-2.34-.66-3.77l-1.34,2.74Z"/><path d="M375.8,152.27c-.18-.31-.36-.62-.54-.93-1.02-1.5-1.24-3.17-1.12-4.94,.26-3.84,.51-7.68,.66-11.53,.12-3.28-1.2-4.99-4.45-4.92-3.13,.07-6.27,.77-9.37,1.37-3.05,.59-6.07,1.4-9.1,2.1-.42,.1-.87,.08-1.69,.15,.45-2.42,.82-4.7,1.3-6.94,.47-2.17,1.14-4.29,1.58-6.47,.94-4.73-.55-8.66-4.05-11.91-5.65-5.24-11.29-10.5-16.94-15.75-.41-.38-.85-.71-1.27-1.07l.6-.11c.15-1.58,.63-3.22,.39-4.74-.81-5.35,.1-10.43,1.98-15.39,1.14-3,2.62-3.34,5.21-1.39,1.25,.94,2.42,2,3.73,2.83,.96,.61,1.02,1.29,.78,2.25-.69,2.8-1.4,5.61-1.94,8.44-.36,1.9,.31,2.37,2.12,1.75,3.4-1.16,5.19-.56,6.96,2.6,2.75,4.91,5.31,9.92,8.12,14.8,.87,1.51,2.15,2.83,3.42,4.06,3.08,2.99,6.25,5.9,9.42,8.8,.59,.54,1.3,1.09,2.05,1.32,2.5,.75,3.83,2.49,4.13,4.94,.28,2.26,.21,4.56,.4,6.84,.1,1.17,.41,2.31,.93,3.58,.95-5.05,4.1-7.33,9.05-7.99,0,.82,.01,1.42,0,2.02-.07,3.46-.15,6.92-.22,10.38-.14,7.01,.79,13.87,2.77,20.61,.84,2.87,1.43,5.83,1.98,8.77,.43,2.34-.68,4.18-2.64,4.81-2.43,.78-4.39,.08-5.4-2.29-3.08-7.25-5.66-14.63-5.84-22.64-.03-1.36-.32-2.71-.49-4.07l-.48,.03c0,3.01-.05,6.02,.02,9.03,.03,1.55-.63,1.99-2.03,1.6Zm-43.38-60.69c.27,.3,.69,.82,1.18,1.28,5.31,4.96,10.6,9.92,15.94,14.85,3.14,2.9,4.89,6.4,4.43,10.7-.27,2.52-.96,5-1.48,7.5-.46,2.2-.94,4.39-1.48,6.87,1.95-.44,3.4-.82,4.87-1.1,4.8-.9,9.43-2.69,14.42-2.53,3.6,.11,5.56,2.37,5.3,5.98-.31,4.28-.55,8.58-.58,12.87,0,1.23,.83,2.47,1.29,3.71l.79-.16v-12.8c1.6,1.65,2.35,3.57,2.37,5.64,.06,8.29,2.61,15.98,5.79,23.5,.81,1.93,2.15,2.53,4.04,2.11,1.8-.4,2.85-1.61,2.56-3.69-.41-2.9-1.18-5.76-1.8-8.63-.84-3.85-2.13-7.67-2.42-11.56-.48-6.33-.3-12.71-.4-19.07-.01-.66,0-1.32,0-1.99-4.03,.43-5.56,2.09-7.3,7.75-1.25,.09-2.04-.39-2.15-1.72-.21-2.72-.45-5.43-.62-8.15-.21-3.22-1.2-4.51-4.23-5.66-.69-.26-1.3-.82-1.86-1.34-2.64-2.49-5.08-5.22-7.92-7.47-2.89-2.29-5-5.03-6.67-8.23-2.14-4.1-4.32-8.18-6.57-12.21-1.51-2.7-3.11-3.19-5.82-2.33-.86,.27-2.26,.45-2.72-.01-.58-.6-.75-1.93-.59-2.86,.48-2.73,1.24-5.41,1.83-8.13,.08-.39-.02-1.02-.28-1.24-1.45-1.21-2.95-2.39-4.5-3.48-1.41-.99-2.44-.76-3.06,.83-1.81,4.59-2.98,9.3-2.41,14.33,.23,2.04,.04,4.12,.04,6.46Z"/><path d="M570.58,142.77c-1.96-1.41-3.77-2.41-5.2-3.8-1.47-1.42-2.63-3.17-3.82-4.85-4.46-6.27-8.86-12.59-13.31-18.87-.94-1.33-1.36-2.52-.44-4.14,.36-.63-.07-1.85-.41-2.69-.4-.98-1.1-1.83-1.67-2.74l.39-.36c.31,.22,.66,.39,.92,.66,1.07,1.07,2.06,2.2,3.17,3.23,1.38,1.28,2.04,.99,2.73-.78,.43-1.11,1.01-2.26,1.82-3.1,1.65-1.72,3.74-2.01,5.78-.78,3.29,1.99,6.53,4.06,9.68,6.26,3.64,2.54,7.28,5.07,11.86,5.37,1.96,.13,4.09,.05,5.92-.57,3.73-1.26,7.5-1.54,11.36-1.57,5.28-.03,10.3-1.19,14.82-3.97,1.94-1.19,3.72-2.65,5.52-4.06,1.56-1.22,3.21-1.99,5.17-2.51,2.04-.54,4.04-1.68,5.73-2.97,3.98-3.03,8.33-4.77,13.35-5.13,1.89-.13,3.7-1.09,5.58-1.57,.47-.12,1.26-.02,1.52,.29,1.39,1.73,2.12,2.1,4.06,1.11,3.66-1.87,7.24-3.92,10.85-5.9,.56-.31,1.14-.59,2.08-1.08-.39,2.48-.66,4.56-1.07,6.62-.34,1.72-.37,3.26,1.28,4.38,.26,.18,.43,.5,.77,.91-2.1,2.32-4.13,4.68-6.32,6.88-.33,.33-1.42,.05-2.11-.14-2.13-.59-4.19-1.54-6.35-1.84-3.17-.44-6.01,.81-8.61,2.58-7.33,4.99-14.53,10.19-22.03,14.91-4.64,2.92-9.72,5.15-14.66,7.57-.7,.34-1.78,.3-2.55,.04-3.96-1.31-7.88-2.72-11.8-4.14-4.09-1.49-8.08-1.35-11.98,.59-2.44,1.21-4.96,2.29-7.31,3.66-4.3,2.5-5.63,5.66-4.74,10.55,.08,.42,.01,.87,.01,1.93Zm-.97-1.69c.03-.44,.08-.67,.05-.88-.86-5.23,1.62-8.68,5.99-11.03,2.21-1.19,4.5-2.22,6.75-3.31,4.08-1.98,8.22-2.16,12.48-.58,3.65,1.36,7.31,2.69,11,3.93,.89,.3,2.1,.54,2.87,.18,4.34-2.01,8.81-3.87,12.83-6.42,8.05-5.12,15.84-10.64,23.73-16.01,4.87-3.31,9.92-3.62,15.17-.98,.53,.27,1.09,.46,1.67,.7,2-2.22,3.92-4.37,6.01-6.69-2.72-1.36-2.26-3.54-1.85-5.73,.26-1.41,.47-2.82,.76-4.64-.85,.51-1.35,.84-1.87,1.12-3.18,1.73-6.31,3.54-9.56,5.13-2.68,1.31-3.66,.95-5.27-1.28-2.2,.57-4.31,1.4-6.48,1.63-4.07,.44-7.84,1.39-11.21,3.87-2.14,1.57-4.43,3.27-6.91,3.96-2.7,.75-4.9,1.97-6.96,3.71-5.39,4.57-11.6,6.88-18.7,7.01-4.16,.08-8.3,.34-12.37,1.69-2.12,.7-4.64,.57-6.92,.31-4.11-.46-7.43-2.83-10.74-5.13-3.16-2.19-6.36-4.32-9.66-6.29-2.71-1.61-5.58-.29-6.56,2.78-.96,3.03-2.07,3.37-4.48,1.36-.1-.08-.24-.11-.2-.09-.22,.77-.29,1.55-.64,2.17-.61,1.08-.49,1.96,.2,2.94,4.98,7.07,9.93,14.16,14.91,21.23,1.52,2.16,3.35,4.01,5.98,5.32Z"/><path d="M288.3,142.97c-.3-.35-.64-.68-.9-1.06-4.23-6.07-6.73-12.74-6.06-20.2,.24-2.69,1.43-5.32,2.35-7.92,.7-1.97,1.85-3.79,2.48-5.78,1.1-3.45,3.12-5.93,6.46-7.42,3.75-1.67,4.53-4.78,2.17-8.19-2.9-4.19-7.25-4.84-11.85-4.71-1.78,.05-3.56,.25-5.33,.51-1.54,.23-2.61-.16-3.13-1.81,.17-.14,.34-.38,.57-.47,2.37-.97,4.06-2.21,4.48-5.17,.45-3.21,3.55-3.54,6.37-4.37v4.88c1.04-.84,1.72-1.36,2.36-1.91,1.4-1.2,2.75-2.45,4.18-3.62,.3-.24,.83-.19,1.25-.28-.08,.38-.06,.83-.26,1.13-.75,1.17-1.65,2.26-2.35,3.45-1.04,1.76-.74,2.82,1.01,3.91,3.1,1.93,6.55,2.76,10.15,2.96,2.34,.13,4.69,.04,7.04,.07,.52,0,1.05,.06,1.97,.12-.55,.49-.75,.74-1,.87-4.05,2.02-7.12,5.1-8.94,9.17-4.15,9.28-8.23,18.6-12.05,28.02-2.22,5.48-2.76,11.22-.67,16.97,.07,.19,.03,.42,.05,.64l-.35,.22Zm-12.67-56.41l-.08,.53c.52,.09,1.05,.27,1.57,.25,2.79-.11,5.57-.44,8.35-.38,3.75,.08,7.11,1.28,9.53,4.39,3.24,4.18,2.4,7.84-2.38,10.09-2.32,1.09-4.04,2.72-5.06,5.1-1.32,3.11-2.7,6.19-4.04,9.29-.24,.56-.47,1.13-.64,1.71-2.23,7.52-.24,14.39,3.3,21.01,.15,.28,.39,.51,.77,.99-.14-1.37-.29-2.42-.34-3.47-.26-6.13,1.78-11.71,4.2-17.19,2.22-5.04,4.65-9.99,6.69-15.1,2.42-6.05,4.91-11.96,10.97-15.77-2.76-.16-5.19-.24-7.6-.47-3.31-.31-6.46-1.23-9.28-3.02-2.05-1.3-2.36-2.66-1.22-4.81,.3-.56,.63-1.1,.95-1.65-1.5,.99-2.78,2.14-4.1,3.23-.3,.25-.94,.55-1.11,.42-.38-.3-.74-.83-.8-1.3-.12-.93-.04-1.88-.04-2.83-3.3,.29-4.89,1.62-5.26,4.61-.2,1.66-1.25,2.55-2.47,3.36-.59,.39-1.26,.68-1.9,1.01Z"/><path d="M555.19,14.04c1.12,2.32,2.24,4.64,3.46,7.17-.96,.19-1.76,.34-2.55,.5-4.71,.92-8.88,3.1-13.04,5.39-5.21,2.86-10.43,5.73-15.82,8.22-2.89,1.34-6.11,2.05-9.25,2.73-1.33,.29-2.83-.23-4.26-.38l.03-.51c.16-.13,.3-.34,.48-.39,9.24-2.58,17.56-7.25,26.04-11.55,1.29-.65,2.56-1.36,3.86-1.98,4.37-2.08,8.68-4.21,10.54-9.23l.51,.04Zm-.23,1.27c-2.39,5.04-7.02,6.88-11.39,9.08-9.02,4.54-17.79,9.59-27.47,12.76,.76,.11,1.55,.27,2.24,.08,3.15-.89,6.43-1.54,9.37-2.91,5.13-2.39,10.07-5.19,15.03-7.94,4.05-2.25,8.15-4.34,12.71-5.36,.62-.14,1.24-.28,2.02-.45-.85-1.78-1.6-3.37-2.5-5.26Z"/><path d="M440.42,48.26c2.14-2.33,4.14-4.8,6.45-6.95,3.55-3.31,7.32-6.37,10.97-9.57,3.13-2.75,6.98-3.79,10.91-4.68,.97,.9,.93,1.53-.25,2.32-1.99,1.33-3.96,2.73-5.74,4.32-1.22,1.09-2.36,2.44-3.1,3.89-1.35,2.66-2.55,5.5,1.25,8.1-7.17,1.1-13.71,2.1-20.25,3.11l-.25-.54Zm1.52-.45c5.95-.91,11.44-1.76,17.33-2.66-1.85-1.31-1.98-2.94-1.49-4.42,.65-1.97,1.36-4.11,2.68-5.63,1.88-2.15,4.33-3.8,6.54-5.65,.52-.43,1.07-.83,1.61-1.24l-.24-.46c-2.43,.89-5.13,1.35-7.23,2.73-7.11,4.67-13.28,10.47-19.2,17.34Z"/><path d="M424.91,5.34c2.46-.44,4.8-1.67,7.44-.93,1.02,.29,1.68,.03,1.86-1.19,.13-.91,.49-1.8,.9-3.22,1.31,3.16,1.97,6.22,3.69,8.46,1.76,2.3,4.56,3.8,7.11,5.81-5.36,3.95-10.78,7.94-16.21,11.93l-.57-.2c0-1.19,.04-2.39,0-3.58-.14-3.36,.01-6.67,1.48-9.8,.21-.44,.1-1.3-.21-1.67-1.01-1.23-2.15-2.38-3.32-3.47-.67-.63-1.5-1.11-2.25-1.66l.09-.47Zm19.88,8.79c-1.66-1.08-3.24-1.86-4.51-2.99-1.22-1.08-2.31-2.41-3.11-3.82-.81-1.42-1.21-3.08-1.85-4.79-.19,.45-.38,.7-.4,.96-.13,1.6-.7,2.17-2.47,1.73-1.97-.5-4-.2-5.89,.67,1.31,1.21,2.6,2.27,3.74,3.47,1.24,1.31,1.5,2.72,.68,4.56-1.52,3.43-1.42,7.1-.86,11.01,4.97-3.65,9.71-7.14,14.68-10.79Z"/><path d="M716.16,142.52c-5.16,1.16-9.86,2.25-14.58,3.23-.83,.17-1.9,.17-2.61-.21-3.09-1.7-6.09-3.57-9.12-5.38,.04-.18,.08-.36,.11-.54,.63-.24,1.26-.51,1.9-.72,5.07-1.69,8.85-4.78,10.95-9.81,1.15-2.76,3.08-3.03,5.16-.87,.35,.36,.7,.74,.94,1.17,2.39,4.31,4.77,8.63,7.25,13.14Zm-24.88-2.5c2.06,1.34,3.98,2.56,5.87,3.83,1.35,.91,2.82,1.4,4.42,1.06,4.41-.92,8.81-1.92,13.33-2.91-1.43-2.73-2.75-5.36-4.17-7.93-.94-1.7-1.86-3.44-3.06-4.96-1.82-2.32-3.1-2.08-4.31,.64-1.89,4.28-5.02,7.29-9.31,9.11-.86,.37-1.73,.71-2.78,1.15Z"/><path d="M587.19,77.98c1.58-.11,3.16-.27,4.74-.33,4.9-.17,9.81-.37,14.71-.41,1.7-.01,3.44,.28,5.1,.7,1.76,.45,2.4,1.76,1.48,3.33-1.52,2.58-3.23,5.05-5.07,7.42-1,1.29-3.01,1.4-4.63,.49-1.4-.79-2.7-1.76-4.06-2.64-3.73-2.43-7.46-4.86-11.19-7.3-.43-.28-.83-.61-1.24-.91l.15-.35Zm2.01,.22l-.04,.65c4.74,3.13,9.46,6.3,14.24,9.37,2.03,1.3,3.41,1.04,4.93-.89,1.31-1.66,2.51-3.41,3.63-5.2,1.49-2.38,1.11-3.18-1.6-3.77-.33-.07-.66-.15-.99-.15-6.73,0-13.45,0-20.18,0Z"/><path d="M315.85,46.35l2.67-3.05c-1.46-1.02-1.88-2.22-.91-3.75,.17-.26,.06-.74-.02-1.11-.58-2.79,0-5.31,1.76-7.54,1.41-1.79,2.85-3.58,4.35-5.3,.44-.5,1.15-.76,1.99-1.29,.75,2.96,1.37,5.65,2.12,8.29,.39,1.37,.27,2.42-.88,3.38-.89,.75-1.65,1.66-2.42,2.54-1.15,1.32-2.63,2.37-2.78,4.4-.06,.87-.71,1.74-1.21,2.53-1.12,1.77-2.42,2.04-4.67,.87Zm9.28-21.2c-1.98,2.39-3.71,4.34-5.27,6.41-1.49,1.98-2.18,4.21-1.49,6.75,.17,.62-.29,1.39-.25,2.07,.04,.67,.22,1.4,.6,1.93,.12,.17,1.24-.07,1.58-.42,2.18-2.24,4.28-4.55,6.37-6.87,.29-.33,.57-.91,.49-1.3-.58-2.7-1.26-5.38-2.02-8.57Zm-8.01,20.93c2,.39,3.34-.9,3.44-3.04l-.5-.51-2.93,3.55Z"/><path d="M632.96,56.59c.47,3.23,.98,6.47,1.39,9.72,.13,.99,.38,1.57,1.48,1.86,2.16,.56,2.55,2.54,2.44,4.27-.18,2.68-.84,5.32-1.33,8.19-2.6-.86-4.17-2.25-4.89-4.32-1.58-4.5-2.46-9.13-1.85-13.94,.17-1.38,.49-2.77,.46-4.15-.04-1.63,.55-2.16,2.31-1.63Zm-.71,.58l-.59-.07c-.16,1.21-.25,2.43-.49,3.63-1,5.01-.08,9.85,1.31,14.62,.53,1.82,1.64,3.35,3.65,4.09,1.08-2.67,1.56-5.32,1.25-8.07-.14-1.28-.67-2.52-2.18-2.52-1.32,0-1.37-.71-1.5-1.67-.45-3.34-.96-6.67-1.45-10.01Z"/><path d="M664.2,108.55c.46,.82,.83,1.43,1.14,2.07,3.08,6.35,6.17,12.69,9.17,19.07,.26,.55,.24,1.57-.11,2-.74,.9-1.34-.07-1.91-.51-5.07-3.84-7.97-9.28-10.3-14.94-.76-1.85-.02-4.37,.24-6.56,.05-.42,1.08-.71,1.77-1.14Zm-.59,1.12c-.81,2.72-1.74,5.33-.11,7.94,2.09,3.35,4.02,6.8,6.28,10.04,.99,1.42,2.6,2.4,3.93,3.59l.41-.37c-2.61-7.48-6.6-14.28-10.5-21.2Z"/><path d="M688.69,98.87c.35,4.25,3.88,6.35,5.94,9.44,2.3,3.46,4.04,7.31,5.93,11.03,.22,.43-.1,1.13-.22,2.09-4.35-2.77-8.31-5.25-12.22-7.81-1.31-.86-2.12-2.29-1.58-3.76,1.23-3.38,1.14-6.9,1.52-10.38,.02-.14,.11-.28,.17-.42l.46-.19Zm.18,4.1c-.46,1.95-1.01,4.1-1.45,6.26-.26,1.28-.37,2.69,.88,3.52,3.73,2.49,7.52,4.88,11.29,7.32-2.29-6.69-5.79-12.48-10.72-17.1Z"/><path d="M526.87,2.56c-1.56,7.16-5.12,12.57-12.24,15.65-.29-3.38-.69-6.51,.58-9.52,.3-.72,.97-1.45,1.66-1.8,3.08-1.54,6.23-2.94,9.37-4.38,.13-.06,.32,.02,.63,.05Zm-11.55,14.56c5.63-3.04,9.07-7.29,10.37-13.62-3.05,1.46-5.92,2.64-8.58,4.21-.89,.52-1.56,1.95-1.71,3.04-.27,1.96-.08,3.99-.08,6.37Z"/><path d="M580.14,77.13c-7.6,1.64-14.68,1.14-21.7-2.42,.5-.13,.8-.32,1.05-.26,4.27,.94,8.44,.11,12.58-.75,3.48-.72,5.6,1.34,8.07,3.44Zm-1.82-.43c-1.76-1.7-3.45-2.58-5.63-2.24-3.01,.47-6.02,.9-9.13,1.36,4.77,1.98,9.6,1.5,14.76,.88Z"/><path d="M323.87,58.91c1.79-5.35,3.55-10.6,5.48-16.36,.34,.95,.68,1.49,.71,2.06,.21,3.28,.41,6.55,.48,9.83,.05,2.32-3.73,4.85-6.67,4.47Zm5.44-13.15c-1.55,4.32-2.97,8.29-4.4,12.28,1.7,.16,4.87-1.93,4.88-3.47,.01-2.86-.3-5.73-.48-8.81Z"/><path d="M302.78,51.75c.75,2.82,1.5,5.63,2.24,8.45,.06,.21,.06,.45,.16,.64,1.29,2.53-.18,4.13-1.94,5.87-1.7-1.79-3.35-3.5-4.96-5.25-.18-.2-.28-.67-.18-.9,1.36-2.96,2.76-5.89,4.14-8.84l.53,.02Zm.39,13.77q1.89-1.94,1.26-4.39c-.4-1.56-.78-3.12-1.19-4.67-.24-.91-.53-1.82-.9-3.1-1.19,2.51-2.22,4.6-3.14,6.73-.17,.39-.05,1.12,.23,1.44,1.19,1.38,2.48,2.66,3.74,3.98Z"/><path d="M257.41,83.86c-3.24-2.41-3.92-5.03-2.18-8.02,.89-1.53,2.16-2.13,3.82-1.48,2.73,1.08,5.4,2.34,8.6,3.75-3.66,2.05-6.91,3.88-10.24,5.75Zm8.58-5.68c-2.71-1.15-4.96-2.22-7.3-3.03-.66-.23-1.83,.07-2.34,.57-1.94,1.89-1.63,5.15,.53,6.75,.27,.2,.84,.26,1.13,.1,2.54-1.35,5.06-2.77,7.98-4.39Z"/><path d="M583.47,165.01c.16,.14,.67,.39,.88,.79,1.44,2.76,2.84,5.54,4.21,8.34,.64,1.31,.25,2.85-.75,3.41-.99,.56-2.18,.05-2.95-1.39-1.31-2.45-2.61-4.91-3.82-7.42-.75-1.54,.49-3.68,2.43-3.73Zm.02,.7c-1.82,.76-2.26,1.68-1.54,3.14,1.16,2.34,2.34,4.68,3.65,6.93,.3,.52,1.18,.7,1.79,1.03,.18-.74,.71-1.64,.47-2.19-1.33-2.99-2.86-5.89-4.37-8.92Z"/><path d="M280.82,65.01c-2.71,2.18-5.21,4.19-7.69,6.18-4.14-3.56-3.94-8.64,.41-11.63,.34-.24,1.14-.33,1.39-.1,1.94,1.73,3.8,3.56,5.89,5.55Zm-1.16-.05c-1.87-1.76-3.59-3.39-5.28-4.99-4.22,3.02-4.62,6.55-1.24,10.2,2.12-1.69,4.24-3.39,6.52-5.22Z"/><path d="M263.71,67.87c-1.37-.66-1.45-1.21-.62-2.26,1.06-1.34,1.74-2.98,2.75-4.37,.91-1.24,1.97-2.4,3.11-3.42,1.13-1,2.31-1.01,3.21,.67-2.78,3.09-5.61,6.22-8.46,9.38Zm.02-1.17c2.47-2.75,4.95-5.51,7.52-8.37-2.4-.49-4.06,1.39-7.52,8.37Z"/><path d="M411.89,12.18c.82,1.34,1.48,2.4,2.24,3.63-1.26,1.17-2.5,2.33-3.75,3.48-1.27,1.17-2.54,2.34-3.84,3.47-.23,.2-.65,.18-.99,.27-.04-.34-.24-.79-.1-1.01,2.06-3.21,4.17-6.39,6.44-9.83Zm-4.57,8.36l.23,.25c1.84-1.67,3.67-3.34,5.6-5.1l-1.3-2.04c-1.6,2.44-3.06,4.66-4.52,6.89Z"/><path d="M599.42,54.57c-.42-.76-.74-1.32-1.13-2.01,2.4-1.25,4.63-2.45,6.91-3.57,.29-.14,.8,.16,1.2,.25-.13,.37-.14,.9-.4,1.07-2.11,1.41-4.26,2.76-6.59,4.25Z"/><path d="M377.21,57.44l-.81-1.94c2.76-.94,5.44-1.9,8.16-2.7,.32-.09,.91,.69,1.72,1.36-3.31,1.2-6.1,2.2-9.07,3.28Zm.3-1.5l.22,.47c2.31-.82,4.61-1.65,6.92-2.47l-.12-.36c-2.34,.79-4.67,1.57-7.01,2.36Z"/><path d="M659.15,77.13c-2.57-1.05-3.48-2.61-3.11-4.79,.09-.49,.19-.99,.18-1.49-.02-1.21,.53-1.61,1.82-1.25,.35,2.38,.71,4.82,1.1,7.53Zm-.97-1.35c-.28-1.82-.52-3.38-.79-5.16-.97,2.37-.78,3.69,.79,5.16Z"/><path d="M545.47,341.24c1.23-.16,2.47-.33,4.13-.55-2.75-.77-4.42-.54-6.53,.86-2.04,1.34-4.27,1.71-6.66,1.73,.29-2.94,4.13-7.45,6.81-7.91,.67-.12,1.63,.15,2.14,.61,1.4,1.25,3.03,1.59,4.79,1.64,5.81,.19,11.61,.42,17.42,.5,1.43,.02,2.86-.5,4.3-.77l.03-.66c-1.64-.67-3.25-1.45-4.93-2-1.74-.56-3.53-1.07-5.34-1.3-1.82-.23-3.69-.25-5.52-.07-1.8,.18-3.56,.72-5.37,1.11-.53-1.45-.46-2.31,1.43-2.64,3.78-.65,7.47-1.82,11.26-2.36,3.74-.53,7.41-.54,10.8,2.08,2.13,1.64,4.93,2.53,7.55,3.41,10.34,3.49,19.81,8.63,28.6,15.02,2.81,2.05,5.2,4.69,7.81,7.08l-1.19,1.67c-1.12-.39-2.18-.75-3.25-1.12l-.2,.29c1.38,1.29,2.76,2.58,4.2,3.92-.55,.72-.98,1.28-1.49,1.94-4.92-2.83-9.75-5.6-14.58-8.37l-.31,.46c2.03,1.48,4.06,2.96,6.07,4.43-.95,2.07-1.65,2.29-3.56,.84-4.08-3.1-8.01-6.42-12.17-9.41-3.56-2.56-7.32-4.85-11.05-7.16-1.28-.79-2.37-1.51-2.71-3.14-.3-1.45-1.83-1.95-3.39-1.23-.7,.32-1.31,.83-2.18,1.39,.94,.82,1.75,1.54,2.58,2.23,8.91,7.35,17.75,14.81,26.79,22,3.3,2.62,7.1,4.62,10.64,6.94,.55,.36,1.83,.41,1.14,1.53-.2,.33-1.24,.4-1.77,.22-1.83-.62-3.74-1.19-5.39-2.16-12.33-7.29-24.68-14.57-36.89-22.07-7.24-4.44-14.8-7.71-23.36-8.3-.23-.02-.45-.21-.68-.32v-.38Zm25.56,.3c1.33-.84,2.36-1.7,3.55-2.2,1.83-.77,3.62-.12,4,1.51,.39,1.7,1.44,2.49,2.87,3.17,4.31,2.04,8.16,4.74,11.78,7.87,3.63,3.12,7.56,5.9,11.4,8.76,.42,.31,1.13,.25,1.7,.36l.1-.51c-2.06-1.5-4.11-3-6.26-4.57l1.32-1.57c4.9,2.82,9.71,5.59,14.53,8.36l.41-.22c-.14-.39-.17-.88-.42-1.15-1.26-1.34-2.6-2.62-3.89-3.93-.34-.35-.63-.76-.94-1.14l.28-.37c1.78,.63,3.56,1.26,5.34,1.88-.05-.66-.25-1.04-.54-1.33-1.89-1.82-3.63-3.84-5.72-5.39-8.42-6.22-17.46-11.31-27.39-14.8-3.14-1.1-6.51-2.06-9.13-3.97-3.24-2.36-6.55-2.65-10.1-2.1-4.01,.62-7.96,1.6-11.92,2.46-.31,.07-.56,.36-.84,.55,7.99-2.26,15.18-.24,22.37,3.53-1.68,1.39-3.31,2.28-5.3,2.22-6.53-.2-13.07-.37-19.59-.73-1.17-.06-2.29-1-3.46-1.43-.72-.26-1.66-.68-2.23-.42-2.58,1.16-4.34,3.18-5.55,5.9,2,.24,3.66-.28,5.14-1.32,3.35-2.35,6.75-1.61,10.18-.28,.09,.03,.09,.29,.15,.49l-1.86,.36c.35,.23,.47,.38,.61,.4,6.19,1.08,11.73,3.71,17.06,6.93,12.94,7.8,25.91,15.53,38.91,23.23,1.4,.83,3.05,1.25,4.58,1.87l.16-.37c-15.29-8.55-27.6-20.91-41.3-32.03Z"/><path d="M638.32,277.44c.04-3.51,1.15-6.76,1.95-10.12,2.21-9.21,7.9-16.36,13.27-23.73,1.58-2.16,3.16-4.34,4.95-6.32,2.8-3.09,5.52-3.58,9.35-1.86,4.04,1.82,7.42,4.34,8.55,8.97,.63,2.59,.38,5.19-.84,7.48-1.36,2.53-1.16,5.13-1.21,7.8-.03,1.42-.33,3.01-1.03,4.22-1.74,3.04-3.9,5.85-5.65,8.89-1.16,2-1.9,4.24-2.85,6.36-.54,1.22,.08,1.96,1.08,2.41,2.51,1.14,7.04,.95,9.17-1.07,2.59-2.46,5.4-4.59,9.02-5.52,2.47-.63,3.95-4,3.23-6.95-.5-2.06-.24-3.98,.47-5.89,.99-2.65,2.13-5.26,2.98-7.96,.36-1.13,.08-2.45,.23-3.66,.12-.93,.23-2.04,.79-2.67,.44-.49,1.57-.44,2.4-.49,.33-.02,.74,.26,1.03,.5,2.86,2.41,5.71,4.84,8.53,7.29,1.14,.99,1.35,2.22,.4,3.41-.81,1.02-.98,2.06-1.13,3.35-.49,4.28-1.79,8.37-4.12,12.06-.24,.38-.45,.78-.73,1.12-4.09,4.98-7.22,10.57-10.37,16.16-2.08,3.71-4.77,6.95-9.21,7.98-4.64,1.07-8.82,.11-12.44-3.1-3.76-3.34-7.57-6.61-11.33-9.95-1.18-1.05-2.19-.94-3.4,0-1.71,1.34-3.48,2.63-5.32,3.77-3.38,2.11-6.13,.76-6.71-3.21-.23-1.54-.47-3.08-.65-4.63-.18-1.55-.29-3.11-.43-4.66Zm63.71-17.43c.31-.38,1.08-.99,1.37-1.78,.26-.7,.31-1.96-.12-2.36-2.78-2.58-5.67-5.05-8.64-7.41-.5-.4-1.76-.46-2.23-.1-.48,.37-.49,1.43-.57,2.21-.12,1.19,.14,2.47-.21,3.57-.82,2.59-1.9,5.1-2.89,7.63-.85,2.17-1.21,4.31-.55,6.66,.74,2.6-1.14,6.5-3.66,7.17-3.62,.96-6.34,3.15-9.06,5.46-2.98,2.52-6.36,2.37-9.77,1.22-1.71-.58-2.25-1.77-1.61-3.46,.82-2.17,1.69-4.36,2.84-6.36,1.61-2.8,3.46-5.47,5.29-8.13,1.05-1.53,1.57-3.11,1.42-5-.23-2.84,.06-5.57,1.31-8.28,.75-1.62,1-3.71,.79-5.51-.61-5.17-4.38-7.78-8.75-9.63-2.85-1.21-5.51-.75-7.64,1.57-1.43,1.56-2.77,3.22-3.98,4.96-5.32,7.64-11.29,14.74-14.1,24.05-2.11,6.98-2.27,13.64-1.06,20.56,.53,3.03,2.67,3.94,5.31,2.33,1.85-1.13,3.6-2.44,5.35-3.73,1.89-1.39,2.83-1.43,4.58,.09,3.8,3.29,7.59,6.59,11.36,9.92,5.09,4.5,12.62,4.37,17.14-.62,1.96-2.16,3.38-4.82,4.99-7.28,2.4-3.68,4.6-7.51,7.18-11.06,3.11-4.28,5.3-8.87,6.01-14.12,.09-.67-.05-1.37-.11-2.54Z"/><path d="M313.19,215.49c-.4,2.08-.81,5.01-1.59,7.83-.25,.9-1.36,1.82-2.3,2.23-1.97,.87-4.06,1.53-6.16,2.04-2.02,.49-4.34-1.16-4.75-3.29-.5-2.62-.95-5.26-1.26-7.91-.15-1.28,.15-2.49,1.48-3.29,.52-.31,.95-1.16,1-1.79,.4-4.86-.42-9.43-3.58-13.37-1.64-2.04-3.2-4.16-4.9-6.15-.38-.45-1.53-.92-1.73-.74-.52,.49-1.07,1.37-.97,2.01,.79,5.41,2.02,10.69,4.58,15.6,2.04,3.91,1.68,8.13,1.12,12.29-.56,4.18-1.66,4.67-5.52,2.85-7.68-3.62-12.68-9.67-15.72-17.45-1.25-3.19-.68-6.38,.47-9.46,1.21-3.23,2.6-6.38,3.84-9.6,.23-.61,.07-1.36,.13-2.04,.08-.91-.11-2.02,.35-2.68,2.32-3.37,6.86-3.61,10.3-1.43,7.03,4.44,11.9,10.87,16.9,17.23,.27,.35,.58,.69,.93,.96,4.97,3.9,6.99,9.2,7.38,16.17Zm-40.5-12.91c.7,2.04,1.23,4.2,2.15,6.18,3.17,6.85,8.22,11.87,15.21,14.84,1.94,.83,2.91,.47,3.14-1.27,.7-5.23,1.03-10.4-1.72-15.31-2.41-4.29-3.01-9.16-3.86-13.92-.24-1.36,.35-2.36,1.52-2.84,1.12-.46,2.02,.16,2.73,1.08,1.05,1.37,2.08,2.78,3.23,4.06,4.1,4.58,5.97,9.88,5.21,16-.1,.8-.54,1.76-1.15,2.23-.92,.71-1.33,1.49-1.18,2.56,.39,2.7,.72,5.41,1.28,8.06,.41,1.95,2.08,2.9,4.12,2.42,1.89-.45,3.76-1.03,5.54-1.8,.83-.36,1.81-1.21,2.02-2.03,.67-2.57,1.44-5.24,1.4-7.86-.09-5.7-1.9-10.83-6.5-14.64-.64-.53-1.26-1.12-1.76-1.78-5-6.53-10.1-12.93-17.24-17.35-1.6-.99-3.12-1.48-4.85-.59-1.09,.56-2.16,1.17-3.17,1.85-.95,.63-1.14,1.49-.72,2.63,.24,.64,.24,1.52,0,2.16-1.07,2.81-2.37,5.53-3.39,8.35-.79,2.17-1.29,4.45-2,6.96Z"/><path d="M506.9,349.77c-.13-.98-.26-1.95-.44-3.29-1.14,1.68-2.14,3.15-3.16,4.64-1.26-.49-1.67-1.25-1.52-2.51,.24-1.95,1.02-3.62,2.66-4.63,3.97-2.45,7.77-5.25,12.39-6.46,.29-.08,.59-.08,1.45-.19-1.52,1.79-2.72,3.19-3.92,4.6,3.41-2.05,6.59-4.66,11.19-3.83-.13,.62-.2,1.09-.34,1.54-1.18,3.59-2.33,7.2-3.58,10.76-.22,.62-.84,1.1-1.28,1.65l-.6-.28-.81-7.37-.53-.02c-2.06,2.41-2.76,5.86-5.65,7.64-2.17-1.84-2.39-2.71-1.5-6.51-1.42,1.6-2.66,2.99-3.89,4.38l-.47-.11Zm13.46,.9l.3,.11c.67-1.97,1.36-3.94,2.02-5.92,.67-2.03,1.31-4.06,1.98-6.13-4.28-.39-11.64,4.28-12.88,8.13-.48,1.49-.45,2.99,1.24,4.26,.35-.44,.78-.89,1.1-1.4,1.05-1.71,2.01-3.48,3.14-5.13,.31-.46,1.13-.88,1.65-.81,.41,.06,.95,.86,1.02,1.39,.24,1.82,.3,3.66,.43,5.5Zm-4.26-11.98c-.4,.05-.58,.03-.71,.1-3.59,1.98-7.2,3.92-10.72,6.01-.74,.44-1.32,1.39-1.66,2.23-.35,.87-.32,1.89-.45,2.84l.55,.13c1.03-1.54,2.07-3.08,3.38-5.03,.51,1.33,.87,2.25,1.27,3.31,2.76-3.18,5.48-6.3,8.34-9.59Z"/><path d="M533.84,352.41c2-2.42,4.32-3.46,6.89-3.61,8.75-.51,16.73,1.43,23.04,7.99,2.58,2.68,4.51,5.79,5.64,9.35,.16,.51,.27,1.03,.45,1.71-2.11,.38-3.98,.02-5.59-.96-1.79-1.09-3.47-2.41-5.07-3.79-5.43-4.69-11.85-7.67-18.31-10.51-1.36-.6-3.18-.15-4.79-.18-.6-.01-1.21,0-2.26,0Zm2.22-.95c1.76,.12,3.73-.23,5.24,.45,7.02,3.13,14.01,6.38,19.72,11.75,1.12,1.05,2.44,1.98,3.82,2.66,1.16,.57,2.54,.68,4.2,1.09-2.79-8.21-7.83-13.66-15.47-16.22-5.75-1.93-11.74-2.9-17.52,.28Z"/><path d="M729.93,245.42c-.8,2.58-1.35,5.46-2.57,8.02-1.68,3.52-4.99,5-8.74,5.28-1.99,.15-3.76-.83-4.8-2.56-1.34-2.23-2.57-4.55-3.62-6.93-.9-2.03-.29-3.23,1.26-4.74,1.11-1.09,2.24-2.42,2.69-3.86,1.54-4.93,2.77-9.95,4.16-14.92,.17-.61,.67-1.61,1-1.61,.8,.01,1.68,.39,2.38,.85,.46,.3,.72,.97,.97,1.52,1.95,4.43,3.94,8.84,5.77,13.32,.68,1.67,.96,3.51,1.52,5.62Zm-10.27-21.28c-1.59,5.72-3,10.79-4.42,15.86-.6,2.13-1.49,4.03-3.45,5.33-1.16,.77-1.65,1.98-.98,3.36,1.07,2.19,2.12,4.4,3.29,6.53,1.18,2.13,3.1,3.02,5.49,2.62,2.67-.44,5.15-1.53,6.56-3.88,2.5-4.16,3.54-8.72,1.72-13.41-1.83-4.71-3.94-9.31-6.03-13.91-.39-.85-1.27-1.48-2.19-2.5Z"/><path d="M444.96,334.69c-4.2,.79-7.55-.42-10.71-2.37-.85-.53-1.68-1.16-2.61-1.49-2.89-1.03-3.86-3.51-4.73-6.05-.66-1.92-.12-3.07,1.79-3.87,3.19-1.34,6.51-.88,9.7-.17,2.02,.45,3.95,1.44,5.8,2.41,2.44,1.27,4.85,2.25,7.64,1.24,.16-.06,.41,.05,.6,.14,2.83,1.29,3.99,4.75,2.14,7.12-1.2,1.54-1.75,3.19-1.98,5.02-.2,1.56-.94,2.14-2.48,1.79-.65-.15-1.34-.11-1.99-.25-1.76-.4-3.74-.61-3.18-3.5Zm6.45,3.05c.19-.54,.38-.89,.43-1.26,.26-2.02,.85-3.84,2.2-5.47,.52-.62,.6-1.77,.55-2.67-.07-1.27-1.79-2.92-2.59-2.85-2.71,.22-5.45,.14-7.75-1.47-3.77-2.65-8.02-3.18-12.41-3.12-1.12,.02-2.26,.54-3.31,1.01-.46,.21-1.07,.94-1.01,1.34,.35,2.19,.81,4.48,2.76,5.83,1.91,1.33,4.01,2.41,6.08,3.49,2.41,1.25,4.92,2.09,7.71,1.39,.82-.21,1.48-.04,1.48,.99,0,1.61,.96,2.2,2.4,2.35,1.15,.12,2.29,.28,3.46,.43Z"/><path d="M174.35,229.59c-4.08-.19-6.88-1.79-8.42-5.26-1.29-2.89-2.59-5.78-3.71-8.74-.32-.85-.16-1.94-.03-2.89,.26-1.92,.48-3.87,1.03-5.72,.86-2.89,4.01-3.69,6.25-1.67,2.66,2.39,5.23,4.81,6.24,8.47,.64,2.33,1.67,4.55,2.46,6.84,.41,1.2,.83,2.43,1,3.68,.46,3.34-1.51,5.3-4.82,5.29Zm4.29-4.91c-.52-1.5-1-3.02-1.58-4.49-.53-1.34-1.54-2.6-1.67-3.96-.43-4.59-3.25-7.57-6.44-10.35-1.94-1.69-4.41-.94-5.07,1.57-.47,1.82-.83,3.7-.97,5.57-.09,1.15,.16,2.4,.57,3.49,.91,2.44,2.04,4.81,3.04,7.22,1.08,2.61,2.94,4.41,5.72,4.84,3.52,.55,6.44,.01,6.41-3.88Z"/><path d="M516.66,368.48c-3.8-2.46-4.42-4.19-2.51-6.89,1.02,1.09,2.07,2.14,3.04,3.28,.38,.45,.84,1.11,.76,1.6-.25,1.61,.8,1.82,1.9,2.37,4.97,2.48,9.89,5.05,14.77,7.71,.87,.47,1.44,1.51,2.21,2.34l-.92,1.2c-.21-.03-.34-.01-.42-.06-5.04-3.44-10.74-5.31-16.53-6.95-.21-.06-.42-.16-.63-.22-3.1-.92-3.32-1.46-1.66-4.36Zm18.69,10.34c-1.32-2.57-13.8-9.29-17.95-9.82-1.49,1.96-1.48,2.3,.36,2.85,6.06,1.82,12.12,3.59,17.6,6.97Zm-20.96-15.65c-.98,2.2,.24,3.95,2.93,4.21-.05-2.09-1.79-2.9-2.93-4.21Z"/><path d="M281.97,285.77c-.38-5.18,1.55-9.55,6.38-12.51,1.09-.67,1.97-1.65,3.06-2.32,.6-.37,1.61-.76,2.07-.5,.58,.33,1.06,1.3,1.11,2.02,.21,3.48,.26,6.97,.38,10.45,.02,.61,.13,1.21,.24,1.82,.69,4.04-1.06,7.04-4.14,9.38-1.76,1.34-3.14,1.19-4.83-.25-.8-.69-1.58-1.41-2.35-2.14-1.59-1.53-2.23-3.42-1.93-5.95Zm.61,.44c-.09,2.89,2.86,7.12,5.4,7.79,.6,.16,1.37,.09,1.95-.14,2.22-.86,5.14-5.51,4.65-8.27-.71-3.97-1.47-8.03-.66-12.13,.08-.42,.03-.9-.06-1.33-.26-1.12-.85-1.55-1.89-.74-1.89,1.48-3.81,2.92-5.65,4.47-1.71,1.44-2.9,3.23-3.19,5.51-.21,1.66-.39,3.32-.56,4.82Z"/><path d="M740.07,263.63c-2.53-2.88-5.36-5.11-5.8-8.91-.08-.71-.1-1.46,.06-2.14,.38-1.6,.52-3.1-.24-4.67-.21-.45,.13-1.46,.55-1.86,1.69-1.62,3.47-3.14,5.28-4.61,1.02-.83,2.36-.14,2.46,1.16,.31,3.93,.7,7.85,.91,11.79,.18,3.37-1.41,6.18-3.23,9.25Zm-.22-1.21c1.67-2.9,2.89-5.51,2.58-8.64-.34-3.54-.48-7.1-.74-10.65-.03-.37-.21-.92-.48-1.04-.29-.14-.87,0-1.15,.23-1.56,1.26-3.05,2.61-4.61,3.88-.8,.65-.89,1.34-.42,2.18,.64,1.14,.64,2.26,.22,3.51-.7,2.08-.29,4.12,.92,5.89,1.06,1.56,2.34,2.97,3.68,4.64Z"/><path d="M585.83,371.4c-6.46-5.37-12.72-10.57-19.14-15.9,1.79-1.07,3.39-.98,4.91-.43,7.41,2.65,12.02,7.97,14.39,15.36,.06,.17-.06,.4-.16,.97Zm-17.31-15.92l-.13,.42,16.13,13.4,.3-.33c-2.73-6.05-6.79-10.82-13.28-13.14-.93-.33-2.01-.24-3.03-.35Z"/><path d="M552.47,371.51c-.39-.16-.79-.29-1.16-.5-5.1-2.86-10.2-5.71-15.28-8.61-.41-.24-.61-.85-.9-1.28,.55-.35,1.06-.84,1.66-.99,.49-.12,1.09,.11,1.62,.28,5.06,1.57,9.4,4.28,12.93,8.24,.63,.71,1.03,1.64,1.53,2.46l-.4,.4Zm-16.15-10.76l-.39,.73c4.99,2.8,9.99,5.6,14.98,8.4l.24-.42c-4.13-4.33-8.87-7.58-14.83-8.71Z"/><path d="M536.53,337.83c-3.5,3.09-6.91,6.11-10.34,9.14-1.48-2.22-.64-4.84,2.19-7.67,2.56-2.56,5.22-3.75,8.15-1.47Zm-1.19,.01c-2.85-1.31-4.51,.29-6.14,1.81-1.71,1.58-3.21,3.29-2.84,6.14,3.08-2.72,5.93-5.25,8.98-7.95Z"/><path d="M589.18,371.04c3.05,1.61,6.14,3.22,9.19,4.91,.27,.15,.47,.93,.31,1.2-.25,.44-.87,1.02-1.25,.97-1.13-.17-2.33-.43-3.31-.99-1.73-.98-3.36-2.15-4.94-3.36-1.33-1.02-1.27-1.09,0-2.73Zm8.57,6.42c.06-.32,.21-.76,.14-.8-2.83-1.58-5.68-3.11-8.53-4.66l-.32,.57c2.41,2.39,5.13,4.26,8.7,4.89Z"/><path d="M630.14,373.91l-.53,2c-3.09-.8-6.04-1.52-8.95-2.36-.32-.09-.64-.92-.57-1.34,.04-.29,.83-.75,1.16-.66,2.89,.71,5.76,1.52,8.89,2.36Zm-1.27,1l.07-.54c-2.67-.69-5.33-1.38-8-2.07l-.13,.55c2.69,.69,5.37,1.38,8.06,2.06Z"/><path d="M623.12,358.08c.62-.83,1.07-1.44,1.61-2.17,1.81,1.22,3.57,2.27,5.15,3.55,.49,.39,.48,1.4,.69,2.12-.81,.11-1.85,.6-2.39,.27-1.74-1.06-3.29-2.42-5.06-3.77Zm7.12,2.93c-.32-.46-.41-.68-.57-.8-1.45-1-2.91-2-4.4-2.96-.14-.09-.6,.01-.65,.14-.1,.23-.14,.69,0,.81,1.33,1.07,2.68,2.14,4.1,3.09,.27,.18,.88-.15,1.52-.28Z"/><path d="M748.47,220.09l2.2-.46c.34,2.39,.7,4.62,.94,6.86,.03,.25-.65,.86-.86,.8-.46-.12-1.12-.51-1.2-.89-.43-2-.71-4.03-1.08-6.31Zm1.88,6.35l.49-.02-.85-5.77-.61,.1c.32,1.9,.65,3.8,.97,5.7Z"/><path d="M618.48,346.95c2.52-4.28,5.36-4.52,7.56-.75-2.49,.25-4.86,.48-7.56,.75Zm1.86-.96c1.44-.14,2.78-.28,4.15-.41-1.43-1.93-2.53-1.83-4.15,.41Z"/><path d="M613.88,367.1c-2.22-1.5-4.14-2.8-6.35-4.3,2.04-.78,3.68-1.1,5.25-.07,1.43,.94,1.29,2.44,1.1,4.37Zm-4.4-3.91c1.38,.93,2.47,1.67,3.71,2.51-.21-2.44-.95-2.96-3.71-2.51Z"/><path d="M498.17,347.09c.73-1.29,1.46-2.59,2.2-3.88,.24-.43,.53-.83,.9-1.41l2.06,1.34c-.95,1.38-1.9,2.61-2.68,3.94-.82,1.4-1.56,1.09-2.48,.02Zm1.02-.23c1.73-1.02,2.88-3.03,2.36-4.07-.83,1.44-1.6,2.75-2.36,4.07Z"/><path d="M733.56,214.41c-2.6-2.44-2.54-3.18,.44-6.03,2.98,1.79,2.88,3.13-.44,6.03Zm-.07-1.15c2.3-2.3,2.36-2.73,.47-3.89-.56,.78-1.12,1.57-1.68,2.35,.47,.6,.84,1.07,1.21,1.54Z"/><path d="M691.3,245.58c-.16,.93-.28,1.62-.42,2.44-1.68-.22-3.28-.35-4.83-.71-.32-.07-.61-1.03-.58-1.57,.01-.3,.7-.85,1.05-.82,1.53,.12,3.06,.4,4.78,.66Zm-5.03,.19l-.05,.5c1.79,1,3.72,1.02,4.15-.09-1.39-.14-2.75-.28-4.1-.41Z"/><path d="M523.98,357.14c.26-.8,.45-1.41,.69-2.16,1.77,.55,3.39,1.05,5.25,1.63-.2,.76-.39,1.47-.64,2.42-1.83-.65-3.51-1.25-5.3-1.89Zm4.88,.56l.1-.56c-1.26-.39-2.52-.78-3.78-1.17l-.16,.62c1.26,.43,2.38,1.38,3.84,1.11Z"/><path d="M555.31,183.45c5.54,6.72,8.35,11.92,5.29,17.48-3.24-5.36-5.61-10.74-5.29-17.48Zm5.14,15.71c1.6-3.62-.67-10.34-4.32-12.95,.21,4.76,2.01,8.86,4.32,12.95Z"/></svg>