<?xml version="1.0" encoding="UTF-8"?><svg id="Layer_8" xmlns="http://www.w3.org/2000/svg" viewBox="0 0 24 18"><defs><style>.cls-1{fill:#1a1a1a;}</style></defs><path class="cls-1" d="M20.47,11.65c1.4,1.52-.16,3.95-2.15,3.23,1.46-.31,2.47-1.49,2.15-3.23ZM4.32,14.87c1.99,.72,3.55-1.71,2.15-3.23,.32,1.74-.68,2.92-2.15,3.23ZM16.87,1.31C16.59,.55,15.86,0,15,0,13.7,0,12.69,1.24,13.1,2.58c1.11-.39,2.35-1.1,3.78-1.27Zm7.13,11.69c0,2.76-2.24,5-5,5-4.04,0-4.16-4.12-7-4.12s-2.96,4.12-7,4.12c-2.76,0-5-2.24-5-5,0-2.14,1.53-4.57,3.94-8.82,1.91-3.37,4.75-1.26,6.82-.59,.78,.26,1.65,.27,2.49,0,2.06-.67,4.91-2.79,6.82,.59,2.41,4.25,3.94,6.69,3.94,8.82Zm-16,0c0-1.65-1.35-3-3-3s-3,1.35-3,3,1.35,3,3,3,3-1.35,3-3Zm5-2c0-.55-.45-1-1-1s-1,.45-1,1,.45,1,1,1,1-.45,1-1Zm9,2c0-1.65-1.35-3-3-3s-3,1.35-3,3,1.35,3,3,3,3-1.35,3-3ZM9,0c-.86,0-1.59,.55-1.87,1.31,1.43,.17,2.66,.88,3.77,1.27C11.31,1.24,10.3,0,9,0Z"/></svg>