<?xml version="1.0" encoding="UTF-8"?><svg id="Layer_8" xmlns="http://www.w3.org/2000/svg" viewBox="0 0 690.64 650.31"><defs><style>.cls-1{fill:#1a1a1a;}.cls-2{fill:none;stroke:#2f2523;stroke-linejoin:round;stroke-width:4px;}</style></defs><path class="cls-2" d="M297.79,159.48c-2.42-.72-4.32-3.97-5.92-6.42-2.71-4.16-5.18-8.51-7.39-12.96-1.46-2.93-3.14-6.14-3.24-9.27-.24-7.38,.65-14.79,.59-22.18-.03-4.12,1.69-6.95,4.48-9.52,2.44-2.26,4.72-4.69,7.27-6.82,7.3-6.1,13.49-20.87,12.4-30.41-.63-5.49,3.64-6.2,7.1-7.31,3.53-1.13,7.3-1.5,12.11-2.43-6-4.12-3.51-7.05,.06-9.25,7.11-4.39,13.38-10.48,22.23-11.58,.63-.08,1.53-.34,1.78-.81,3.86-7.24,12.72-6.76,18.39-12.08,5.02-4.71,13.78-5.99,21.15-7.48,5.74-1.16,11.89-.14,17.84-.42,2.15-.1,4.26-1.14,6.36-1.8,.63-.2,1.17-.76,1.8-.84,13.32-1.72,25.88-8.47,40.06-4.87,6.31,1.6,13.23,.7,19.82,1.37,6.5,.66,12.94,1.87,19.4,2.88,1.31,.2,2.65,.93,3.9,.77,10.29-1.29,20.17,.54,29.75,4.04,6.52,2.38,13.12,4.77,19.23,8.02,7.02,3.72,13.6,8.3,20.21,12.73,1.36,.91,2.47,2.71,2.94,4.32,1.33,4.5,2.17,9.14,3.39,13.68,1.05,3.9,3.87,6.08,7.72,7.04,2.91,.73,5.89,1.26,8.69,2.29,7.57,2.77,11.15,8.8,10.48,16.66-.6,7.01,1.07,13.48,4.19,19.87,2.3,4.72,4.43,10.07,4.54,15.18,.13,5.98,2.43,10.47,5.41,15.11,2.59,4.03,1.24,7.21-2.74,9.82-1.67,1.1-2.86,3.87-3.11,6.01-.62,5.44,.22,11.14-1.02,16.39-1.29,5.45-4.3,10.5-6.61,15.7-.72,1.61-2.2,3.1-2.32,4.72-1.17,16.25-6.79,31.33-11.39,46.76-2.92,9.8-3.63,20.26-5.4,30.41-1.39,8-3.06,15.96-4.27,23.99-.59,3.91-.27,7.95-.63,11.9-.47,5.11-1.04,10.23-1.94,15.28-.24,1.36-1.67,2.83-2.95,3.5-.5,.26-2.35-1.37-3.13-2.46-.69-.96-1.48-1.77-2.32-2.44,5.1,19.84,29.4,52.2,31.57,55.07,1.19,.44,2.38,.88,3.6,1.27,6.72,2.15,12.56,5.27,17.62,9.88,5.09,4.63,9.46,10.07,14.64,14.59,18.06,15.77,36.33,31.29,54.51,46.91v214h-240c.28-14.85,1.05-29.47,7.69-43.36,2.88-6.01,4.48-13.12,4.75-19.8,.9-22.94,1.02-45.9,1.27-68.86,.06-5.32-1.91-9.9-5.86-13.84-1.24-1.23-1.64-4.97-.69-6.44,3.47-5.41,7.31-10.68,11.68-15.39,5-5.38,6.09-7.05,2.19-13.33-6.39-10.29-13.55-20.1-20.26-30.19-10.95-16.47-21.88-32.95-32.66-49.53-4.26-6.56-8.13-13.38-12.11-20.12-4.38-7.44-10.91-11.34-19.46-10.76-9.12,.62-18.18,2.04-27.27,3.05-8.41,.94-16.78,2.75-25.19-.42-9.35-3.52-13.41-8.86-13.07-18.85,.14-3.96,1.11-7.89,1.73-11.83,1.26-7.88-.13-10.55-7.24-13.82-8.6-3.96-9.92-6.76-7.99-16.09,.24-1.15-.3-2.87-1.1-3.76-4.35-4.77-4.65-8.11-.84-13.7,4.62-6.79,3.61-10.02-4.03-13.02-3.87-1.52-7.91-2.77-11.52-4.77-7.6-4.21-8.72-10.79-3.21-17.4,9.97-11.94,16.77-25.59,21.72-40.22,1.84-5.44,1.79-10.58-1.95-15.6-4.36-5.85-2.88-12.83-2.2-19.38,.52-5.07,1.47-9.39-5.22-11.39Z"/><path class="cls-2" d="M392.85,159.48c2.42-.72,4.32-3.97,5.92-6.42,2.71-4.16,5.18-8.51,7.39-12.96,1.46-2.93,3.14-6.14,3.24-9.27,.24-7.38-.65-14.79-.59-22.18,.03-4.12-1.69-6.95-4.48-9.52-2.44-2.26-4.72-4.69-7.27-6.82-7.3-6.1-13.49-20.87-12.4-30.41,.63-5.49-3.64-6.2-7.1-7.31-3.53-1.13-7.3-1.5-12.11-2.43,6-4.12,3.51-7.05-.06-9.25-7.11-4.39-13.38-10.48-22.23-11.58-.63-.08-1.53-.34-1.78-.81-3.86-7.24-12.72-6.76-18.39-12.08-5.02-4.71-13.78-5.99-21.15-7.48-5.74-1.16-11.89-.14-17.84-.42-2.15-.1-4.26-1.14-6.36-1.8-.63-.2-1.17-.76-1.8-.84-13.32-1.72-25.88-8.47-40.06-4.87-6.31,1.6-13.23,.7-19.82,1.37-6.5,.66-12.94,1.87-19.4,2.88-1.31,.2-2.65,.93-3.9,.77-10.29-1.29-20.17,.54-29.75,4.04-6.52,2.38-13.12,4.77-19.23,8.02-7.02,3.72-13.6,8.3-20.21,12.73-1.36,.91-2.47,2.71-2.94,4.32-1.33,4.5-2.17,9.14-3.39,13.68-1.05,3.9-3.87,6.08-7.72,7.04-2.91,.73-5.89,1.26-8.69,2.29-7.57,2.77-11.15,8.8-10.48,16.66,.6,7.01-1.07,13.48-4.19,19.87-2.3,4.72-4.43,10.07-4.54,15.18-.13,5.98-2.43,10.47-5.41,15.11-2.59,4.03-1.24,7.21,2.74,9.82,1.67,1.1,2.86,3.87,3.11,6.01,.62,5.44-.22,11.14,1.02,16.39,1.29,5.45,4.3,10.5,6.61,15.7,.72,1.61,2.2,3.1,2.32,4.72,1.17,16.25,6.79,31.33,11.39,46.76,2.92,9.8,3.63,20.26,5.4,30.41,1.39,8,3.06,15.96,4.27,23.99,.59,3.91,.27,7.95,.63,11.9,.47,5.11,1.04,10.23,1.94,15.28,.24,1.36,1.67,2.83,2.95,3.5,.5,.26,2.35-1.37,3.13-2.46,.69-.96,1.48-1.77,2.32-2.44-5.1,19.84-29.4,52.2-31.57,55.07-1.19,.44-2.38,.88-3.6,1.27-6.72,2.15-12.56,5.27-17.62,9.88-5.09,4.63-9.46,10.07-14.64,14.59-18.06,15.77-36.33,31.29-54.51,46.91v214c80,0,160,0,240,0-.28-14.85-1.05-29.47-7.69-43.36-2.88-6.01-4.48-13.12-4.75-19.8-.9-22.94-1.02-45.9-1.27-68.86-.06-5.32,1.91-9.9,5.86-13.84,1.24-1.23,1.64-4.97,.69-6.44-3.47-5.41-7.31-10.68-11.68-15.39-5-5.38-6.09-7.05-2.19-13.33,6.39-10.29,13.55-20.1,20.26-30.19,10.95-16.47,21.88-32.95,32.66-49.53,4.26-6.56,8.13-13.38,12.11-20.12,4.38-7.44,10.91-11.34,19.46-10.76,9.12,.62,18.18,2.04,27.27,3.05,8.41,.94,16.78,2.75,25.19-.42,9.35-3.52,13.41-8.86,13.07-18.85-.14-3.96-1.11-7.89-1.73-11.83-1.26-7.88,.13-10.55,7.24-13.82,8.6-3.96,9.92-6.76,7.99-16.09-.24-1.15,.3-2.88,1.1-3.76,4.35-4.77,4.65-8.11,.84-13.7-4.62-6.79-3.61-10.02,4.03-13.02,3.87-1.52,7.91-2.77,11.52-4.77,7.6-4.21,8.72-10.79,3.21-17.4-9.97-11.94-16.77-25.59-21.72-40.22-1.84-5.44-1.79-10.58,1.95-15.6,4.36-5.85,2.88-12.83,2.2-19.38-.52-5.07-1.47-9.39,5.22-11.39Z"/><g><path class="cls-1" d="M345.33,31.72c6.6,1.47,11.8,5.65,17.23,9.34-5.43-3.7-10.63-7.86-17.23-9.34Z"/><path class="cls-1" d="M334.76,359.98c-.68-.19-1.36-.41-2.04-.66-9.35-3.52-13.41-8.86-13.07-18.85,.14-3.96,1.11-7.89,1.73-11.83,1.26-7.88-.13-10.55-7.24-13.82-8.6-3.96-9.92-6.76-7.99-16.09,.24-1.15-.3-2.88-1.1-3.76-4.35-4.77-4.65-8.11-.84-13.7,4.62-6.79,3.61-10.02-4.03-13.02-3.87-1.52-7.91-2.77-11.52-4.77-7.6-4.21-8.72-10.79-3.21-17.4,9.97-11.94,16.77-25.59,21.72-40.22,1.84-5.44,1.79-10.58-1.95-15.6-4.36-5.85-2.88-12.83-2.2-19.38,.52-5.07,1.47-9.39-5.22-11.39-2.42-.72-4.32-3.97-5.92-6.42-2.71-4.16-5.18-8.51-7.39-12.96-1.46-2.93-3.14-6.14-3.24-9.27-.24-7.38,.65-14.79,.59-22.18-.03-4.12,1.69-6.95,4.48-9.52,2.44-2.26,4.72-4.69,7.27-6.82,7.3-6.1,13.49-20.87,12.4-30.41-.63-5.49,3.64-6.2,7.1-7.31,3.53-1.13,7.3-1.5,12.11-2.43-6-4.12-3.51-7.05,.06-9.25,6.52-4.03,12.34-9.47,20.08-11.19-.7-.16-1.41-.29-2.14-.38-.63-.08-1.53-.34-1.78-.81-3.86-7.24-12.72-6.76-18.39-12.08-5.02-4.71-13.78-5.99-21.15-7.48-5.74-1.16-11.89-.14-17.84-.42-2.15-.1-4.26-1.14-6.36-1.8-.63-.2-1.17-.76-1.8-.84-13.32-1.72-25.88-8.47-40.06-4.87-6.31,1.6-13.23,.7-19.82,1.37-6.5,.66-12.94,1.88-19.4,2.88-1.31,.2-2.65,.93-3.9,.77-10.29-1.29-20.17,.54-29.75,4.04-6.52,2.38-13.12,4.77-19.23,8.02-7.02,3.72-13.6,8.3-20.21,12.73-1.36,.91-2.47,2.71-2.94,4.32-1.33,4.5-2.17,9.14-3.39,13.68-1.05,3.9-3.87,6.08-7.72,7.04-2.91,.73-5.89,1.26-8.69,2.29-7.57,2.77-11.15,8.8-10.48,16.66,.6,7.01-1.07,13.48-4.19,19.87-2.3,4.72-4.43,10.07-4.54,15.18-.13,5.98-2.43,10.47-5.41,15.11-2.59,4.03-1.24,7.21,2.74,9.82,1.67,1.1,2.86,3.87,3.11,6.01,.62,5.44-.22,11.14,1.02,16.39,1.29,5.45,4.3,10.5,6.61,15.7,.72,1.61,2.2,3.1,2.32,4.72,1.17,16.25,6.79,31.33,11.39,46.76,2.92,9.8,3.63,20.26,5.4,30.41,1.39,8,3.06,15.96,4.27,23.99,.59,3.91,.27,7.95,.63,11.9,.47,5.11,1.04,10.23,1.94,15.28,.24,1.36,1.67,2.83,2.95,3.5,.5,.26,2.35-1.37,3.13-2.46,.69-.96,1.48-1.77,2.32-2.44-5.1,19.84-29.4,52.2-31.57,55.07-1.19,.44-2.38,.88-3.6,1.27-6.72,2.15-12.56,5.27-17.62,9.88-5.09,4.63-9.46,10.07-14.64,14.59-18.06,15.77-36.33,31.29-54.51,46.91v214H242c-.28-14.85-1.05-29.47-7.69-43.36-2.88-6.01-4.48-13.12-4.75-19.8-.9-22.94-1.02-45.9-1.27-68.86-.06-5.32,1.91-9.9,5.86-13.84,1.24-1.23,1.64-4.97,.69-6.44-3.47-5.41-7.31-10.68-11.68-15.39-5-5.38-6.09-7.05-2.19-13.33,6.39-10.29,13.55-20.1,20.26-30.19,10.95-16.47,21.88-32.95,32.66-49.53,4.26-6.56,8.13-13.38,12.11-20.12,4.38-7.44,10.91-11.34,19.46-10.76,9.12,.62,18.18,2.04,27.27,3.05,.73,.08,1.45,.17,2.17,.26-.04,0-.09-.01-.13-.02Z"/><path class="cls-1" d="M362.82,41.23c.32,.22,.64,.43,.96,.64-.32-.21-.64-.42-.96-.64Z"/><path class="cls-1" d="M364.12,42.09c.43,.28,.85,.55,1.28,.82-.43-.27-.86-.54-1.28-.82Z"/><path class="cls-1" d="M342.49,360.88c-.77-.07-1.53-.14-2.3-.23,.77,.09,1.53,.16,2.3,.23Z"/><path class="cls-1" d="M355.87,359.98c-3.52,.44-7.04,.94-10.55,1.09-.81-.03-1.61-.09-2.42-.16,4.6,.38,9.2,.3,13.81-1.18-.28,.09-.56,.17-.83,.25Z"/><path class="cls-1" d="M339.67,360.58c-.71-.08-1.42-.17-2.13-.26,.71,.09,1.42,.17,2.13,.26Z"/></g></svg>