<svg xmlns="http://www.w3.org/2000/svg" viewBox="0 0 192.72 162.57"><defs><style>.cls-1{fill:#5281a2;}</style></defs><g id="Layer_7" data-name="Layer 7"><path class="cls-1" d="M0,67.73V50.81c.22-.23.61-.44.65-.7,7.06-44.52,59-61.27,94-42.14A4,4,0,0,0,98,8c14.16-9.87,30.3-8.91,45.63-6.18,43.79,7.82,62.83,54.84,38.11,91.93-3.48,5.22-7,10.57-9.32,16.34-6.55,16.53-7.49,32.58,6.38,46.5.86.86,1.54,3.35,1.07,3.81a7.28,7.28,0,0,1-4.56,2c-17.4.13-34.81,0-52.21.13-3.23,0-4.83-1.27-5.61-4.3-1.22-4.81-2.48-9.62-4.13-14.28a5.12,5.12,0,0,0-3.64-2.88q-13.36-.37-26.74,0a5,5,0,0,0-3.58,2.83,143.08,143.08,0,0,0-4,13.79c-.83,3.38-2.47,4.9-6.19,4.87-17.23-.17-34.47,0-51.71-.17-1.67,0-3.33-1.4-5-2.15.75-1.52,1.19-3.33,2.3-4.52,4.76-5.08,8.06-10.8,9.23-17.77,2.17-12.9-.9-24.77-7.66-35.59S2.51,80.68,0,67.73Zm102.83-55c4.26,8.42,9.23,16.32,12.31,24.88,2.84,7.9,5.57,16.45.75,25-.54.95.31,2.83.79,4.18,3.29,9.18,6.71,18.32,9.95,27.52,2,5.6-.46,9-6.44,9.23-1.57.06-3.15,0-5,0,.44,6.21.1,11.44-5.25,14.77-.54.33-.69,1.41-.87,2.18-1.07,4.57-2.09,9.16-3.18,14a30.91,30.91,0,0,0,5.33,0c5.05-.8,7.13,1.64,8.15,6.27,1.16,5.25,2.9,10.37,4.28,15.18h45.74c-11-17.3-9.41-34.45-1.22-51.52,2.78-5.8,6.45-11.18,9.91-16.62C196.6,58.6,182.91,19.93,149.82,10,141,7.35,131.23,7.62,121.87,7.11A30.5,30.5,0,0,0,102.83,12.71ZM72,96.78a51,51,0,0,0,5.87.22c4.83-.45,6.67,1.79,6.25,6.44a22.15,22.15,0,0,0,.09,5.46c.19,1.18.92,3.11,1.65,3.24,5.34.89,4.63,4.83,4.51,8.42-.17,5.16,1.32,9.35,6,11.95,5.15-3.72,6.21-5.89,6.2-12.81,0-3.34-.55-6.82,4.34-7.47.71-.09,1.52-2,1.66-3.19a44.76,44.76,0,0,0,.08-7c-.17-3.64,1.61-5.11,5.1-5.07,2.19,0,4.39-.18,7.07-.31-3.84-10.55-7.45-20.3-10.9-30.1-.57-1.61-1.23-3.9-.52-5.11,3.33-5.7,2.36-11.52,1.08-17.36-2.19-10-6.4-19-14.22-26.34A52.07,52.07,0,0,0,81.55,49.54c-.28,2.87-.45,6.18.69,8.66a11.8,11.8,0,0,1,.21,9.94C78.93,77.38,75.63,86.7,72,96.78Z"/></g></svg>