<svg xmlns="http://www.w3.org/2000/svg" viewBox="0 0 209.48 209.06"><defs><style>.cls-1{fill:#5281a2;}</style></defs><g id="Layer_7" data-name="Layer 7"><g id="CD1ZuS"><path class="cls-1" d="M145.34,96.57c15.69,28.84,11.21,70.26-19.55,95.15C95.24,216.43,52,214.52,23.55,187.35-4.11,160.93-7.87,118,14.73,86.53,36.65,56.05,79,45.73,112.3,63.38c-4,4-7.59,7.94-11.65,11.42-.91.78-3.41.1-5-.41-31.95-10.06-66,7.2-75.87,39.19C12.51,137,17.8,158,35.33,175s38.87,21.71,61.9,13.51,36.64-25.14,39.49-49.48c1-8.19-.83-16.81-2.15-25.11-.51-3.19-.4-5.11,2-7.37C139.62,103.63,142.23,100.16,145.34,96.57Z"/><path class="cls-1" d="M88,86.7c-1.61,3.74-3.33,7.14-4.54,10.72-1.13,3.37-2.58,4.74-6.61,4.74a29.32,29.32,0,0,0-29.4,27.55,29.8,29.8,0,0,0,58.81,8.7c.77-3.36.7-6.91,1-10.63l15-6.76c5.6,18.71-3.4,40.42-21.37,51.07a46.72,46.72,0,0,1-63.65-64.53C47.89,90.09,69.88,81.08,88,86.7Z"/><path class="cls-1" d="M196.31,37.1a36.65,36.65,0,0,1-2.7,3.54Q159.35,75,125.07,109.26c-2.37,2.38-4.17,2.52-6.62,0s-2.23-4.34.13-6.7q34.35-34.23,68.67-68.49c1.06-1.05,3.46-2,4.55-1.49C193.55,33.38,194.74,35.43,196.31,37.1Z"/><path class="cls-1" d="M103.35,93.59c-1.58-1.48-3.43-2.7-4.5-4.41-.52-.83.32-2.61.75-3.89.19-.57.87-1,1.34-1.45q33.7-33.71,67.38-67.46c2.79-2.82,4.77-3.41,7.68-.15,2.12,2.39,1.71,3.95-.23,5.89Q141.15,56.7,106.56,91.27A27.22,27.22,0,0,1,103.35,93.59Z"/><path class="cls-1" d="M111.12,103.91c-1.19-2-2.79-3.75-3.24-5.76a5.93,5.93,0,0,1,1.66-4.57c13-13.16,26-26.19,39.1-39.25q14.48-14.47,28.94-28.95c2.17-2.18,3.92-3.71,7-.68s1.94,4.94-.5,7.37q-34,33.82-67.84,67.7C115.18,100.8,114,101.62,111.12,103.91Z"/><path class="cls-1" d="M200.93,33.38,175.84,8c3.86-2.46,7.53-5.43,11.69-7.27,3.65-1.61,7.47-.68,10.4,2.59a61.1,61.1,0,0,0,6.36,6.31c8,6.59,5.53,13,1,19.11A54.35,54.35,0,0,1,200.93,33.38Z"/><path class="cls-1" d="M94.1,132.91c-1.3,10.27-8.79,16.82-17.88,16.19a17.37,17.37,0,0,1-16.35-17.51c.12-9.07,7-16,16.72-16.68-1.67,4.22-3.29,8.3-4.88,12.4-1.39,3.54-3.42,7.16.18,10.57,3.37,3.2,6.77,1.3,10.16-.11C85.87,136.18,89.73,134.67,94.1,132.91Z"/><path class="cls-1" d="M115.29,117.31c-5.45,2.22-11.18,4.73-17.05,6.89C95.31,125.27,84,114,85,111c1.42-4.26,3.21-8.39,4.87-12.57.66-1.66,1.39-3.28,2.06-4.85Z"/><path class="cls-1" d="M81.64,119.69l8.24,7.82-13.47,5.65C78.34,128.19,79.84,124.31,81.64,119.69Z"/></g></g></svg>