<?xml version="1.0" encoding="UTF-8"?><svg xmlns="http://www.w3.org/2000/svg" viewBox="0 0 798.79 428.53"><defs><style>.f{letter-spacing:0em;}.g{letter-spacing:0em;}.h{fill:#fff;}.i,.j{fill:#231f20;}.k{fill:#479d6e;}.l{fill:#387e40;}.j{font-family:BasisGrotesqueArabicPro-Regular, Basis Grotesque Arabic Pro;font-size:19.8px;}.m{letter-spacing:-.09em;}.n{letter-spacing:0em;}.o{letter-spacing:-.03em;}.p{letter-spacing:0em;}.q{letter-spacing:0em;}.r{letter-spacing:-.01em;}.s{letter-spacing:0em;}.t{letter-spacing:0em;}</style></defs><g id="a"/><g id="b"><g id="c"/></g><g id="d"/><g id="e"><g><path class="h" d="M428.64,.1h-3.47c-9.85-.3-19.62,.73-29.34,2.04-26.41,3.56-51.28,11.86-74.55,24.84-39.57,22.07-69.36,53.53-89.1,94.23-15.97,32.94-22.96,67.86-20.94,104.5,.9,16.33,3.46,32.39,8.09,48.07,11.41,38.63,31.87,71.66,61.68,98.85,17.43,15.9,36.94,28.63,58.58,37.95,30.64,13.2,62.64,19.22,96.06,17.53,16.11-.81,31.9-3.37,47.38-7.73,32.17-9.06,60.65-24.83,85.52-47.19,20.04-18.02,36.07-39.07,48.13-63.13,11.12-22.2,18.21-45.64,21.12-70.3,.69-5.84,1.49-11.69,1.41-17.6,0-.31-.01-.61-.02-.92,.38-2.15,.3-4.31,.16-6.48,.08-14.94-1.18-29.79-4.55-44.33-17-73.2-59.96-124.92-129.1-154.53C483.13,6.23,459.34,1.27,434.75,.4c-2.01-.54-4.06-.41-6.1-.3Z"/><path class="k" d="M639.22,222.15c.08,5.91-.72,11.75-1.41,17.6-2.91,24.67-10,48.11-21.12,70.3-12.05,24.07-28.08,45.12-48.13,63.13-24.87,22.35-53.35,38.13-85.52,47.19-15.49,4.36-31.27,6.92-47.38,7.73-33.42,1.69-65.42-4.33-96.06-17.53-21.64-9.32-41.15-22.05-58.58-37.95-29.81-27.19-50.27-60.22-61.68-98.85-4.63-15.68-7.19-31.74-8.09-48.07-2.02-36.64,4.97-71.56,20.94-104.5,19.74-40.7,49.52-72.17,89.1-94.23,23.27-12.98,48.14-21.28,74.55-24.84,9.72-1.31,19.49-2.34,29.34-2.04-.01,.75-.04,1.5-.04,2.25,0,69.66,0,139.33,0,208.99,0,.33,.03,.67,0,1-.15,1.35,.36,1.81,1.8,1.94,6.79,.59,13.6,.52,20.39,.84,9.12,.44,18.25,.7,27.38,1.04,8.96,.33,17.92,.66,26.88,.99,9.21,.34,18.42,.68,27.63,1,8.96,.32,17.92,.67,26.88,.99,9.13,.33,18.25,.57,27.38,1.02,7.63,.38,15.29,.41,22.93,.6,.42,.01,.83,.02,1.25,.04,10.53,.45,21.05,.9,31.58,1.35Z"/><path class="l" d="M639.22,222.15c-10.53-.45-21.05-.9-31.58-1.35-.42-.02-.83-.03-1.25-.04-7.64-.19-15.29-.22-22.93-.6-9.12-.45-18.25-.69-27.38-1.02-8.96-.33-17.92-.67-26.88-.99-9.21-.33-18.42-.67-27.63-1-8.96-.33-17.92-.66-26.88-.99-9.13-.34-18.26-.6-27.38-1.04-6.79-.32-13.61-.25-20.39-.84-1.44-.13-1.95-.59-1.8-1.94,.04-.33,0-.67,0-1,0-69.66,0-139.33,0-208.99,0-.75,.02-1.5,.04-2.25h3.47c2,.74,4.06,.42,6.1,.3,24.59,.87,48.38,5.83,70.96,15.5,69.15,29.61,112.11,81.34,129.1,154.53,3.38,14.54,4.63,29.39,4.55,44.33-.65,2.15-.55,4.31-.16,6.48,0,.31,.01,.61,.02,.92Z"/><path class="k" d="M639.21,221.23c-.39-2.17-.49-4.33,.16-6.48,.14,2.16,.23,4.33-.16,6.48Z"/><path class="k" d="M434.75,.4c-2.04,.11-4.1,.43-6.1-.3,2.04-.11,4.09-.24,6.1,.3Z"/></g><g><path class="i" d="M587.56,42.95v-9.01h1.66v8.91c0,1.15,.32,2.06,.97,2.73s1.51,1.01,2.57,1.01,1.93-.34,2.57-1.01c.65-.67,.97-1.58,.97-2.73v-8.91h1.66v9.01c0,1.6-.47,2.85-1.43,3.76-.95,.91-2.21,1.37-3.78,1.37s-2.83-.46-3.78-1.37c-.95-.91-1.43-2.16-1.43-3.76Z"/><path class="i" d="M600.82,47.8v-9.82h1.58v1.74c.37-.63,.85-1.13,1.46-1.49,.6-.36,1.25-.53,1.95-.53,1.03,0,1.86,.3,2.5,.89,.63,.59,.95,1.44,.95,2.53v6.67h-1.58v-6.26c0-.74-.22-1.32-.65-1.75s-1.02-.64-1.74-.64c-.78,0-1.45,.32-2.02,.95-.57,.63-.85,1.41-.85,2.34v5.37h-1.58Z"/><path class="i" d="M611.95,36.25v-1.92h1.88v1.92h-1.88Zm.16,11.54v-9.82h1.58v9.82h-1.58Z"/><path class="i" d="M619.22,47.8l-3.94-9.82h1.7l3.03,7.92,3.03-7.92h1.7l-3.94,9.82h-1.58Z"/><path class="i" d="M625.36,42.89c-.01-1.48,.47-2.72,1.44-3.72,.97-1,2.14-1.49,3.52-1.47,1.43,0,2.57,.46,3.43,1.37s1.29,2.09,1.29,3.54v.53h-8.1c.07,1.04,.4,1.89,.99,2.55,.62,.67,1.41,1.01,2.38,1.01,1.49,0,2.58-.73,3.27-2.2l1.19,.69c-.94,1.91-2.44,2.87-4.51,2.87-1.36,0-2.51-.49-3.46-1.48-.94-.98-1.42-2.22-1.42-3.71Zm1.56-1.03h6.5c-.05-.88-.37-1.58-.96-2.1-.59-.51-1.31-.77-2.17-.77s-1.56,.27-2.19,.81-1.02,1.23-1.18,2.06Z"/><path class="i" d="M637.28,47.8v-9.82h1.58v1.76c.25-.61,.63-1.1,1.13-1.48s1.06-.56,1.68-.56c.3,0,.57,.03,.81,.1l-.26,1.45c-.24-.07-.49-.1-.75-.1-.73,0-1.34,.34-1.85,1.02s-.76,1.5-.76,2.45v5.19h-1.58Z"/><path class="i" d="M643.34,45.22l1.33-.83c.24,.74,.6,1.31,1.1,1.71,.5,.4,1.09,.6,1.79,.6,.65,0,1.17-.15,1.55-.47,.39-.31,.58-.72,.58-1.22,0-.47-.19-.85-.57-1.13-.38-.28-1.01-.5-1.88-.65-2.23-.41-3.35-1.38-3.35-2.91,0-.79,.33-1.43,.99-1.9,.65-.49,1.45-.73,2.42-.73,1.83,0,3.12,.8,3.84,2.4l-1.23,.71c-.49-1.23-1.35-1.84-2.59-1.84-.58,0-1.05,.12-1.42,.36-.36,.24-.54,.56-.54,.97,0,.82,.87,1.4,2.61,1.74,2.18,.42,3.27,1.39,3.27,2.91,0,.87-.33,1.61-1,2.22-.67,.61-1.56,.91-2.68,.91-1,0-1.87-.26-2.6-.78s-1.27-1.21-1.61-2.07Z"/><path class="i" d="M653.26,36.25v-1.92h1.88v1.92h-1.88Zm.16,11.54v-9.82h1.58v9.82h-1.58Z"/><path class="i" d="M658.63,45.28v-6.06h-1.66v-1.25h1.66v-2.65h1.6v2.65h2.34v1.25h-2.34v5.94c0,1,.45,1.5,1.35,1.5,.26,0,.52-.04,.77-.12l.14,1.33c-.36,.13-.78,.2-1.27,.2-.79,0-1.42-.23-1.89-.7-.47-.47-.7-1.17-.7-2.09Z"/><path class="i" d="M664.88,51.78l.28-1.49c.25,.13,.51,.2,.77,.2,.51,0,.92-.34,1.21-1.01l.65-1.66-4.02-9.84h1.8l3.07,7.68,3.05-7.68h1.76l-4.91,12c-.28,.7-.62,1.2-1.02,1.51s-.92,.47-1.55,.47c-.41,0-.77-.06-1.09-.18Z"/><path class="i" d="M680.03,43.78l1.49-.77c.5,2.42,1.84,3.62,4.02,3.62,1.02,0,1.84-.25,2.47-.76,.63-.51,.94-1.12,.94-1.83s-.31-1.33-.92-1.77c-.61-.44-1.55-.78-2.8-1.02-3.02-.55-4.53-1.87-4.53-3.96,0-1.07,.43-1.94,1.3-2.61s1.97-1.01,3.32-1.01c1.23,0,2.28,.3,3.17,.9,.88,.6,1.51,1.43,1.86,2.48l-1.31,.77c-.63-1.81-1.88-2.71-3.74-2.71-.88,0-1.6,.19-2.16,.58-.55,.39-.83,.91-.83,1.57s.31,1.24,.93,1.66c.62,.42,1.58,.76,2.89,1.01,3,.57,4.49,1.89,4.49,3.98,0,1.19-.47,2.18-1.42,2.97-.94,.79-2.15,1.19-3.63,1.19s-2.75-.4-3.7-1.19c-.96-.82-1.57-1.85-1.82-3.11Z"/><path class="i" d="M693.54,45.28v-6.06h-1.66v-1.25h1.66v-2.65h1.6v2.65h2.34v1.25h-2.34v5.94c0,1,.45,1.5,1.35,1.5,.26,0,.52-.04,.77-.12l.14,1.33c-.36,.13-.78,.2-1.27,.2-.79,0-1.42-.23-1.89-.7-.47-.47-.7-1.17-.7-2.09Z"/><path class="i" d="M699.38,44.39v-6.42h1.58v6.22c0,.78,.21,1.38,.63,1.8,.42,.42,1,.63,1.72,.63,.8,0,1.49-.32,2.04-.97,.55-.65,.83-1.47,.83-2.46v-5.23h1.6v9.82h-1.6v-1.72c-.32,.61-.77,1.09-1.36,1.46-.59,.36-1.23,.54-1.93,.54-1.06,0-1.91-.32-2.55-.95-.65-.63-.97-1.54-.97-2.73Z"/><path class="i" d="M710.01,42.89c0-1.49,.46-2.73,1.37-3.71,.91-.98,2.02-1.48,3.33-1.48,1.64,0,2.79,.65,3.47,1.94v-5.7h1.58v13.86h-1.58v-1.74c-.29,.59-.74,1.08-1.36,1.46-.61,.38-1.3,.56-2.05,.56-1.37,0-2.51-.49-3.41-1.47s-1.35-2.22-1.35-3.72Zm7.34,2.67c.63-.71,.94-1.6,.94-2.67s-.31-1.96-.94-2.67c-.63-.71-1.42-1.07-2.39-1.07s-1.76,.35-2.39,1.05c-.63,.7-.94,1.6-.94,2.69s.31,1.99,.94,2.69c.63,.7,1.42,1.05,2.39,1.05s1.76-.36,2.39-1.07Z"/><path class="i" d="M721.97,42.89c-.01-1.48,.47-2.72,1.44-3.72,.97-1,2.14-1.49,3.52-1.47,1.43,0,2.57,.46,3.43,1.37s1.29,2.09,1.29,3.54v.53h-8.1c.07,1.04,.4,1.89,.99,2.55,.62,.67,1.41,1.01,2.38,1.01,1.49,0,2.58-.73,3.27-2.2l1.19,.69c-.94,1.91-2.44,2.87-4.51,2.87-1.36,0-2.51-.49-3.46-1.48-.94-.98-1.42-2.22-1.42-3.71Zm1.56-1.03h6.5c-.05-.88-.37-1.58-.96-2.1-.59-.51-1.31-.77-2.17-.77s-1.56,.27-2.19,.81-1.02,1.23-1.18,2.06Z"/><path class="i" d="M733.89,47.8v-9.82h1.58v1.74c.37-.63,.85-1.13,1.46-1.49,.6-.36,1.25-.53,1.95-.53,1.03,0,1.86,.3,2.5,.89,.63,.59,.95,1.44,.95,2.53v6.67h-1.58v-6.26c0-.74-.22-1.32-.65-1.75s-1.02-.64-1.74-.64c-.78,0-1.45,.32-2.02,.95-.57,.63-.85,1.41-.85,2.34v5.37h-1.58Z"/><path class="i" d="M745.42,45.28v-6.06h-1.66v-1.25h1.66v-2.65h1.6v2.65h2.34v1.25h-2.34v5.94c0,1,.45,1.5,1.35,1.5,.26,0,.52-.04,.77-.12l.14,1.33c-.36,.13-.78,.2-1.27,.2-.79,0-1.42-.23-1.89-.7-.47-.47-.7-1.17-.7-2.09Z"/><path class="i" d="M750.78,45.22l1.33-.83c.24,.74,.6,1.31,1.1,1.71,.5,.4,1.09,.6,1.79,.6,.65,0,1.17-.15,1.55-.47,.39-.31,.58-.72,.58-1.22,0-.47-.19-.85-.57-1.13-.38-.28-1.01-.5-1.88-.65-2.23-.41-3.35-1.38-3.35-2.91,0-.79,.33-1.43,.99-1.9,.65-.49,1.45-.73,2.42-.73,1.83,0,3.12,.8,3.84,2.4l-1.23,.71c-.49-1.23-1.35-1.84-2.59-1.84-.58,0-1.05,.12-1.42,.36-.36,.24-.54,.56-.54,.97,0,.82,.87,1.4,2.61,1.74,2.18,.42,3.27,1.39,3.27,2.91,0,.87-.33,1.61-1,2.22-.67,.61-1.56,.91-2.68,.91-1,0-1.87-.26-2.6-.78s-1.27-1.21-1.61-2.07Z"/><path class="i" d="M646.15,71.56v-1.17l5.33-5.27c.71-.71,1.22-1.34,1.51-1.89,.3-.55,.45-1.14,.45-1.77,0-.79-.25-1.42-.76-1.89-.51-.47-1.2-.7-2.07-.7-.82,0-1.49,.25-2.01,.75-.52,.5-.78,1.16-.78,1.96,0,.32,.06,.62,.18,.91l-1.56,.28c-.16-.42-.24-.86-.24-1.33,0-1.08,.42-2.02,1.25-2.82,.83-.8,1.89-1.2,3.19-1.2,1.37,0,2.45,.36,3.24,1.08,.78,.72,1.18,1.65,1.18,2.8,0,.86-.18,1.65-.55,2.38-.34,.69-.99,1.51-1.94,2.46l-3.84,3.82h6.4v1.6h-8.95Z"/><path class="i" d="M657.2,67.98c0-.33,.05-.67,.16-1.01l1.54,.38c-.05,.2-.08,.39-.08,.57,0,.78,.27,1.39,.81,1.83,.54,.44,1.27,.66,2.2,.66,1,0,1.81-.32,2.42-.96,.61-.64,.91-1.49,.91-2.56s-.29-1.9-.86-2.5c-.57-.6-1.36-.9-2.37-.9-.66,0-1.28,.2-1.86,.59-.58,.4-1.06,.9-1.43,1.51l-1.37-.38,.69-7.51h8v1.49h-6.73l-.52,4.65c.42-.55,.94-.98,1.56-1.29,.62-.3,1.27-.46,1.94-.46,1.45,0,2.58,.44,3.39,1.33,.8,.86,1.21,2.01,1.21,3.47s-.47,2.62-1.41,3.55c-.94,.93-2.14,1.4-3.6,1.4-1.37,0-2.49-.38-3.34-1.14-.85-.76-1.28-1.67-1.28-2.72Z"/><path class="i" d="M668.49,71.56v-1.96h1.94v1.96h-1.94Z"/><path class="i" d="M672.09,65.44c0-1.69,.28-3.21,.83-4.55,.45-1.1,1.08-1.95,1.88-2.55,.8-.61,1.7-.91,2.69-.91,1.21,0,2.19,.31,2.93,.92,.74,.61,1.11,1.4,1.11,2.37,0,.42-.07,.77-.2,1.05l-1.55-.34c.09-.24,.14-.49,.14-.75,0-.59-.21-1.06-.62-1.39s-1.01-.5-1.79-.5c-1.1,0-1.98,.53-2.66,1.6-.68,1.07-1.06,2.47-1.14,4.2,.38-.65,.92-1.16,1.6-1.53,.69-.38,1.41-.56,2.16-.56,1.32,0,2.42,.44,3.31,1.31,.88,.87,1.33,1.97,1.33,3.31s-.46,2.44-1.4,3.36c-.93,.92-2.1,1.38-3.5,1.38-1.6,0-2.85-.56-3.76-1.69s-1.37-2.7-1.37-4.7Zm8.38,1.72c0-.99-.31-1.78-.94-2.38s-1.4-.89-2.33-.89-1.72,.3-2.36,.89c-.63,.59-.95,1.39-.95,2.38s.32,1.77,.96,2.37c.64,.6,1.42,.9,2.35,.9s1.68-.3,2.32-.9c.63-.6,.95-1.39,.95-2.37Z"/><path class="i" d="M684.95,63.36c-.64-.66-.96-1.49-.96-2.48s.32-1.82,.96-2.48c.64-.66,1.45-.99,2.43-.99s1.78,.33,2.42,.99c.63,.66,.95,1.49,.95,2.48s-.32,1.82-.95,2.48c-.63,.66-1.44,.99-2.42,.99s-1.79-.33-2.43-.99Zm3.91-.86c.38-.42,.57-.95,.57-1.61s-.19-1.2-.57-1.61c-.38-.42-.88-.62-1.48-.62s-1.1,.21-1.49,.62c-.38,.42-.57,.95-.57,1.61s.19,1.2,.57,1.61c.38,.42,.88,.62,1.49,.62s1.1-.21,1.48-.62Zm-.91,9.06l-1.01-.69,8.61-13.17,1.03,.69-8.63,13.17Zm5.77-.71c-.64-.66-.96-1.49-.96-2.48s.32-1.82,.96-2.48c.64-.66,1.45-.99,2.43-.99s1.79,.33,2.43,.99c.64,.66,.96,1.49,.96,2.48s-.32,1.82-.96,2.48c-.64,.66-1.45,.99-2.43,.99s-1.79-.33-2.43-.99Zm3.91-.86c.38-.42,.57-.95,.57-1.61s-.19-1.2-.57-1.61c-.38-.42-.88-.62-1.49-.62s-1.1,.21-1.49,.62c-.38,.42-.57,.95-.57,1.61s.19,1.2,.57,1.61c.38,.42,.88,.62,1.49,.62s1.1-.21,1.49-.62Z"/></g><text class="j" transform="translate(42.16 368.99)"><tspan x="0" y="0">High-</tspan><tspan class="g" x="50.06" y="0">s</tspan><tspan class="p" x="59.5" y="0">c</tspan><tspan class="n" x="70.16" y="0">h</tspan><tspan x="81.45" y="0">ool </tspan><tspan class="t" x="115.07" y="0">s</tspan><tspan class="r" x="124.42" y="0">t</tspan><tspan class="f" x="131.03" y="0">ude</tspan><tspan class="o" x="165.54" y="0">n</tspan><tspan class="q" x="176.29" y="0">t</tspan><tspan class="s" x="182.97" y="0">s</tspan><tspan class="m" x="69.78" y="23.76">7</tspan><tspan class="s" x="78.54" y="23.76">4.4%</tspan></text></g></svg>