<svg xmlns="http://www.w3.org/2000/svg" viewBox="0 0 675.5 868.53"><defs><style>.cls-1{fill:#181818;}.cls-2{fill:#231f20;}.cls-3{fill:#f1ad90;}.cls-4{fill:#f5c3ac;}.cls-5{fill:#e99992;}.cls-6{fill:#f8bbcb;}.cls-7{fill:#c47563;}.cls-8{fill:#d1d3d4;}.cls-9{fill:#351114;}.cls-10{fill:#da9a82;}.cls-11{fill:#3c2415;}.cls-12{fill:#603913;}.cls-13{fill:#181816;}.cls-14{fill:#d92647;}.cls-15{fill:none;stroke:#171715;stroke-linecap:square;stroke-miterlimit:10;stroke-width:6px;}</style></defs><g id="Layer_2" data-name="Layer 2"><rect class="cls-1" x="248.52" y="493.74" width="177.46" height="51.39"/></g><g id="Layer_4" data-name="Layer 4"><path class="cls-1" d="M632.23,628.72,425.36,493.66l-21.74,23.92H269.39l-21.74-23.92-206,136C16.54,645.42,0,672.16,0,702.51v166H675.5v-166C675.5,671.52,658.26,644.29,632.23,628.72Z"/><rect class="cls-2" x="247.27" y="408" width="180.51" height="94.2" rx="18.09"/><path class="cls-3" d="M337.46,106.61v377.5h17.09a30.6,30.6,0,0,0,19.15-6.76l72.93-58.52a48.6,48.6,0,0,0,18-37.9V106.61Z"/><path class="cls-4" d="M209.34,105.79V380.3A48.56,48.56,0,0,0,227.14,418l73.1,59.4a30.6,30.6,0,0,0,19.3,6.89h18V105.79Z"/></g><g id="Layer_3" data-name="Layer 3"><path class="cls-5" d="M296.29,391h83.84a0,0,0,0,1,0,0v4.1a18.58,18.58,0,0,1-18.58,18.58H314.87a18.58,18.58,0,0,1-18.58-18.58V391A0,0,0,0,1,296.29,391Z"/><rect class="cls-6" x="322.53" y="400.37" width="29.98" height="7.63" rx="3.81"/><path class="cls-7" d="M357.54,266.59c0-30.51,24.21-55.24,54.06-55.24s54,24.73,54,55.24"/><path class="cls-8" d="M432.57,267c0-15-14.54-27.07-32.47-27.07S367.62,252.09,367.62,267"/><rect class="cls-9" x="310.11" y="336.55" width="54.82" height="8.21"/><ellipse class="cls-7" cx="366.27" cy="327.92" rx="16.48" ry="16.84"/><rect class="cls-7" x="319.86" y="247.64" width="36.71" height="93.01" rx="18.35"/><ellipse class="cls-7" cx="310.11" cy="327.92" rx="16.48" ry="16.84"/><ellipse class="cls-10" cx="338.21" cy="327.92" rx="21.49" ry="21.96"/><polygon class="cls-8" points="369.64 267.27 429 267.27 398.89 239.97 389.45 243.97 369.64 267.27"/><ellipse class="cls-11" cx="398.89" cy="253.62" rx="13.35" ry="13.65"/><path class="cls-12" d="M398.89,267.27a13.65,13.65,0,0,1,0-27.3"/><path class="cls-13" d="M451.36,229.18a53.25,53.25,0,0,0-79.52,0Z"/><path class="cls-14" d="M290.12,379.59h38.43A11.44,11.44,0,0,1,340,391v0a0,0,0,0,1,0,0H278.68a0,0,0,0,1,0,0v0a11.44,11.44,0,0,1,11.44-11.44Z"/><path class="cls-14" d="M351.43,379.59h38.43A11.44,11.44,0,0,1,401.3,391v0a0,0,0,0,1,0,0H340a0,0,0,0,1,0,0v0A11.44,11.44,0,0,1,351.43,379.59Z"/><path class="cls-15" d="M432.57,263.58c0-13-14.54-23.61-32.47-23.61s-32.48,10.57-32.48,23.61"/><path class="cls-7" d="M318.45,266.59c0-30.51-24.2-55.24-54.06-55.24s-54,24.73-54,55.24"/><path class="cls-8" d="M243.42,267c0-15,14.54-27.07,32.48-27.07s32.47,12.12,32.47,27.07"/><polygon class="cls-8" points="306.35 267.27 247 267.27 277.1 239.97 286.54 243.97 306.35 267.27"/><ellipse class="cls-11" cx="277.1" cy="253.62" rx="13.35" ry="13.65"/><path class="cls-12" d="M277.1,267.27a13.65,13.65,0,0,0,0-27.3"/><path class="cls-13" d="M224.64,229.18a53.24,53.24,0,0,1,79.51,0Z"/><path class="cls-15" d="M243.42,263.58c0-13,14.54-23.61,32.48-23.61s32.47,10.57,32.47,23.61"/><rect class="cls-7" x="370.74" y="271.97" width="57.16" height="10.19"/><rect class="cls-7" x="248.52" y="271.97" width="57.16" height="10.19"/></g><g id="hair"><rect class="cls-1" x="464.43" y="125.89" width="18.88" height="120.21" transform="translate(947.75 371.98) rotate(-180)"/><polygon class="cls-1" points="483.31 246.1 519.93 116.96 469.52 116.96 483.31 246.1"/><rect class="cls-1" x="191.46" y="98.71" width="18.88" height="158.01"/><path class="cls-1" d="M293,151.13a102.74,102.74,0,0,1,9.15-10.76,98,98,0,0,1,140.68,0,102.79,102.79,0,0,1,28.64,82c29.4-39.83,26.36-96.73-9.15-133a98,98,0,0,0-140.68,0A102.17,102.17,0,0,0,293,151.13Z"/><path class="cls-1" d="M279.35,54.17c-10.15,30.26-45.69,15.58-76,5.43a57.66,57.66,0,0,1-35.68-34.34A57.8,57.8,0,0,0,279.35,54.17C283.76,41,280.22,51.57,279.35,54.17Z"/><path class="cls-1" d="M205.26,144.62a42.37,42.37,0,0,1-5.13,2.3c-20.79,7.59-43.67-3.47-51.1-24.72a41.58,41.58,0,0,1,3.4-34.83c-17.38,9.3-25.84,30.5-19.05,49.92,7.43,21.25,30.31,32.31,51.1,24.72A40.06,40.06,0,0,0,205.26,144.62Z"/><path class="cls-1" d="M425.5,25a38.67,38.67,0,0,1,5.1,2,39.24,39.24,0,0,1-7.88,73.49A39.23,39.23,0,1,0,425.5,25Z"/><path class="cls-1" d="M410.45,32.06a39.23,39.23,0,0,1-2.77,75.52,39.23,39.23,0,1,0,2.77-75.52Z"/><path class="cls-1" d="M237.38,62.8A40.58,40.58,0,0,1,234.85,68c-11.41,19.64-37.22,26-57.64,14.08a43.35,43.35,0,0,1-21-29.69c-7.53,18.75.17,41,18.83,51.87,20.42,11.87,46.23,5.56,57.65-14.08A40.06,40.06,0,0,0,237.38,62.8Z"/><polygon class="cls-1" points="191.46 256.72 154.85 127.59 205.26 127.59 191.46 256.72"/><path class="cls-1" d="M191.46,136.51A36.31,36.31,0,0,0,161.78,152l16.05,56.63a35.81,35.81,0,0,0,13.63,2.69c20.22,0,36.61-16.75,36.61-37.42S211.68,136.51,191.46,136.51Z"/><rect class="cls-10" x="191.46" y="229.18" width="18.88" height="98.74" rx="9.44"/><rect class="cls-10" x="464.43" y="229.18" width="18.88" height="98.74" rx="9.44"/><ellipse class="cls-1" cx="182.51" cy="117.69" rx="33.79" ry="30.32"/><path class="cls-1" d="M447.7,124.52a38.32,38.32,0,0,0,5.13,2.3c20.78,7.6,43.66-3.47,51.09-24.71a41.54,41.54,0,0,0-3.4-34.83c17.38,9.3,25.85,30.5,19.05,49.92-7.43,21.24-30.31,32.31-51.09,24.71A40,40,0,0,1,447.7,124.52Z"/><ellipse class="cls-1" cx="470.44" cy="97.59" rx="33.79" ry="30.32"/><path class="cls-1" d="M336.87,45c80.93,0,148.21,59.76,161.9,138.46h2.55c0-92.83-73.63-168.08-164.45-168.08S172.41,90.59,172.41,183.42H175C188.65,104.72,255.93,45,336.87,45Z"/><polygon class="cls-1" points="199.02 113.06 266.51 133.77 360.61 83.78 406.96 56.39 375.24 36.05 269.98 49.49 199.02 117.69 199.02 113.06"/><path class="cls-1" d="M337.89,17.73c-4.07,52.33-46.91,93.5-99.16,93.5a98.45,98.45,0,0,1-77-37.32c6.76,49.41,48.28,87.45,98.5,87.45,54.94,0,99.48-45.52,99.48-101.67C359.7,43.59,342.06,17.66,337.89,17.73Z"/><rect class="cls-1" x="380.13" y="50.84" width="38.06" height="38.06"/></g></svg>